%TF.GenerationSoftware,KiCad,Pcbnew,(5.99.0-9843-g93c991926f)*%
%TF.CreationDate,2021-03-24T22:11:12-04:00*%
%TF.ProjectId,nixieclock,6e697869-6563-46c6-9f63-6b2e6b696361,rev?*%
%TF.SameCoordinates,Original*%
%TF.FileFunction,Legend,Bot*%
%TF.FilePolarity,Positive*%
%FSLAX46Y46*%
G04 Gerber Fmt 4.6, Leading zero omitted, Abs format (unit mm)*
G04 Created by KiCad (PCBNEW (5.99.0-9843-g93c991926f)) date 2021-03-24 22:11:12*
%MOMM*%
%LPD*%
G01*
G04 APERTURE LIST*
%ADD10C,0.150000*%
%ADD11C,0.300000*%
%ADD12C,0.120000*%
G04 APERTURE END LIST*
D10*
X112250000Y-94750000D02*
X111750000Y-95250000D01*
X124250000Y-109250000D02*
X125500000Y-109250000D01*
X111750000Y-95250000D02*
X111750000Y-95750000D01*
X110250000Y-95250000D02*
X109500000Y-94500000D01*
X111750000Y-95250000D02*
X110250000Y-95250000D01*
X126000000Y-108750000D02*
X126000000Y-108250000D01*
X113500000Y-94750000D02*
X112250000Y-94750000D01*
X125500000Y-109250000D02*
X126000000Y-108750000D01*
X125714285Y-110952380D02*
X125714285Y-109952380D01*
X125714285Y-110428571D02*
X125142857Y-110428571D01*
X125142857Y-110952380D02*
X125142857Y-109952380D01*
X124809523Y-109952380D02*
X124476190Y-110952380D01*
X124142857Y-109952380D01*
D11*
X55605071Y-102965133D02*
X54105071Y-103152633D01*
X55176500Y-103518705D01*
X54105071Y-104152633D01*
X55605071Y-103965133D01*
X55605071Y-105322276D02*
X54819357Y-105420491D01*
X54676500Y-105366919D01*
X54605071Y-105232991D01*
X54605071Y-104947276D01*
X54676500Y-104795491D01*
X55533642Y-105331205D02*
X55605071Y-105179419D01*
X55605071Y-104822276D01*
X55533642Y-104688348D01*
X55390785Y-104634776D01*
X55247928Y-104652633D01*
X55105071Y-104741919D01*
X55033642Y-104893705D01*
X55033642Y-105250848D01*
X54962214Y-105402633D01*
X55605071Y-106679419D02*
X54105071Y-106866919D01*
X55533642Y-106688348D02*
X55605071Y-106536562D01*
X55605071Y-106250848D01*
X55533642Y-106116919D01*
X55462214Y-106054419D01*
X55319357Y-106000848D01*
X54890785Y-106054419D01*
X54747928Y-106143705D01*
X54676500Y-106224062D01*
X54605071Y-106375848D01*
X54605071Y-106661562D01*
X54676500Y-106795491D01*
X55533642Y-107974062D02*
X55605071Y-107822276D01*
X55605071Y-107536562D01*
X55533642Y-107402633D01*
X55390785Y-107349062D01*
X54819357Y-107420491D01*
X54676500Y-107509776D01*
X54605071Y-107661562D01*
X54605071Y-107947276D01*
X54676500Y-108081205D01*
X54819357Y-108134776D01*
X54962214Y-108116919D01*
X55105071Y-107384776D01*
X54605071Y-109804419D02*
X55605071Y-109965133D01*
X54890785Y-110340133D01*
X55605071Y-110536562D01*
X54605071Y-110947276D01*
X55605071Y-111393705D02*
X54605071Y-111518705D01*
X54105071Y-111581205D02*
X54176500Y-111500848D01*
X54247928Y-111563348D01*
X54176500Y-111643705D01*
X54105071Y-111581205D01*
X54247928Y-111563348D01*
X54605071Y-112018705D02*
X54605071Y-112590133D01*
X54105071Y-112295491D02*
X55390785Y-112134776D01*
X55533642Y-112188348D01*
X55605071Y-112322276D01*
X55605071Y-112465133D01*
X55605071Y-112965133D02*
X54105071Y-113152633D01*
X55605071Y-113607991D02*
X54819357Y-113706205D01*
X54676500Y-113652633D01*
X54605071Y-113518705D01*
X54605071Y-113304419D01*
X54676500Y-113152633D01*
X54747928Y-113072276D01*
X55605071Y-115679419D02*
X55533642Y-115545491D01*
X55390785Y-115491919D01*
X54105071Y-115652633D01*
X55605071Y-116465133D02*
X55533642Y-116331205D01*
X55462214Y-116268705D01*
X55319357Y-116215133D01*
X54890785Y-116268705D01*
X54747928Y-116357991D01*
X54676500Y-116438348D01*
X54605071Y-116590133D01*
X54605071Y-116804419D01*
X54676500Y-116938348D01*
X54747928Y-117000848D01*
X54890785Y-117054419D01*
X55319357Y-117000848D01*
X55462214Y-116911562D01*
X55533642Y-116831205D01*
X55605071Y-116679419D01*
X55605071Y-116465133D01*
X54605071Y-117590133D02*
X55605071Y-117822276D01*
X54605071Y-118304419D01*
X55533642Y-119331205D02*
X55605071Y-119179419D01*
X55605071Y-118893705D01*
X55533642Y-118759776D01*
X55390785Y-118706205D01*
X54819357Y-118777633D01*
X54676500Y-118866919D01*
X54605071Y-119018705D01*
X54605071Y-119304419D01*
X54676500Y-119438348D01*
X54819357Y-119491919D01*
X54962214Y-119474062D01*
X55105071Y-118741919D01*
X54605071Y-121090133D02*
X54605071Y-121661562D01*
X55605071Y-121179419D02*
X54319357Y-121340133D01*
X54176500Y-121429419D01*
X54105071Y-121581205D01*
X54105071Y-121724062D01*
X55605071Y-122250848D02*
X55533642Y-122116919D01*
X55462214Y-122054419D01*
X55319357Y-122000848D01*
X54890785Y-122054419D01*
X54747928Y-122143705D01*
X54676500Y-122224062D01*
X54605071Y-122375848D01*
X54605071Y-122590133D01*
X54676500Y-122724062D01*
X54747928Y-122786562D01*
X54890785Y-122840133D01*
X55319357Y-122786562D01*
X55462214Y-122697276D01*
X55533642Y-122616919D01*
X55605071Y-122465133D01*
X55605071Y-122250848D01*
X55605071Y-123393705D02*
X54605071Y-123518705D01*
X54890785Y-123482991D02*
X54747928Y-123572276D01*
X54676500Y-123652633D01*
X54605071Y-123804419D01*
X54605071Y-123947276D01*
X55462214Y-126340133D02*
X55533642Y-126259776D01*
X55605071Y-126036562D01*
X55605071Y-125893705D01*
X55533642Y-125688348D01*
X55390785Y-125563348D01*
X55247928Y-125509776D01*
X54962214Y-125474062D01*
X54747928Y-125500848D01*
X54462214Y-125607991D01*
X54319357Y-125697276D01*
X54176500Y-125857991D01*
X54105071Y-126081205D01*
X54105071Y-126224062D01*
X54176500Y-126429419D01*
X54247928Y-126491919D01*
X55605071Y-127179419D02*
X55533642Y-127045491D01*
X55390785Y-126991919D01*
X54105071Y-127152633D01*
X55605071Y-128393705D02*
X54819357Y-128491919D01*
X54676500Y-128438348D01*
X54605071Y-128304419D01*
X54605071Y-128018705D01*
X54676500Y-127866919D01*
X55533642Y-128402633D02*
X55605071Y-128250848D01*
X55605071Y-127893705D01*
X55533642Y-127759776D01*
X55390785Y-127706205D01*
X55247928Y-127724062D01*
X55105071Y-127813348D01*
X55033642Y-127965133D01*
X55033642Y-128322276D01*
X54962214Y-128474062D01*
X55605071Y-129107991D02*
X54605071Y-129232991D01*
X54105071Y-129295491D02*
X54176500Y-129215133D01*
X54247928Y-129277633D01*
X54176500Y-129357991D01*
X54105071Y-129295491D01*
X54247928Y-129277633D01*
X55605071Y-129822276D02*
X54605071Y-129947276D01*
X54890785Y-129911562D02*
X54747928Y-130000848D01*
X54676500Y-130081205D01*
X54605071Y-130232991D01*
X54605071Y-130375848D01*
X55533642Y-130831205D02*
X55605071Y-130822276D01*
X55747928Y-130732991D01*
X55819357Y-130652633D01*
X58020071Y-108643705D02*
X56520071Y-108831205D01*
X57234357Y-108741919D02*
X57234357Y-109599062D01*
X58020071Y-109500848D02*
X56520071Y-109688348D01*
X58020071Y-110857991D02*
X57234357Y-110956205D01*
X57091500Y-110902633D01*
X57020071Y-110768705D01*
X57020071Y-110482991D01*
X57091500Y-110331205D01*
X57948642Y-110866919D02*
X58020071Y-110715133D01*
X58020071Y-110357991D01*
X57948642Y-110224062D01*
X57805785Y-110170491D01*
X57662928Y-110188348D01*
X57520071Y-110277633D01*
X57448642Y-110429419D01*
X57448642Y-110786562D01*
X57377214Y-110938348D01*
X57020071Y-111697276D02*
X58520071Y-111509776D01*
X57091500Y-111688348D02*
X57020071Y-111840133D01*
X57020071Y-112125848D01*
X57091500Y-112259776D01*
X57162928Y-112322276D01*
X57305785Y-112375848D01*
X57734357Y-112322276D01*
X57877214Y-112232991D01*
X57948642Y-112152633D01*
X58020071Y-112000848D01*
X58020071Y-111715133D01*
X57948642Y-111581205D01*
X57020071Y-113054419D02*
X58520071Y-112866919D01*
X57091500Y-113045491D02*
X57020071Y-113197276D01*
X57020071Y-113482991D01*
X57091500Y-113616919D01*
X57162928Y-113679419D01*
X57305785Y-113732991D01*
X57734357Y-113679419D01*
X57877214Y-113590133D01*
X57948642Y-113509776D01*
X58020071Y-113357991D01*
X58020071Y-113072276D01*
X57948642Y-112938348D01*
X57020071Y-114268705D02*
X58020071Y-114500848D01*
X57020071Y-114982991D02*
X58020071Y-114500848D01*
X58377214Y-114313348D01*
X58448642Y-114232991D01*
X58520071Y-114081205D01*
X57234357Y-117170491D02*
X57305785Y-117375848D01*
X57377214Y-117438348D01*
X57520071Y-117491919D01*
X57734357Y-117465133D01*
X57877214Y-117375848D01*
X57948642Y-117295491D01*
X58020071Y-117143705D01*
X58020071Y-116572276D01*
X56520071Y-116759776D01*
X56520071Y-117259776D01*
X56591500Y-117393705D01*
X56662928Y-117456205D01*
X56805785Y-117509776D01*
X56948642Y-117491919D01*
X57091500Y-117402633D01*
X57162928Y-117322276D01*
X57234357Y-117170491D01*
X57234357Y-116670491D01*
X58020071Y-118072276D02*
X57020071Y-118197276D01*
X56520071Y-118259776D02*
X56591500Y-118179419D01*
X56662928Y-118241919D01*
X56591500Y-118322276D01*
X56520071Y-118259776D01*
X56662928Y-118241919D01*
X58020071Y-118786562D02*
X57020071Y-118911562D01*
X57305785Y-118875848D02*
X57162928Y-118965133D01*
X57091500Y-119045491D01*
X57020071Y-119197276D01*
X57020071Y-119340133D01*
X57020071Y-119625848D02*
X57020071Y-120197276D01*
X56520071Y-119902633D02*
X57805785Y-119741919D01*
X57948642Y-119795491D01*
X58020071Y-119929419D01*
X58020071Y-120072276D01*
X58020071Y-120572276D02*
X56520071Y-120759776D01*
X58020071Y-121215133D02*
X57234357Y-121313348D01*
X57091500Y-121259776D01*
X57020071Y-121125848D01*
X57020071Y-120911562D01*
X57091500Y-120759776D01*
X57162928Y-120679419D01*
X58020071Y-122572276D02*
X56520071Y-122759776D01*
X57948642Y-122581205D02*
X58020071Y-122429419D01*
X58020071Y-122143705D01*
X57948642Y-122009776D01*
X57877214Y-121947276D01*
X57734357Y-121893705D01*
X57305785Y-121947276D01*
X57162928Y-122036562D01*
X57091500Y-122116919D01*
X57020071Y-122268705D01*
X57020071Y-122554419D01*
X57091500Y-122688348D01*
X58020071Y-123929419D02*
X57234357Y-124027633D01*
X57091500Y-123974062D01*
X57020071Y-123840133D01*
X57020071Y-123554419D01*
X57091500Y-123402633D01*
X57948642Y-123938348D02*
X58020071Y-123786562D01*
X58020071Y-123429419D01*
X57948642Y-123295491D01*
X57805785Y-123241919D01*
X57662928Y-123259776D01*
X57520071Y-123349062D01*
X57448642Y-123500848D01*
X57448642Y-123857991D01*
X57377214Y-124009776D01*
X57020071Y-124625848D02*
X58020071Y-124857991D01*
X57020071Y-125340133D02*
X58020071Y-124857991D01*
X58377214Y-124670491D01*
X58448642Y-124590133D01*
X58520071Y-124438348D01*
X162178571Y-110116919D02*
X163250000Y-109982991D01*
X163464285Y-109884776D01*
X163607142Y-109724062D01*
X163678571Y-109500848D01*
X163678571Y-109357991D01*
X163678571Y-111357991D02*
X163678571Y-110643705D01*
X162178571Y-110831205D01*
X163535714Y-112732991D02*
X163607142Y-112652633D01*
X163678571Y-112429419D01*
X163678571Y-112286562D01*
X163607142Y-112081205D01*
X163464285Y-111956205D01*
X163321428Y-111902633D01*
X163035714Y-111866919D01*
X162821428Y-111893705D01*
X162535714Y-112000848D01*
X162392857Y-112090133D01*
X162250000Y-112250848D01*
X162178571Y-112474062D01*
X162178571Y-112616919D01*
X162250000Y-112822276D01*
X162321428Y-112884776D01*
X162178571Y-113974062D02*
X163250000Y-113840133D01*
X163464285Y-113741919D01*
X163607142Y-113581205D01*
X163678571Y-113357991D01*
X163678571Y-113215133D01*
X163678571Y-115215133D02*
X163678571Y-114500848D01*
X162178571Y-114688348D01*
X163535714Y-116590133D02*
X163607142Y-116509776D01*
X163678571Y-116286562D01*
X163678571Y-116143705D01*
X163607142Y-115938348D01*
X163464285Y-115813348D01*
X163321428Y-115759776D01*
X163035714Y-115724062D01*
X162821428Y-115750848D01*
X162535714Y-115857991D01*
X162392857Y-115947276D01*
X162250000Y-116107991D01*
X162178571Y-116331205D01*
X162178571Y-116474062D01*
X162250000Y-116679419D01*
X162321428Y-116741919D01*
X162178571Y-117831205D02*
X163250000Y-117697276D01*
X163464285Y-117599062D01*
X163607142Y-117438348D01*
X163678571Y-117215133D01*
X163678571Y-117072276D01*
X163678571Y-119072276D02*
X163678571Y-118357991D01*
X162178571Y-118545491D01*
X163535714Y-120447276D02*
X163607142Y-120366919D01*
X163678571Y-120143705D01*
X163678571Y-120000848D01*
X163607142Y-119795491D01*
X163464285Y-119670491D01*
X163321428Y-119616919D01*
X163035714Y-119581205D01*
X162821428Y-119607991D01*
X162535714Y-119715133D01*
X162392857Y-119804419D01*
X162250000Y-119965133D01*
X162178571Y-120188348D01*
X162178571Y-120331205D01*
X162250000Y-120536562D01*
X162321428Y-120599062D01*
X162178571Y-121688348D02*
X163250000Y-121554419D01*
X163464285Y-121456205D01*
X163607142Y-121295491D01*
X163678571Y-121072276D01*
X163678571Y-120929419D01*
X163678571Y-122929419D02*
X163678571Y-122215133D01*
X162178571Y-122402633D01*
X163535714Y-124304419D02*
X163607142Y-124224062D01*
X163678571Y-124000848D01*
X163678571Y-123857991D01*
X163607142Y-123652633D01*
X163464285Y-123527633D01*
X163321428Y-123474062D01*
X163035714Y-123438348D01*
X162821428Y-123465133D01*
X162535714Y-123572276D01*
X162392857Y-123661562D01*
X162250000Y-123822276D01*
X162178571Y-124045491D01*
X162178571Y-124188348D01*
X162250000Y-124393705D01*
X162321428Y-124456205D01*
D10*
X111714285Y-94452380D02*
X111714285Y-93452380D01*
X111714285Y-93928571D02*
X111142857Y-93928571D01*
X111142857Y-94452380D02*
X111142857Y-93452380D01*
X110809523Y-93452380D02*
X110476190Y-94452380D01*
X110142857Y-93452380D01*
%TO.C,R10*%
X121702380Y-107607142D02*
X121226190Y-107273809D01*
X121702380Y-107035714D02*
X120702380Y-107035714D01*
X120702380Y-107416666D01*
X120750000Y-107511904D01*
X120797619Y-107559523D01*
X120892857Y-107607142D01*
X121035714Y-107607142D01*
X121130952Y-107559523D01*
X121178571Y-107511904D01*
X121226190Y-107416666D01*
X121226190Y-107035714D01*
X121702380Y-108559523D02*
X121702380Y-107988095D01*
X121702380Y-108273809D02*
X120702380Y-108273809D01*
X120845238Y-108178571D01*
X120940476Y-108083333D01*
X120988095Y-107988095D01*
X120702380Y-109178571D02*
X120702380Y-109273809D01*
X120750000Y-109369047D01*
X120797619Y-109416666D01*
X120892857Y-109464285D01*
X121083333Y-109511904D01*
X121321428Y-109511904D01*
X121511904Y-109464285D01*
X121607142Y-109416666D01*
X121654761Y-109369047D01*
X121702380Y-109273809D01*
X121702380Y-109178571D01*
X121654761Y-109083333D01*
X121607142Y-109035714D01*
X121511904Y-108988095D01*
X121321428Y-108940476D01*
X121083333Y-108940476D01*
X120892857Y-108988095D01*
X120797619Y-109035714D01*
X120750000Y-109083333D01*
X120702380Y-109178571D01*
%TO.C,Q5*%
X119345238Y-101847619D02*
X119440476Y-101800000D01*
X119535714Y-101704761D01*
X119678571Y-101561904D01*
X119773809Y-101514285D01*
X119869047Y-101514285D01*
X119821428Y-101752380D02*
X119916666Y-101704761D01*
X120011904Y-101609523D01*
X120059523Y-101419047D01*
X120059523Y-101085714D01*
X120011904Y-100895238D01*
X119916666Y-100800000D01*
X119821428Y-100752380D01*
X119630952Y-100752380D01*
X119535714Y-100800000D01*
X119440476Y-100895238D01*
X119392857Y-101085714D01*
X119392857Y-101419047D01*
X119440476Y-101609523D01*
X119535714Y-101704761D01*
X119630952Y-101752380D01*
X119821428Y-101752380D01*
X118488095Y-100752380D02*
X118964285Y-100752380D01*
X119011904Y-101228571D01*
X118964285Y-101180952D01*
X118869047Y-101133333D01*
X118630952Y-101133333D01*
X118535714Y-101180952D01*
X118488095Y-101228571D01*
X118440476Y-101323809D01*
X118440476Y-101561904D01*
X118488095Y-101657142D01*
X118535714Y-101704761D01*
X118630952Y-101752380D01*
X118869047Y-101752380D01*
X118964285Y-101704761D01*
X119011904Y-101657142D01*
%TO.C,R18*%
X125252380Y-92307261D02*
X124776190Y-91973928D01*
X125252380Y-91735833D02*
X124252380Y-91735833D01*
X124252380Y-92116785D01*
X124300000Y-92212023D01*
X124347619Y-92259642D01*
X124442857Y-92307261D01*
X124585714Y-92307261D01*
X124680952Y-92259642D01*
X124728571Y-92212023D01*
X124776190Y-92116785D01*
X124776190Y-91735833D01*
X125252380Y-93259642D02*
X125252380Y-92688214D01*
X125252380Y-92973928D02*
X124252380Y-92973928D01*
X124395238Y-92878690D01*
X124490476Y-92783452D01*
X124538095Y-92688214D01*
X124680952Y-93831071D02*
X124633333Y-93735833D01*
X124585714Y-93688214D01*
X124490476Y-93640595D01*
X124442857Y-93640595D01*
X124347619Y-93688214D01*
X124300000Y-93735833D01*
X124252380Y-93831071D01*
X124252380Y-94021547D01*
X124300000Y-94116785D01*
X124347619Y-94164404D01*
X124442857Y-94212023D01*
X124490476Y-94212023D01*
X124585714Y-94164404D01*
X124633333Y-94116785D01*
X124680952Y-94021547D01*
X124680952Y-93831071D01*
X124728571Y-93735833D01*
X124776190Y-93688214D01*
X124871428Y-93640595D01*
X125061904Y-93640595D01*
X125157142Y-93688214D01*
X125204761Y-93735833D01*
X125252380Y-93831071D01*
X125252380Y-94021547D01*
X125204761Y-94116785D01*
X125157142Y-94164404D01*
X125061904Y-94212023D01*
X124871428Y-94212023D01*
X124776190Y-94164404D01*
X124728571Y-94116785D01*
X124680952Y-94021547D01*
%TO.C,R15*%
X123752380Y-92307261D02*
X123276190Y-91973928D01*
X123752380Y-91735833D02*
X122752380Y-91735833D01*
X122752380Y-92116785D01*
X122800000Y-92212023D01*
X122847619Y-92259642D01*
X122942857Y-92307261D01*
X123085714Y-92307261D01*
X123180952Y-92259642D01*
X123228571Y-92212023D01*
X123276190Y-92116785D01*
X123276190Y-91735833D01*
X123752380Y-93259642D02*
X123752380Y-92688214D01*
X123752380Y-92973928D02*
X122752380Y-92973928D01*
X122895238Y-92878690D01*
X122990476Y-92783452D01*
X123038095Y-92688214D01*
X122752380Y-94164404D02*
X122752380Y-93688214D01*
X123228571Y-93640595D01*
X123180952Y-93688214D01*
X123133333Y-93783452D01*
X123133333Y-94021547D01*
X123180952Y-94116785D01*
X123228571Y-94164404D01*
X123323809Y-94212023D01*
X123561904Y-94212023D01*
X123657142Y-94164404D01*
X123704761Y-94116785D01*
X123752380Y-94021547D01*
X123752380Y-93783452D01*
X123704761Y-93688214D01*
X123657142Y-93640595D01*
%TO.C,R17*%
X114802380Y-109657023D02*
X114326190Y-109323690D01*
X114802380Y-109085595D02*
X113802380Y-109085595D01*
X113802380Y-109466547D01*
X113850000Y-109561785D01*
X113897619Y-109609404D01*
X113992857Y-109657023D01*
X114135714Y-109657023D01*
X114230952Y-109609404D01*
X114278571Y-109561785D01*
X114326190Y-109466547D01*
X114326190Y-109085595D01*
X114802380Y-110609404D02*
X114802380Y-110037976D01*
X114802380Y-110323690D02*
X113802380Y-110323690D01*
X113945238Y-110228452D01*
X114040476Y-110133214D01*
X114088095Y-110037976D01*
X113802380Y-110942738D02*
X113802380Y-111609404D01*
X114802380Y-111180833D01*
%TO.C,Q3*%
X109747619Y-97654761D02*
X109700000Y-97559523D01*
X109604761Y-97464285D01*
X109461904Y-97321428D01*
X109414285Y-97226190D01*
X109414285Y-97130952D01*
X109652380Y-97178571D02*
X109604761Y-97083333D01*
X109509523Y-96988095D01*
X109319047Y-96940476D01*
X108985714Y-96940476D01*
X108795238Y-96988095D01*
X108700000Y-97083333D01*
X108652380Y-97178571D01*
X108652380Y-97369047D01*
X108700000Y-97464285D01*
X108795238Y-97559523D01*
X108985714Y-97607142D01*
X109319047Y-97607142D01*
X109509523Y-97559523D01*
X109604761Y-97464285D01*
X109652380Y-97369047D01*
X109652380Y-97178571D01*
X108652380Y-97940476D02*
X108652380Y-98559523D01*
X109033333Y-98226190D01*
X109033333Y-98369047D01*
X109080952Y-98464285D01*
X109128571Y-98511904D01*
X109223809Y-98559523D01*
X109461904Y-98559523D01*
X109557142Y-98511904D01*
X109604761Y-98464285D01*
X109652380Y-98369047D01*
X109652380Y-98083333D01*
X109604761Y-97988095D01*
X109557142Y-97940476D01*
%TO.C,Q6*%
X119295238Y-108347619D02*
X119390476Y-108300000D01*
X119485714Y-108204761D01*
X119628571Y-108061904D01*
X119723809Y-108014285D01*
X119819047Y-108014285D01*
X119771428Y-108252380D02*
X119866666Y-108204761D01*
X119961904Y-108109523D01*
X120009523Y-107919047D01*
X120009523Y-107585714D01*
X119961904Y-107395238D01*
X119866666Y-107300000D01*
X119771428Y-107252380D01*
X119580952Y-107252380D01*
X119485714Y-107300000D01*
X119390476Y-107395238D01*
X119342857Y-107585714D01*
X119342857Y-107919047D01*
X119390476Y-108109523D01*
X119485714Y-108204761D01*
X119580952Y-108252380D01*
X119771428Y-108252380D01*
X118485714Y-107252380D02*
X118676190Y-107252380D01*
X118771428Y-107300000D01*
X118819047Y-107347619D01*
X118914285Y-107490476D01*
X118961904Y-107680952D01*
X118961904Y-108061904D01*
X118914285Y-108157142D01*
X118866666Y-108204761D01*
X118771428Y-108252380D01*
X118580952Y-108252380D01*
X118485714Y-108204761D01*
X118438095Y-108157142D01*
X118390476Y-108061904D01*
X118390476Y-107823809D01*
X118438095Y-107728571D01*
X118485714Y-107680952D01*
X118580952Y-107633333D01*
X118771428Y-107633333D01*
X118866666Y-107680952D01*
X118914285Y-107728571D01*
X118961904Y-107823809D01*
%TO.C,Q4*%
X129147619Y-106154761D02*
X129100000Y-106059523D01*
X129004761Y-105964285D01*
X128861904Y-105821428D01*
X128814285Y-105726190D01*
X128814285Y-105630952D01*
X129052380Y-105678571D02*
X129004761Y-105583333D01*
X128909523Y-105488095D01*
X128719047Y-105440476D01*
X128385714Y-105440476D01*
X128195238Y-105488095D01*
X128100000Y-105583333D01*
X128052380Y-105678571D01*
X128052380Y-105869047D01*
X128100000Y-105964285D01*
X128195238Y-106059523D01*
X128385714Y-106107142D01*
X128719047Y-106107142D01*
X128909523Y-106059523D01*
X129004761Y-105964285D01*
X129052380Y-105869047D01*
X129052380Y-105678571D01*
X128385714Y-106964285D02*
X129052380Y-106964285D01*
X128004761Y-106726190D02*
X128719047Y-106488095D01*
X128719047Y-107107142D01*
%TO.C,R9*%
X115202380Y-92733333D02*
X114726190Y-92400000D01*
X115202380Y-92161904D02*
X114202380Y-92161904D01*
X114202380Y-92542857D01*
X114250000Y-92638095D01*
X114297619Y-92685714D01*
X114392857Y-92733333D01*
X114535714Y-92733333D01*
X114630952Y-92685714D01*
X114678571Y-92638095D01*
X114726190Y-92542857D01*
X114726190Y-92161904D01*
X115202380Y-93209523D02*
X115202380Y-93400000D01*
X115154761Y-93495238D01*
X115107142Y-93542857D01*
X114964285Y-93638095D01*
X114773809Y-93685714D01*
X114392857Y-93685714D01*
X114297619Y-93638095D01*
X114250000Y-93590476D01*
X114202380Y-93495238D01*
X114202380Y-93304761D01*
X114250000Y-93209523D01*
X114297619Y-93161904D01*
X114392857Y-93114285D01*
X114630952Y-93114285D01*
X114726190Y-93161904D01*
X114773809Y-93209523D01*
X114821428Y-93304761D01*
X114821428Y-93495238D01*
X114773809Y-93590476D01*
X114726190Y-93638095D01*
X114630952Y-93685714D01*
%TO.C,R14*%
X116402380Y-109657023D02*
X115926190Y-109323690D01*
X116402380Y-109085595D02*
X115402380Y-109085595D01*
X115402380Y-109466547D01*
X115450000Y-109561785D01*
X115497619Y-109609404D01*
X115592857Y-109657023D01*
X115735714Y-109657023D01*
X115830952Y-109609404D01*
X115878571Y-109561785D01*
X115926190Y-109466547D01*
X115926190Y-109085595D01*
X116402380Y-110609404D02*
X116402380Y-110037976D01*
X116402380Y-110323690D02*
X115402380Y-110323690D01*
X115545238Y-110228452D01*
X115640476Y-110133214D01*
X115688095Y-110037976D01*
X115735714Y-111466547D02*
X116402380Y-111466547D01*
X115354761Y-111228452D02*
X116069047Y-110990357D01*
X116069047Y-111609404D01*
%TO.C,R26*%
X114602380Y-120107142D02*
X114126190Y-119773809D01*
X114602380Y-119535714D02*
X113602380Y-119535714D01*
X113602380Y-119916666D01*
X113650000Y-120011904D01*
X113697619Y-120059523D01*
X113792857Y-120107142D01*
X113935714Y-120107142D01*
X114030952Y-120059523D01*
X114078571Y-120011904D01*
X114126190Y-119916666D01*
X114126190Y-119535714D01*
X113697619Y-120488095D02*
X113650000Y-120535714D01*
X113602380Y-120630952D01*
X113602380Y-120869047D01*
X113650000Y-120964285D01*
X113697619Y-121011904D01*
X113792857Y-121059523D01*
X113888095Y-121059523D01*
X114030952Y-121011904D01*
X114602380Y-120440476D01*
X114602380Y-121059523D01*
X113602380Y-121916666D02*
X113602380Y-121726190D01*
X113650000Y-121630952D01*
X113697619Y-121583333D01*
X113840476Y-121488095D01*
X114030952Y-121440476D01*
X114411904Y-121440476D01*
X114507142Y-121488095D01*
X114554761Y-121535714D01*
X114602380Y-121630952D01*
X114602380Y-121821428D01*
X114554761Y-121916666D01*
X114507142Y-121964285D01*
X114411904Y-122011904D01*
X114173809Y-122011904D01*
X114078571Y-121964285D01*
X114030952Y-121916666D01*
X113983333Y-121821428D01*
X113983333Y-121630952D01*
X114030952Y-121535714D01*
X114078571Y-121488095D01*
X114173809Y-121440476D01*
%TO.C,R16*%
X113202380Y-109657023D02*
X112726190Y-109323690D01*
X113202380Y-109085595D02*
X112202380Y-109085595D01*
X112202380Y-109466547D01*
X112250000Y-109561785D01*
X112297619Y-109609404D01*
X112392857Y-109657023D01*
X112535714Y-109657023D01*
X112630952Y-109609404D01*
X112678571Y-109561785D01*
X112726190Y-109466547D01*
X112726190Y-109085595D01*
X113202380Y-110609404D02*
X113202380Y-110037976D01*
X113202380Y-110323690D02*
X112202380Y-110323690D01*
X112345238Y-110228452D01*
X112440476Y-110133214D01*
X112488095Y-110037976D01*
X112202380Y-111466547D02*
X112202380Y-111276071D01*
X112250000Y-111180833D01*
X112297619Y-111133214D01*
X112440476Y-111037976D01*
X112630952Y-110990357D01*
X113011904Y-110990357D01*
X113107142Y-111037976D01*
X113154761Y-111085595D01*
X113202380Y-111180833D01*
X113202380Y-111371309D01*
X113154761Y-111466547D01*
X113107142Y-111514166D01*
X113011904Y-111561785D01*
X112773809Y-111561785D01*
X112678571Y-111514166D01*
X112630952Y-111466547D01*
X112583333Y-111371309D01*
X112583333Y-111180833D01*
X112630952Y-111085595D01*
X112678571Y-111037976D01*
X112773809Y-110990357D01*
%TO.C,Q8*%
X129047619Y-102404761D02*
X129000000Y-102309523D01*
X128904761Y-102214285D01*
X128761904Y-102071428D01*
X128714285Y-101976190D01*
X128714285Y-101880952D01*
X128952380Y-101928571D02*
X128904761Y-101833333D01*
X128809523Y-101738095D01*
X128619047Y-101690476D01*
X128285714Y-101690476D01*
X128095238Y-101738095D01*
X128000000Y-101833333D01*
X127952380Y-101928571D01*
X127952380Y-102119047D01*
X128000000Y-102214285D01*
X128095238Y-102309523D01*
X128285714Y-102357142D01*
X128619047Y-102357142D01*
X128809523Y-102309523D01*
X128904761Y-102214285D01*
X128952380Y-102119047D01*
X128952380Y-101928571D01*
X128380952Y-102928571D02*
X128333333Y-102833333D01*
X128285714Y-102785714D01*
X128190476Y-102738095D01*
X128142857Y-102738095D01*
X128047619Y-102785714D01*
X128000000Y-102833333D01*
X127952380Y-102928571D01*
X127952380Y-103119047D01*
X128000000Y-103214285D01*
X128047619Y-103261904D01*
X128142857Y-103309523D01*
X128190476Y-103309523D01*
X128285714Y-103261904D01*
X128333333Y-103214285D01*
X128380952Y-103119047D01*
X128380952Y-102928571D01*
X128428571Y-102833333D01*
X128476190Y-102785714D01*
X128571428Y-102738095D01*
X128761904Y-102738095D01*
X128857142Y-102785714D01*
X128904761Y-102833333D01*
X128952380Y-102928571D01*
X128952380Y-103119047D01*
X128904761Y-103214285D01*
X128857142Y-103261904D01*
X128761904Y-103309523D01*
X128571428Y-103309523D01*
X128476190Y-103261904D01*
X128428571Y-103214285D01*
X128380952Y-103119047D01*
%TO.C,R13*%
X122152380Y-92307261D02*
X121676190Y-91973928D01*
X122152380Y-91735833D02*
X121152380Y-91735833D01*
X121152380Y-92116785D01*
X121200000Y-92212023D01*
X121247619Y-92259642D01*
X121342857Y-92307261D01*
X121485714Y-92307261D01*
X121580952Y-92259642D01*
X121628571Y-92212023D01*
X121676190Y-92116785D01*
X121676190Y-91735833D01*
X122152380Y-93259642D02*
X122152380Y-92688214D01*
X122152380Y-92973928D02*
X121152380Y-92973928D01*
X121295238Y-92878690D01*
X121390476Y-92783452D01*
X121438095Y-92688214D01*
X121152380Y-93592976D02*
X121152380Y-94212023D01*
X121533333Y-93878690D01*
X121533333Y-94021547D01*
X121580952Y-94116785D01*
X121628571Y-94164404D01*
X121723809Y-94212023D01*
X121961904Y-94212023D01*
X122057142Y-94164404D01*
X122104761Y-94116785D01*
X122152380Y-94021547D01*
X122152380Y-93735833D01*
X122104761Y-93640595D01*
X122057142Y-93592976D01*
%TO.C,R12*%
X122892857Y-103952380D02*
X123226190Y-103476190D01*
X123464285Y-103952380D02*
X123464285Y-102952380D01*
X123083333Y-102952380D01*
X122988095Y-103000000D01*
X122940476Y-103047619D01*
X122892857Y-103142857D01*
X122892857Y-103285714D01*
X122940476Y-103380952D01*
X122988095Y-103428571D01*
X123083333Y-103476190D01*
X123464285Y-103476190D01*
X121940476Y-103952380D02*
X122511904Y-103952380D01*
X122226190Y-103952380D02*
X122226190Y-102952380D01*
X122321428Y-103095238D01*
X122416666Y-103190476D01*
X122511904Y-103238095D01*
X121559523Y-103047619D02*
X121511904Y-103000000D01*
X121416666Y-102952380D01*
X121178571Y-102952380D01*
X121083333Y-103000000D01*
X121035714Y-103047619D01*
X120988095Y-103142857D01*
X120988095Y-103238095D01*
X121035714Y-103380952D01*
X121607142Y-103952380D01*
X120988095Y-103952380D01*
%TO.C,R25*%
X109452380Y-120107142D02*
X108976190Y-119773809D01*
X109452380Y-119535714D02*
X108452380Y-119535714D01*
X108452380Y-119916666D01*
X108500000Y-120011904D01*
X108547619Y-120059523D01*
X108642857Y-120107142D01*
X108785714Y-120107142D01*
X108880952Y-120059523D01*
X108928571Y-120011904D01*
X108976190Y-119916666D01*
X108976190Y-119535714D01*
X108547619Y-120488095D02*
X108500000Y-120535714D01*
X108452380Y-120630952D01*
X108452380Y-120869047D01*
X108500000Y-120964285D01*
X108547619Y-121011904D01*
X108642857Y-121059523D01*
X108738095Y-121059523D01*
X108880952Y-121011904D01*
X109452380Y-120440476D01*
X109452380Y-121059523D01*
X108452380Y-121964285D02*
X108452380Y-121488095D01*
X108928571Y-121440476D01*
X108880952Y-121488095D01*
X108833333Y-121583333D01*
X108833333Y-121821428D01*
X108880952Y-121916666D01*
X108928571Y-121964285D01*
X109023809Y-122011904D01*
X109261904Y-122011904D01*
X109357142Y-121964285D01*
X109404761Y-121916666D01*
X109452380Y-121821428D01*
X109452380Y-121583333D01*
X109404761Y-121488095D01*
X109357142Y-121440476D01*
%TO.C,Q7*%
X109797619Y-101404761D02*
X109750000Y-101309523D01*
X109654761Y-101214285D01*
X109511904Y-101071428D01*
X109464285Y-100976190D01*
X109464285Y-100880952D01*
X109702380Y-100928571D02*
X109654761Y-100833333D01*
X109559523Y-100738095D01*
X109369047Y-100690476D01*
X109035714Y-100690476D01*
X108845238Y-100738095D01*
X108750000Y-100833333D01*
X108702380Y-100928571D01*
X108702380Y-101119047D01*
X108750000Y-101214285D01*
X108845238Y-101309523D01*
X109035714Y-101357142D01*
X109369047Y-101357142D01*
X109559523Y-101309523D01*
X109654761Y-101214285D01*
X109702380Y-101119047D01*
X109702380Y-100928571D01*
X108702380Y-101690476D02*
X108702380Y-102357142D01*
X109702380Y-101928571D01*
%TO.C,R11*%
X116142857Y-100952380D02*
X116476190Y-100476190D01*
X116714285Y-100952380D02*
X116714285Y-99952380D01*
X116333333Y-99952380D01*
X116238095Y-100000000D01*
X116190476Y-100047619D01*
X116142857Y-100142857D01*
X116142857Y-100285714D01*
X116190476Y-100380952D01*
X116238095Y-100428571D01*
X116333333Y-100476190D01*
X116714285Y-100476190D01*
X115190476Y-100952380D02*
X115761904Y-100952380D01*
X115476190Y-100952380D02*
X115476190Y-99952380D01*
X115571428Y-100095238D01*
X115666666Y-100190476D01*
X115761904Y-100238095D01*
X114238095Y-100952380D02*
X114809523Y-100952380D01*
X114523809Y-100952380D02*
X114523809Y-99952380D01*
X114619047Y-100095238D01*
X114714285Y-100190476D01*
X114809523Y-100238095D01*
D12*
%TO.C,R10*%
X123710000Y-108511252D02*
X123710000Y-107988748D01*
X122290000Y-108511252D02*
X122290000Y-107988748D01*
%TO.C,Q5*%
X118490000Y-100330000D02*
X118490000Y-99400000D01*
X118490000Y-100330000D02*
X119950000Y-100330000D01*
X118490000Y-97170000D02*
X118490000Y-98100000D01*
X118490000Y-97170000D02*
X120650000Y-97170000D01*
%TO.C,R18*%
X124290000Y-96028733D02*
X124290000Y-96371267D01*
X125310000Y-96028733D02*
X125310000Y-96371267D01*
%TO.C,R15*%
X123760000Y-96371267D02*
X123760000Y-96028733D01*
X122740000Y-96371267D02*
X122740000Y-96028733D01*
%TO.C,R17*%
X114860000Y-107221267D02*
X114860000Y-106878733D01*
X113840000Y-107221267D02*
X113840000Y-106878733D01*
%TO.C,Q3*%
X113330000Y-96990001D02*
X112400000Y-96990001D01*
X113330000Y-96990001D02*
X113330000Y-99150001D01*
X110170000Y-96990001D02*
X111100000Y-96990001D01*
X110170000Y-96990001D02*
X110170000Y-98450001D01*
%TO.C,Q6*%
X119260000Y-106830000D02*
X119260000Y-105900000D01*
X119260000Y-103670000D02*
X117800000Y-103670000D01*
X119260000Y-106830000D02*
X117100000Y-106830000D01*
X119260000Y-103670000D02*
X119260000Y-104600000D01*
%TO.C,Q4*%
X127580000Y-107010000D02*
X127580000Y-105550000D01*
X127580000Y-107010000D02*
X126650000Y-107010000D01*
X124420000Y-107010000D02*
X125350000Y-107010000D01*
X124420000Y-107010000D02*
X124420000Y-104850000D01*
%TO.C,R9*%
X115460000Y-95488748D02*
X115460000Y-96011252D01*
X114040000Y-95488748D02*
X114040000Y-96011252D01*
%TO.C,R14*%
X115440000Y-107221267D02*
X115440000Y-106878733D01*
X116460000Y-107221267D02*
X116460000Y-106878733D01*
%TO.C,R26*%
X113210000Y-121011252D02*
X113210000Y-120488748D01*
X111790000Y-121011252D02*
X111790000Y-120488748D01*
%TO.C,R16*%
X113260000Y-107221267D02*
X113260000Y-106878733D01*
X112240000Y-107221267D02*
X112240000Y-106878733D01*
%TO.C,Q8*%
X127580000Y-103260000D02*
X127580000Y-101800000D01*
X127580000Y-103260000D02*
X126650000Y-103260000D01*
X124420000Y-103260000D02*
X125350000Y-103260000D01*
X124420000Y-103260000D02*
X124420000Y-101100000D01*
%TO.C,R13*%
X122210000Y-96028733D02*
X122210000Y-96371267D01*
X121190000Y-96028733D02*
X121190000Y-96371267D01*
%TO.C,R12*%
X121988748Y-104540000D02*
X122511252Y-104540000D01*
X121988748Y-105960000D02*
X122511252Y-105960000D01*
%TO.C,R25*%
X106540000Y-120488748D02*
X106540000Y-121011252D01*
X107960000Y-120488748D02*
X107960000Y-121011252D01*
%TO.C,Q7*%
X110170000Y-100740000D02*
X111100000Y-100740000D01*
X113330000Y-100740000D02*
X113330000Y-102900000D01*
X113330000Y-100740000D02*
X112400000Y-100740000D01*
X110170000Y-100740000D02*
X110170000Y-102200000D01*
%TO.C,R11*%
X115761252Y-98040000D02*
X115238748Y-98040000D01*
X115761252Y-99460000D02*
X115238748Y-99460000D01*
%TO.C,BT1*%
X134600000Y-87470000D02*
X139140000Y-87470000D01*
X118060000Y-76850000D02*
X118060000Y-72230000D01*
X118060000Y-87470000D02*
X122600000Y-87470000D01*
X118060000Y-87470000D02*
X118060000Y-82850000D01*
X139140000Y-87470000D02*
X139140000Y-82850000D01*
X134600000Y-72230000D02*
X139140000Y-72230000D01*
X139140000Y-76850000D02*
X139140000Y-72230000D01*
X118060000Y-72230000D02*
X122600000Y-72230000D01*
%TD*%
M02*
