%TF.GenerationSoftware,KiCad,Pcbnew,(5.99.0-9843-g93c991926f)*%
%TF.CreationDate,2021-06-06T23:03:53-04:00*%
%TF.ProjectId,nixieclock,6e697869-6563-46c6-9f63-6b2e6b696361,rev?*%
%TF.SameCoordinates,Original*%
%TF.FileFunction,Paste,Bot*%
%TF.FilePolarity,Positive*%
%FSLAX46Y46*%
G04 Gerber Fmt 4.6, Leading zero omitted, Abs format (unit mm)*
G04 Created by KiCad (PCBNEW (5.99.0-9843-g93c991926f)) date 2021-06-06 23:03:53*
%MOMM*%
%LPD*%
G01*
G04 APERTURE LIST*
G04 Aperture macros list*
%AMRoundRect*
0 Rectangle with rounded corners*
0 $1 Rounding radius*
0 $2 $3 $4 $5 $6 $7 $8 $9 X,Y pos of 4 corners*
0 Add a 4 corners polygon primitive as box body*
4,1,4,$2,$3,$4,$5,$6,$7,$8,$9,$2,$3,0*
0 Add four circle primitives for the rounded corners*
1,1,$1+$1,$2,$3*
1,1,$1+$1,$4,$5*
1,1,$1+$1,$6,$7*
1,1,$1+$1,$8,$9*
0 Add four rect primitives between the rounded corners*
20,1,$1+$1,$2,$3,$4,$5,0*
20,1,$1+$1,$4,$5,$6,$7,0*
20,1,$1+$1,$6,$7,$8,$9,0*
20,1,$1+$1,$8,$9,$2,$3,0*%
G04 Aperture macros list end*
%ADD10RoundRect,0.250000X0.450000X-0.325000X0.450000X0.325000X-0.450000X0.325000X-0.450000X-0.325000X0*%
%ADD11R,0.900000X0.800000*%
%ADD12RoundRect,0.237500X-0.237500X0.287500X-0.237500X-0.287500X0.237500X-0.287500X0.237500X0.287500X0*%
%ADD13RoundRect,0.237500X0.237500X-0.287500X0.237500X0.287500X-0.237500X0.287500X-0.237500X-0.287500X0*%
%ADD14R,0.800000X0.900000*%
%ADD15RoundRect,0.250000X-0.450000X0.325000X-0.450000X-0.325000X0.450000X-0.325000X0.450000X0.325000X0*%
%ADD16RoundRect,0.250000X-0.325000X-0.450000X0.325000X-0.450000X0.325000X0.450000X-0.325000X0.450000X0*%
%ADD17RoundRect,0.250000X0.325000X0.450000X-0.325000X0.450000X-0.325000X-0.450000X0.325000X-0.450000X0*%
%ADD18R,2.790000X5.080000*%
%ADD19C,17.780000*%
G04 APERTURE END LIST*
D10*
%TO.C,R10*%
X123000000Y-109275000D03*
X123000000Y-107225000D03*
%TD*%
D11*
%TO.C,Q5*%
X120250000Y-97800000D03*
X120250000Y-99700000D03*
X118250000Y-98750000D03*
%TD*%
D12*
%TO.C,R18*%
X124800000Y-95325000D03*
X124800000Y-97075000D03*
%TD*%
D13*
%TO.C,R15*%
X123250000Y-97075000D03*
X123250000Y-95325000D03*
%TD*%
%TO.C,R17*%
X114350000Y-107925000D03*
X114350000Y-106175000D03*
%TD*%
D14*
%TO.C,Q3*%
X112700000Y-98750001D03*
X110800000Y-98750001D03*
X111750000Y-96750001D03*
%TD*%
D11*
%TO.C,Q6*%
X117500000Y-106200000D03*
X117500000Y-104300000D03*
X119500000Y-105250000D03*
%TD*%
D14*
%TO.C,Q4*%
X125050000Y-105250000D03*
X126950000Y-105250000D03*
X126000000Y-107250000D03*
%TD*%
D15*
%TO.C,R9*%
X114750000Y-94725000D03*
X114750000Y-96775000D03*
%TD*%
D13*
%TO.C,R14*%
X115950000Y-107925000D03*
X115950000Y-106175000D03*
%TD*%
D15*
%TO.C,R26*%
X110800000Y-119775000D03*
X110800000Y-121825000D03*
%TD*%
D13*
%TO.C,R16*%
X112750000Y-107925000D03*
X112750000Y-106175000D03*
%TD*%
D14*
%TO.C,Q8*%
X125050000Y-101500000D03*
X126950000Y-101500000D03*
X126000000Y-103500000D03*
%TD*%
D12*
%TO.C,R13*%
X121700000Y-95325000D03*
X121700000Y-97075000D03*
%TD*%
D16*
%TO.C,R12*%
X121225000Y-105250000D03*
X123275000Y-105250000D03*
%TD*%
D15*
%TO.C,R25*%
X108400000Y-119775000D03*
X108400000Y-121825000D03*
%TD*%
D14*
%TO.C,Q7*%
X112700000Y-102500000D03*
X110800000Y-102500000D03*
X111750000Y-100500000D03*
%TD*%
D17*
%TO.C,R11*%
X116525000Y-98750000D03*
X114475000Y-98750000D03*
%TD*%
D18*
%TO.C,BT1*%
X117615000Y-79850000D03*
X139585000Y-79850000D03*
D19*
X128600000Y-79850000D03*
%TD*%
M02*
