%TF.GenerationSoftware,KiCad,Pcbnew,(5.99.0-9843-g93c991926f)*%
%TF.CreationDate,2021-03-24T22:11:13-04:00*%
%TF.ProjectId,nixieclock,6e697869-6563-46c6-9f63-6b2e6b696361,rev?*%
%TF.SameCoordinates,Original*%
%TF.FileFunction,Soldermask,Bot*%
%TF.FilePolarity,Negative*%
%FSLAX46Y46*%
G04 Gerber Fmt 4.6, Leading zero omitted, Abs format (unit mm)*
G04 Created by KiCad (PCBNEW (5.99.0-9843-g93c991926f)) date 2021-03-24 22:11:13*
%MOMM*%
%LPD*%
G01*
G04 APERTURE LIST*
G04 Aperture macros list*
%AMRoundRect*
0 Rectangle with rounded corners*
0 $1 Rounding radius*
0 $2 $3 $4 $5 $6 $7 $8 $9 X,Y pos of 4 corners*
0 Add a 4 corners polygon primitive as box body*
4,1,4,$2,$3,$4,$5,$6,$7,$8,$9,$2,$3,0*
0 Add four circle primitives for the rounded corners*
1,1,$1+$1,$2,$3*
1,1,$1+$1,$4,$5*
1,1,$1+$1,$6,$7*
1,1,$1+$1,$8,$9*
0 Add four rect primitives between the rounded corners*
20,1,$1+$1,$2,$3,$4,$5,0*
20,1,$1+$1,$4,$5,$6,$7,0*
20,1,$1+$1,$6,$7,$8,$9,0*
20,1,$1+$1,$8,$9,$2,$3,0*%
G04 Aperture macros list end*
%ADD10C,0.700000*%
%ADD11O,0.900000X1.700000*%
%ADD12O,0.900000X2.400000*%
%ADD13C,10.600000*%
%ADD14O,2.400000X4.300000*%
%ADD15C,1.850000*%
%ADD16C,1.524000*%
%ADD17RoundRect,0.250000X0.450000X-0.325000X0.450000X0.325000X-0.450000X0.325000X-0.450000X-0.325000X0*%
%ADD18R,0.900000X0.800000*%
%ADD19RoundRect,0.237500X-0.237500X0.287500X-0.237500X-0.287500X0.237500X-0.287500X0.237500X0.287500X0*%
%ADD20RoundRect,0.237500X0.237500X-0.287500X0.237500X0.287500X-0.237500X0.287500X-0.237500X-0.287500X0*%
%ADD21R,0.800000X0.900000*%
%ADD22RoundRect,0.250000X-0.450000X0.325000X-0.450000X-0.325000X0.450000X-0.325000X0.450000X0.325000X0*%
%ADD23RoundRect,0.250000X-0.325000X-0.450000X0.325000X-0.450000X0.325000X0.450000X-0.325000X0.450000X0*%
%ADD24RoundRect,0.250000X0.325000X0.450000X-0.325000X0.450000X-0.325000X-0.450000X0.325000X-0.450000X0*%
%ADD25R,2.790000X5.080000*%
%ADD26C,17.780000*%
%ADD27C,0.800000*%
G04 APERTURE END LIST*
D10*
%TO.C,J1*%
X81975000Y-76025000D03*
X81125000Y-76025000D03*
X80275000Y-76025000D03*
X79425000Y-76025000D03*
X78575000Y-76025000D03*
X77725000Y-76025000D03*
X76875000Y-76025000D03*
X76025000Y-76025000D03*
X76025000Y-74675000D03*
X76875000Y-74675000D03*
X77725000Y-74675000D03*
X78575000Y-74675000D03*
X79425000Y-74675000D03*
X80275000Y-74675000D03*
X81125000Y-74675000D03*
X81975000Y-74675000D03*
D11*
X74675000Y-71665000D03*
D12*
X74675000Y-75045000D03*
D11*
X83325000Y-71665000D03*
D12*
X83325000Y-75045000D03*
%TD*%
D13*
%TO.C,H1*%
X56000000Y-76000000D03*
%TD*%
D14*
%TO.C,SW1*%
X143900000Y-74000000D03*
X155600000Y-74000000D03*
D15*
X152250000Y-72750000D03*
X147250000Y-72750000D03*
X149750000Y-72750000D03*
X152250000Y-75250000D03*
X147250000Y-75250000D03*
%TD*%
D13*
%TO.C,H2*%
X56000000Y-157000000D03*
%TD*%
%TO.C,H4*%
X164000000Y-76000000D03*
%TD*%
%TO.C,H3*%
X164000000Y-157000000D03*
%TD*%
D16*
%TO.C,V1*%
X76500000Y-121750000D03*
X79060000Y-122380000D03*
X81030000Y-124130000D03*
X81960000Y-126590000D03*
X81640000Y-129200000D03*
X80150000Y-131370000D03*
X77820000Y-132590000D03*
X75180000Y-132590000D03*
X72850000Y-131370000D03*
X71360000Y-129200000D03*
X71040000Y-126590000D03*
X71970000Y-124130000D03*
X73940000Y-122380000D03*
%TD*%
%TO.C,V2*%
X96500000Y-121750000D03*
X99060000Y-122380000D03*
X101030000Y-124130000D03*
X101960000Y-126590000D03*
X101640000Y-129200000D03*
X100150000Y-131370000D03*
X97820000Y-132590000D03*
X95180000Y-132590000D03*
X92850000Y-131370000D03*
X91360000Y-129200000D03*
X91040000Y-126590000D03*
X91970000Y-124130000D03*
X93940000Y-122380000D03*
%TD*%
%TO.C,NE1*%
X112540000Y-124705983D03*
X107460000Y-124705983D03*
%TD*%
%TO.C,V4*%
X143500000Y-121750000D03*
X146060000Y-122380000D03*
X148030000Y-124130000D03*
X148960000Y-126590000D03*
X148640000Y-129200000D03*
X147150000Y-131370000D03*
X144820000Y-132590000D03*
X142180000Y-132590000D03*
X139850000Y-131370000D03*
X138360000Y-129200000D03*
X138040000Y-126590000D03*
X138970000Y-124130000D03*
X140940000Y-122380000D03*
%TD*%
%TO.C,V3*%
X123500000Y-121750000D03*
X126060000Y-122380000D03*
X128030000Y-124130000D03*
X128960000Y-126590000D03*
X128640000Y-129200000D03*
X127150000Y-131370000D03*
X124820000Y-132590000D03*
X122180000Y-132590000D03*
X119850000Y-131370000D03*
X118360000Y-129200000D03*
X118040000Y-126590000D03*
X118970000Y-124130000D03*
X120940000Y-122380000D03*
%TD*%
%TO.C,NE2*%
X112540000Y-129700000D03*
X107460000Y-129700000D03*
%TD*%
D17*
%TO.C,R10*%
X123000000Y-109275000D03*
X123000000Y-107225000D03*
%TD*%
D18*
%TO.C,Q5*%
X120250000Y-97800000D03*
X120250000Y-99700000D03*
X118250000Y-98750000D03*
%TD*%
D19*
%TO.C,R18*%
X124800000Y-95325000D03*
X124800000Y-97075000D03*
%TD*%
D20*
%TO.C,R15*%
X123250000Y-97075000D03*
X123250000Y-95325000D03*
%TD*%
%TO.C,R17*%
X114350000Y-107925000D03*
X114350000Y-106175000D03*
%TD*%
D21*
%TO.C,Q3*%
X112700000Y-98750001D03*
X110800000Y-98750001D03*
X111750000Y-96750001D03*
%TD*%
D18*
%TO.C,Q6*%
X117500000Y-106200000D03*
X117500000Y-104300000D03*
X119500000Y-105250000D03*
%TD*%
D21*
%TO.C,Q4*%
X125050000Y-105250000D03*
X126950000Y-105250000D03*
X126000000Y-107250000D03*
%TD*%
D22*
%TO.C,R9*%
X114750000Y-94725000D03*
X114750000Y-96775000D03*
%TD*%
D20*
%TO.C,R14*%
X115950000Y-107925000D03*
X115950000Y-106175000D03*
%TD*%
D17*
%TO.C,R26*%
X112500000Y-121775000D03*
X112500000Y-119725000D03*
%TD*%
D20*
%TO.C,R16*%
X112750000Y-107925000D03*
X112750000Y-106175000D03*
%TD*%
D21*
%TO.C,Q8*%
X125050000Y-101500000D03*
X126950000Y-101500000D03*
X126000000Y-103500000D03*
%TD*%
D19*
%TO.C,R13*%
X121700000Y-95325000D03*
X121700000Y-97075000D03*
%TD*%
D23*
%TO.C,R12*%
X121225000Y-105250000D03*
X123275000Y-105250000D03*
%TD*%
D22*
%TO.C,R25*%
X107250000Y-119725000D03*
X107250000Y-121775000D03*
%TD*%
D21*
%TO.C,Q7*%
X112700000Y-102500000D03*
X110800000Y-102500000D03*
X111750000Y-100500000D03*
%TD*%
D24*
%TO.C,R11*%
X116525000Y-98750000D03*
X114475000Y-98750000D03*
%TD*%
D25*
%TO.C,BT1*%
X117615000Y-79850000D03*
X139585000Y-79850000D03*
D26*
X128600000Y-79850000D03*
%TD*%
D27*
X78000000Y-116750000D03*
X120500000Y-157600000D03*
X84300000Y-154200000D03*
X90500000Y-115200000D03*
X157550000Y-83250000D03*
X137000000Y-159350000D03*
X80700000Y-93050000D03*
X113550000Y-147875000D03*
X78200000Y-160400000D03*
X138400000Y-107350000D03*
X153500000Y-161150000D03*
X105800000Y-140400000D03*
X73000000Y-142100000D03*
X78800000Y-93050000D03*
X76500000Y-93726000D03*
X76400000Y-143700000D03*
X125000000Y-116750000D03*
X122000000Y-116750000D03*
X141800000Y-102750000D03*
X104500000Y-101350000D03*
X127800000Y-145600000D03*
X147250000Y-88750000D03*
X85400000Y-140500000D03*
X105100000Y-156700000D03*
X142000000Y-116750000D03*
X89900000Y-140800000D03*
X71150000Y-151100000D03*
X102500000Y-99150000D03*
X113300000Y-113400000D03*
X138400000Y-103750000D03*
X79700000Y-93050000D03*
X120500000Y-108950000D03*
X137200000Y-95850000D03*
X134500000Y-153800000D03*
X143400000Y-109150000D03*
X153600000Y-90450000D03*
X67250000Y-89750000D03*
X143400000Y-104450000D03*
X138400000Y-102750000D03*
X121150000Y-151100000D03*
X146600000Y-109150000D03*
X145500000Y-95750000D03*
X91948000Y-82143600D03*
X69000000Y-82750000D03*
X109600000Y-150300000D03*
X138975000Y-149675000D03*
X74750000Y-81000000D03*
X68250000Y-90750000D03*
X146000000Y-147500000D03*
X92900000Y-159800000D03*
X117500000Y-102100000D03*
X156500000Y-158000000D03*
X67250000Y-90750000D03*
X70500000Y-112200000D03*
X89050000Y-149650000D03*
X100600000Y-145600000D03*
X77800000Y-93050000D03*
X128200000Y-101500000D03*
X100850000Y-75150000D03*
X154500000Y-90450000D03*
X152400000Y-140600000D03*
X141800000Y-82650000D03*
X137575000Y-151100000D03*
X100700000Y-154000000D03*
X87650000Y-151100000D03*
X75000000Y-116750000D03*
X141800000Y-109150000D03*
X146250000Y-95000000D03*
X63750000Y-90250000D03*
X78500000Y-82550000D03*
X132850000Y-105500000D03*
X102500000Y-97650000D03*
X137200000Y-94850000D03*
X98000000Y-116750000D03*
X115400000Y-146300000D03*
X116800000Y-140800000D03*
X67750000Y-84500000D03*
X145000000Y-109150000D03*
X145000000Y-116750000D03*
X74600000Y-159750000D03*
X136280000Y-71900000D03*
X70850000Y-91200000D03*
X76750000Y-83250000D03*
X66750000Y-84500000D03*
X85648800Y-82535550D03*
X130775000Y-159050000D03*
X146600000Y-107350000D03*
X113000000Y-160000000D03*
X136400000Y-140700000D03*
X76100000Y-97250000D03*
X70900000Y-90100000D03*
X132875000Y-101575000D03*
X146600000Y-105550000D03*
X80873600Y-82535550D03*
X102500000Y-100150000D03*
X132500000Y-140700000D03*
X99100000Y-76950000D03*
X67750000Y-88250000D03*
X101375000Y-74250000D03*
X72550000Y-149500000D03*
X134200000Y-71800000D03*
X132875000Y-104150000D03*
X137950000Y-120150000D03*
X66750000Y-88250000D03*
X143000000Y-147700000D03*
X74500000Y-86250000D03*
X96500000Y-145500000D03*
X151000000Y-154300000D03*
X149300000Y-139600000D03*
X76100000Y-96250000D03*
X137200000Y-93850000D03*
X82500000Y-143600000D03*
X92700000Y-141800000D03*
X119600000Y-143700000D03*
X69400000Y-140700000D03*
X74600000Y-90200000D03*
X123250000Y-98700000D03*
X74750000Y-82000000D03*
X122550000Y-149650000D03*
X111400000Y-106150000D03*
X147400000Y-153950000D03*
X133500000Y-116900000D03*
X101500000Y-88750000D03*
X68250000Y-89750000D03*
X76000000Y-161150000D03*
X102500000Y-96650000D03*
X140200000Y-102750000D03*
X87300000Y-117000000D03*
X63750000Y-89250000D03*
X138400000Y-109150000D03*
X87111300Y-83250000D03*
X102700000Y-141000000D03*
X148450000Y-103350000D03*
X118150000Y-116500000D03*
X112200000Y-104600000D03*
X142000000Y-90000000D03*
X140200000Y-109150000D03*
X105100000Y-158800000D03*
X129700000Y-143600000D03*
X147200000Y-80050000D03*
X69000000Y-81750000D03*
X83261200Y-82535550D03*
X121750000Y-99700000D03*
X86700000Y-154200000D03*
X145000000Y-104450000D03*
X103500000Y-101350000D03*
X138400000Y-105550000D03*
X144000000Y-89000000D03*
X94650000Y-154750000D03*
X139900000Y-141900000D03*
X80350000Y-159800000D03*
X74600000Y-91300000D03*
X95000000Y-116750000D03*
X78500000Y-89050000D03*
X103250000Y-81500000D03*
X77400000Y-89050000D03*
X75565000Y-92202000D03*
X79600000Y-89050000D03*
X74400000Y-96647000D03*
X111100000Y-74700000D03*
X109000000Y-94000000D03*
X122250000Y-111500000D03*
X80500000Y-153900000D03*
X74500000Y-114750000D03*
X101500000Y-87500000D03*
X71987347Y-86275000D03*
X83700000Y-148100000D03*
X82500000Y-113800000D03*
X86500000Y-113800000D03*
X86400000Y-145000000D03*
X67550000Y-140500000D03*
X96900000Y-154625000D03*
X102100000Y-149900000D03*
X70500000Y-113800000D03*
X94500000Y-113800000D03*
X101100000Y-152125000D03*
X102500000Y-113800000D03*
X104100000Y-152025000D03*
X105473011Y-115800000D03*
X105800000Y-143100000D03*
X92200000Y-146300000D03*
X104100000Y-147800000D03*
X92000000Y-143800000D03*
X105000000Y-148200000D03*
X87500000Y-140600000D03*
X102050000Y-151200000D03*
X107750000Y-147750000D03*
X90500000Y-113800000D03*
X121500000Y-113600000D03*
X108500000Y-153400000D03*
X129500000Y-113800000D03*
X109250000Y-154400000D03*
X109973952Y-155123952D03*
X133500000Y-113800000D03*
X108800000Y-157500000D03*
X132800000Y-153850000D03*
X127600000Y-149700000D03*
X114550000Y-142750000D03*
X126400000Y-149700000D03*
X117050000Y-116700000D03*
X125095000Y-149750000D03*
X141400000Y-113800000D03*
X109250000Y-113000000D03*
X112000000Y-116750000D03*
X149500000Y-113800000D03*
X129900000Y-153100000D03*
X77625000Y-159200000D03*
X116200000Y-155000000D03*
X108975000Y-159975000D03*
X147500000Y-97000000D03*
X94100000Y-159275000D03*
X147487347Y-95012653D03*
X143000000Y-159150000D03*
X114950000Y-155000000D03*
X92850000Y-156000000D03*
X76900000Y-155300000D03*
X150000000Y-89250000D03*
X153750000Y-93000000D03*
X146750000Y-96000000D03*
X123825000Y-156050000D03*
X90300000Y-155650000D03*
X77500000Y-154400000D03*
X111125000Y-157525000D03*
X140325000Y-156050000D03*
X114875000Y-158800000D03*
X128900000Y-159075000D03*
X145200000Y-155700000D03*
X121500003Y-157600000D03*
X110000000Y-151150000D03*
X94000000Y-153900000D03*
X140075000Y-149675000D03*
X137250000Y-119500000D03*
X117600000Y-83200000D03*
X143000000Y-95250000D03*
X139600000Y-88000000D03*
X109200000Y-78750000D03*
X109200000Y-77750000D03*
X83475000Y-159025000D03*
X109200000Y-79750000D03*
X150350000Y-100350000D03*
X150350000Y-101950000D03*
X137275000Y-97325000D03*
X157250000Y-79750000D03*
X110200000Y-79750000D03*
X110200000Y-78750000D03*
X148900000Y-84250000D03*
X138830000Y-71850000D03*
X109200000Y-80750000D03*
X103000000Y-156400000D03*
X153600000Y-86350000D03*
X136275000Y-97325000D03*
X150000000Y-159000000D03*
X152500000Y-87450000D03*
X110200000Y-77750000D03*
X132500000Y-158900000D03*
X115400000Y-151400000D03*
X110200000Y-80750000D03*
X142000000Y-79750000D03*
X148250000Y-88750000D03*
X80000000Y-160900000D03*
X78250000Y-92000000D03*
X153250000Y-96500000D03*
X142000000Y-91000000D03*
X133650000Y-106100000D03*
X144250000Y-90000000D03*
X121100000Y-107950000D03*
X150500000Y-84150000D03*
X145900000Y-85550000D03*
M02*
