M48
; DRILL file {KiCad (5.99.0-9843-g93c991926f)} date Wed Mar 24 22:05:50 2021
; FORMAT={-:-/ absolute / inch / decimal}
; #@! TF.CreationDate,2021-03-24T22:05:50-04:00
; #@! TF.GenerationSoftware,Kicad,Pcbnew,(5.99.0-9843-g93c991926f)
; #@! TF.FileFunction,MixedPlating,1,4
FMAT,2
INCH
; #@! TA.AperFunction,ViaDrill
T1C0.0157
; #@! TA.AperFunction,ComponentDrill,Plated,PTH
T2C0.0157
; #@! TA.AperFunction,ComponentDrill,Plated,PTH
T3C0.0236
; #@! TA.AperFunction,ComponentDrill,Plated,PTH
T4C0.0300
; #@! TA.AperFunction,ComponentDrill,Plated,PTH
T5C0.0472
; #@! TA.AperFunction,ComponentDrill,Plated,PTH
T6C0.0748
; #@! TA.AperFunction,ComponentDrill,Plated,PTH
T7C0.2087
%
G90
G05
T1
; via hole
X2.5098Y-3.5138
X2.5098Y-3.5531
X2.628Y-3.3268
X2.628Y-3.4744
X2.6476Y-3.5335
X2.6476Y-3.5728
X2.6594Y-5.5315
X2.6673Y-3.3268
X2.6673Y-3.4744
X2.687Y-3.5335
X2.687Y-3.5728
X2.7165Y-3.2185
X2.7165Y-3.2579
X2.7323Y-5.5394
X2.7756Y-4.4173
X2.7756Y-4.4803
X2.7894Y-3.5906
X2.7913Y-3.5472
X2.8012Y-5.9488
X2.8341Y-3.3967
X2.8563Y-5.8858
X2.874Y-5.5945
X2.9291Y-3.805
X2.9331Y-3.3957
X2.9331Y-4.5177
X2.937Y-3.5512
X2.937Y-3.5945
X2.937Y-6.2894
X2.9429Y-3.189
X2.9429Y-3.2283
X2.9528Y-4.5965
X2.975Y-3.63
X2.9921Y-6.3445
X2.9961Y-3.7894
X2.9961Y-3.8287
X3.0079Y-5.6575
X3.0118Y-3.69
X3.0217Y-3.2776
X3.0276Y-6.1142
X3.0472Y-3.5059
X3.0512Y-6.0787
X3.0561Y-6.2677
X3.063Y-3.6634
X3.0709Y-4.5965
X3.0787Y-6.315
X3.0807Y-3.622
X3.0906Y-3.25
X3.0906Y-3.5059
X3.1024Y-3.6634
X3.1339Y-3.5059
X3.1378Y-3.6634
X3.1496Y-6.3346
X3.1634Y-6.2913
X3.1693Y-6.0591
X3.1772Y-3.6634
X3.184Y-3.2494
X3.248Y-4.4803
X3.248Y-5.6535
X3.278Y-3.2494
X3.2864Y-6.2608
X3.2953Y-5.8307
X3.3189Y-6.0709
X3.3622Y-5.5315
X3.372Y-3.2494
X3.4016Y-5.7087
X3.4055Y-4.4803
X3.4134Y-6.0709
X3.4296Y-3.2776
X3.437Y-4.6063
X3.4449Y-5.5354
X3.4508Y-5.9488
X3.5059Y-5.8917
X3.5394Y-5.5433
X3.5551Y-6.128
X3.563Y-4.4803
X3.563Y-4.5354
X3.62Y-3.234
X3.622Y-5.6614
X3.6299Y-5.7598
X3.6496Y-5.5827
X3.6555Y-6.1417
X3.6575Y-6.2913
X3.7008Y-6.0591
X3.7047Y-6.2707
X3.7205Y-4.4803
X3.7264Y-6.0925
X3.7402Y-4.5965
X3.7992Y-5.7283
X3.815Y-6.0876
X3.8583Y-4.5965
X3.9016Y-3.0295
X3.9606Y-5.7323
X3.9646Y-6.063
X3.9705Y-2.9587
X3.9803Y-5.9892
X3.9911Y-2.9232
X3.9961Y-3.4449
X3.9961Y-3.4941
X4.0177Y-5.9528
X4.0197Y-5.9016
X4.0354Y-3.8051
X4.0354Y-3.8445
X4.0354Y-3.9035
X4.0354Y-3.9429
X4.0354Y-4.4803
X4.0433Y-5.5512
X4.0551Y-6.1575
X4.065Y-3.2087
X4.0748Y-3.9902
X4.0984Y-5.8189
X4.0984Y-5.9852
X4.1142Y-3.9902
X4.1339Y-5.8346
X4.1378Y-6.1693
X4.1378Y-6.252
X4.1525Y-4.5591
X4.1654Y-5.5276
X4.1654Y-5.6339
X4.2421Y-5.8169
X4.2717Y-6.0394
X4.2835Y-6.2008
X4.2904Y-6.2982
X4.2913Y-3.7008
X4.2992Y-3.061
X4.2992Y-3.1004
X4.2992Y-3.1398
X4.2992Y-3.1791
X4.3012Y-4.4488
X4.3012Y-6.0787
X4.315Y-5.9173
X4.3297Y-6.1072
X4.3307Y-5.9508
X4.3386Y-3.061
X4.3386Y-3.1004
X4.3386Y-3.1398
X4.3386Y-3.1791
X4.374Y-2.9409
X4.375Y-6.2018
X4.3858Y-4.1791
X4.4094Y-4.5965
X4.4173Y-4.1181
X4.4488Y-6.2992
X4.4606Y-4.4646
X4.4705Y-5.8219
X4.5098Y-5.6201
X4.5226Y-6.252
X4.5256Y-6.1024
X4.5433Y-5.7598
X4.5433Y-5.9606
X4.5748Y-6.1024
X4.5984Y-5.5433
X4.6083Y-4.5945
X4.626Y-4.0197
X4.6299Y-3.2756
X4.6516Y-4.5866
X4.7087Y-5.6575
X4.7441Y-4.2894
X4.7441Y-6.2047
X4.7677Y-4.25
X4.7697Y-5.9488
X4.7835Y-4.4724
X4.7835Y-6.2047
X4.7933Y-3.9252
X4.8031Y-4.5965
X4.813Y-4.3898
X4.8248Y-5.8917
X4.8524Y-3.8858
X4.875Y-6.1437
X4.9213Y-4.5965
X4.925Y-5.8957
X4.9764Y-5.8937
X5.0236Y-5.8937
X5.0315Y-5.7323
X5.0472Y-3.9961
X5.0748Y-6.2628
X5.0984Y-4.4803
X5.1063Y-5.6535
X5.1142Y-6.0276
X5.1486Y-6.2618
X5.2165Y-5.5394
X5.2165Y-6.2559
X5.2283Y-6.0571
X5.2303Y-4.1535
X5.2313Y-3.999
X5.2313Y-4.1004
X5.2559Y-4.4803
X5.2559Y-4.6024
X5.2618Y-4.1772
X5.2835Y-2.8268
X5.2953Y-6.0551
X5.3652Y-3.8317
X5.3654Y-2.8307
X5.3701Y-5.5394
X5.3937Y-6.2736
X5.4016Y-3.6949
X5.4016Y-3.7343
X5.4016Y-3.7736
X5.4035Y-4.7047
X5.4045Y-3.8317
X5.4163Y-5.9488
X5.4311Y-4.7303
X5.4488Y-4.0453
X5.4488Y-4.0846
X5.4488Y-4.1555
X5.4488Y-4.2264
X5.4488Y-4.2972
X5.4657Y-2.8287
X5.4715Y-5.8927
X5.4961Y-3.4646
X5.5079Y-5.5866
X5.5148Y-5.8927
X5.5197Y-4.0453
X5.5197Y-4.2972
X5.5246Y-6.1437
X5.5669Y-4.4803
X5.5827Y-3.2539
X5.5827Y-4.0453
X5.5827Y-4.2972
X5.5906Y-3.1398
X5.5906Y-3.5433
X5.5906Y-3.5827
X5.5906Y-4.5965
X5.6299Y-3.75
X5.6299Y-5.815
X5.6299Y-6.2657
X5.6457Y-4.1122
X5.6457Y-4.2972
X5.6693Y-3.5039
X5.6791Y-3.5433
X5.7087Y-4.1122
X5.7087Y-4.2972
X5.7087Y-4.5965
X5.7165Y-6.1299
X5.7283Y-3.7697
X5.7441Y-3.3681
X5.748Y-5.8071
X5.7579Y-3.7402
X5.7717Y-4.1555
X5.7717Y-4.2264
X5.7717Y-4.2972
X5.7776Y-3.7795
X5.7953Y-3.1516
X5.7972Y-3.4941
X5.8031Y-6.061
X5.8066Y-3.7407
X5.8071Y-3.8189
X5.8366Y-3.4941
X5.8445Y-4.0689
X5.8622Y-3.3169
X5.878Y-5.4961
X5.8858Y-4.4803
X5.9055Y-3.5138
X5.9055Y-6.2598
X5.9193Y-3.9508
X5.9193Y-4.0138
X5.9252Y-3.313
X5.9449Y-6.0748
X6.0Y-5.5354
X6.0039Y-3.4429
X6.0335Y-3.7992
X6.0433Y-6.3445
X6.0472Y-3.3996
X6.0472Y-3.561
X6.0531Y-3.6614
X6.0827Y-3.561
X6.1614Y-6.2205
X6.1909Y-3.1398
X6.2028Y-3.2776
T2
; plated pad hole
X2.9931Y-2.94
X2.9931Y-2.9931
X3.0266Y-2.94
X3.0266Y-2.9931
X3.06Y-2.94
X3.06Y-2.9931
X3.0935Y-2.94
X3.0935Y-2.9931
X3.127Y-2.94
X3.127Y-2.9931
X3.1604Y-2.94
X3.1604Y-2.9931
X3.1939Y-2.94
X3.1939Y-2.9931
X3.2274Y-2.94
X3.2274Y-2.9931
T4
X2.7969Y-4.9839
X2.8094Y-5.0866
X2.8335Y-4.887
X2.8681Y-5.172
X2.911Y-4.8181
X2.9598Y-5.2201
X3.0118Y-4.7933
X3.0638Y-5.2201
X3.1126Y-4.8181
X3.1555Y-5.172
X3.1902Y-4.887
X3.2142Y-5.0866
X3.2268Y-4.9839
X3.5843Y-4.9839
X3.5969Y-5.0866
X3.6209Y-4.887
X3.6555Y-5.172
X3.6984Y-4.8181
X3.7472Y-5.2201
X3.7992Y-4.7933
X3.8512Y-5.2201
X3.9Y-4.8181
X3.9429Y-5.172
X3.9776Y-4.887
X4.0016Y-5.0866
X4.0142Y-4.9839
X4.2307Y-4.9097
X4.2307Y-5.1063
X4.4307Y-4.9097
X4.4307Y-5.1063
X4.6472Y-4.9839
X4.6598Y-5.0866
X4.6839Y-4.887
X4.7185Y-5.172
X4.7614Y-4.8181
X4.8102Y-5.2201
X4.8622Y-4.7933
X4.9142Y-5.2201
X4.963Y-4.8181
X5.0059Y-5.172
X5.0406Y-4.887
X5.0646Y-5.0866
X5.0772Y-4.9839
X5.4346Y-4.9839
X5.4472Y-5.0866
X5.4713Y-4.887
X5.5059Y-5.172
X5.5488Y-4.8181
X5.5976Y-5.2201
X5.6496Y-4.7933
X5.7016Y-5.2201
X5.7504Y-4.8181
X5.7933Y-5.172
X5.828Y-4.887
X5.852Y-5.0866
X5.8646Y-4.9839
T5
X5.7972Y-2.8642
X5.7972Y-2.9626
X5.8957Y-2.8642
X5.9941Y-2.8642
X5.9941Y-2.9626
T7
X2.2047Y-2.9921
X2.2047Y-6.1811
X6.4567Y-2.9921
X6.4567Y-6.1811
T3
; plated pad hole
G00X2.94Y-2.8372
M15
G01X2.94Y-2.8057
M16
G05
G00X2.94Y-2.9841
M15
G01X2.94Y-2.925
M16
G05
G00X3.2805Y-2.8372
M15
G01X3.2805Y-2.8057
M16
G05
G00X3.2805Y-2.9841
M15
G01X3.2805Y-2.925
M16
G05
T6
G00X5.6654Y-2.9508
M15
G01X5.6654Y-2.876
M16
G05
G00X6.126Y-2.9508
M15
G01X6.126Y-2.876
M16
G05
T0
M30
