%TF.GenerationSoftware,KiCad,Pcbnew,(5.99.0-9843-g93c991926f)*%
%TF.CreationDate,2021-03-24T22:05:54-04:00*%
%TF.ProjectId,nixieclock,6e697869-6563-46c6-9f63-6b2e6b696361,rev?*%
%TF.SameCoordinates,Original*%
%TF.FileFunction,Legend,Top*%
%TF.FilePolarity,Positive*%
%FSLAX46Y46*%
G04 Gerber Fmt 4.6, Leading zero omitted, Abs format (unit mm)*
G04 Created by KiCad (PCBNEW (5.99.0-9843-g93c991926f)) date 2021-03-24 22:05:54*
%MOMM*%
%LPD*%
G01*
G04 APERTURE LIST*
%ADD10C,0.150000*%
%ADD11C,0.200000*%
%ADD12C,0.300000*%
%ADD13C,0.250000*%
%ADD14C,0.120000*%
%ADD15C,0.100000*%
G04 APERTURE END LIST*
D10*
X108500000Y-89250000D02*
X109500000Y-89250000D01*
X112000000Y-109750000D02*
X144000000Y-109750000D01*
X109500000Y-89250000D02*
X110500000Y-90250000D01*
X150600000Y-106050000D02*
X152400000Y-106050000D01*
X105250000Y-108250000D02*
X105250000Y-101750000D01*
X110500000Y-108250000D02*
X112000000Y-109750000D01*
X147400000Y-104850000D02*
X150600000Y-104850000D01*
X147400000Y-106650000D02*
X147400000Y-109250000D01*
X141157600Y-73089000D02*
G75*
G03*
X141157600Y-73089000I-500000J0D01*
G01*
X140500000Y-98250000D02*
G75*
G03*
X140500000Y-98250000I-500000J0D01*
G01*
X147400000Y-106650000D02*
X150600000Y-106650000D01*
X152400000Y-106050000D02*
X152400000Y-109250000D01*
X110500000Y-90250000D02*
X110500000Y-108250000D01*
X103750000Y-109750000D02*
X105250000Y-108250000D01*
X147400000Y-104850000D02*
X147400000Y-106650000D01*
X144000000Y-109750000D02*
X145000000Y-110750000D01*
X147400000Y-109250000D02*
X150600000Y-109250000D01*
X150600000Y-104850000D02*
X150600000Y-106050000D01*
X150600000Y-109250000D02*
X150600000Y-106050000D01*
X145000000Y-110750000D02*
X145000000Y-112750000D01*
X103750000Y-109750000D02*
X75700000Y-109750000D01*
X74700000Y-110750000D02*
X75700000Y-109750001D01*
X152400000Y-109250000D02*
X150600000Y-109250000D01*
X114202380Y-74809642D02*
X114202380Y-74190595D01*
X114583333Y-74523928D01*
X114583333Y-74381071D01*
X114630952Y-74285833D01*
X114678571Y-74238214D01*
X114773809Y-74190595D01*
X115011904Y-74190595D01*
X115107142Y-74238214D01*
X115154761Y-74285833D01*
X115202380Y-74381071D01*
X115202380Y-74666785D01*
X115154761Y-74762023D01*
X115107142Y-74809642D01*
X115107142Y-73762023D02*
X115154761Y-73714404D01*
X115202380Y-73762023D01*
X115154761Y-73809642D01*
X115107142Y-73762023D01*
X115202380Y-73762023D01*
X114202380Y-73381071D02*
X114202380Y-72762023D01*
X114583333Y-73095357D01*
X114583333Y-72952500D01*
X114630952Y-72857261D01*
X114678571Y-72809642D01*
X114773809Y-72762023D01*
X115011904Y-72762023D01*
X115107142Y-72809642D01*
X115154761Y-72857261D01*
X115202380Y-72952500D01*
X115202380Y-73238214D01*
X115154761Y-73333452D01*
X115107142Y-73381071D01*
X114202380Y-72476309D02*
X115202380Y-72142976D01*
X114202380Y-71809642D01*
X116952380Y-74714404D02*
X115952380Y-74714404D01*
X116666666Y-74381071D01*
X115952380Y-74047738D01*
X116952380Y-74047738D01*
X116857142Y-73000119D02*
X116904761Y-73047738D01*
X116952380Y-73190595D01*
X116952380Y-73285833D01*
X116904761Y-73428690D01*
X116809523Y-73523928D01*
X116714285Y-73571547D01*
X116523809Y-73619166D01*
X116380952Y-73619166D01*
X116190476Y-73571547D01*
X116095238Y-73523928D01*
X116000000Y-73428690D01*
X115952380Y-73285833D01*
X115952380Y-73190595D01*
X116000000Y-73047738D01*
X116047619Y-73000119D01*
X115952380Y-72571547D02*
X116761904Y-72571547D01*
X116857142Y-72523928D01*
X116904761Y-72476309D01*
X116952380Y-72381071D01*
X116952380Y-72190595D01*
X116904761Y-72095357D01*
X116857142Y-72047738D01*
X116761904Y-72000119D01*
X115952380Y-72000119D01*
D11*
X107647380Y-111131904D02*
X106647380Y-111131904D01*
X106647380Y-110893809D01*
X106695000Y-110750952D01*
X106790238Y-110655714D01*
X106885476Y-110608095D01*
X107075952Y-110560476D01*
X107218809Y-110560476D01*
X107409285Y-110608095D01*
X107504523Y-110655714D01*
X107599761Y-110750952D01*
X107647380Y-110893809D01*
X107647380Y-111131904D01*
X107361666Y-110179523D02*
X107361666Y-109703333D01*
X107647380Y-110274761D02*
X106647380Y-109941428D01*
X107647380Y-109608095D01*
X107647380Y-109274761D02*
X106647380Y-109274761D01*
X107647380Y-108703333D01*
X106647380Y-108703333D01*
X106695000Y-107703333D02*
X106647380Y-107798571D01*
X106647380Y-107941428D01*
X106695000Y-108084285D01*
X106790238Y-108179523D01*
X106885476Y-108227142D01*
X107075952Y-108274761D01*
X107218809Y-108274761D01*
X107409285Y-108227142D01*
X107504523Y-108179523D01*
X107599761Y-108084285D01*
X107647380Y-107941428D01*
X107647380Y-107846190D01*
X107599761Y-107703333D01*
X107552142Y-107655714D01*
X107218809Y-107655714D01*
X107218809Y-107846190D01*
X107123571Y-107227142D02*
X107123571Y-106893809D01*
X107647380Y-106750952D02*
X107647380Y-107227142D01*
X106647380Y-107227142D01*
X106647380Y-106750952D01*
X107647380Y-105750952D02*
X107171190Y-106084285D01*
X107647380Y-106322380D02*
X106647380Y-106322380D01*
X106647380Y-105941428D01*
X106695000Y-105846190D01*
X106742619Y-105798571D01*
X106837857Y-105750952D01*
X106980714Y-105750952D01*
X107075952Y-105798571D01*
X107123571Y-105846190D01*
X107171190Y-105941428D01*
X107171190Y-106322380D01*
X107552142Y-105322380D02*
X107599761Y-105274761D01*
X107647380Y-105322380D01*
X107599761Y-105370000D01*
X107552142Y-105322380D01*
X107647380Y-105322380D01*
X107266428Y-105322380D02*
X106695000Y-105370000D01*
X106647380Y-105322380D01*
X106695000Y-105274761D01*
X107266428Y-105322380D01*
X106647380Y-105322380D01*
X109257380Y-111131904D02*
X108257380Y-111131904D01*
X108733571Y-111131904D02*
X108733571Y-110560476D01*
X109257380Y-110560476D02*
X108257380Y-110560476D01*
X109257380Y-110084285D02*
X108257380Y-110084285D01*
X108305000Y-109084285D02*
X108257380Y-109179523D01*
X108257380Y-109322380D01*
X108305000Y-109465238D01*
X108400238Y-109560476D01*
X108495476Y-109608095D01*
X108685952Y-109655714D01*
X108828809Y-109655714D01*
X109019285Y-109608095D01*
X109114523Y-109560476D01*
X109209761Y-109465238D01*
X109257380Y-109322380D01*
X109257380Y-109227142D01*
X109209761Y-109084285D01*
X109162142Y-109036666D01*
X108828809Y-109036666D01*
X108828809Y-109227142D01*
X109257380Y-108608095D02*
X108257380Y-108608095D01*
X108733571Y-108608095D02*
X108733571Y-108036666D01*
X109257380Y-108036666D02*
X108257380Y-108036666D01*
X108257380Y-106941428D02*
X109257380Y-106608095D01*
X108257380Y-106274761D01*
X108257380Y-105750952D02*
X108257380Y-105560476D01*
X108305000Y-105465238D01*
X108400238Y-105370000D01*
X108590714Y-105322380D01*
X108924047Y-105322380D01*
X109114523Y-105370000D01*
X109209761Y-105465238D01*
X109257380Y-105560476D01*
X109257380Y-105750952D01*
X109209761Y-105846190D01*
X109114523Y-105941428D01*
X108924047Y-105989047D01*
X108590714Y-105989047D01*
X108400238Y-105941428D01*
X108305000Y-105846190D01*
X108257380Y-105750952D01*
X109257380Y-104417619D02*
X109257380Y-104893809D01*
X108257380Y-104893809D01*
X108257380Y-104227142D02*
X108257380Y-103655714D01*
X109257380Y-103941428D02*
X108257380Y-103941428D01*
X108971666Y-103370000D02*
X108971666Y-102893809D01*
X109257380Y-103465238D02*
X108257380Y-103131904D01*
X109257380Y-102798571D01*
X108305000Y-101941428D02*
X108257380Y-102036666D01*
X108257380Y-102179523D01*
X108305000Y-102322380D01*
X108400238Y-102417619D01*
X108495476Y-102465238D01*
X108685952Y-102512857D01*
X108828809Y-102512857D01*
X109019285Y-102465238D01*
X109114523Y-102417619D01*
X109209761Y-102322380D01*
X109257380Y-102179523D01*
X109257380Y-102084285D01*
X109209761Y-101941428D01*
X109162142Y-101893809D01*
X108828809Y-101893809D01*
X108828809Y-102084285D01*
X108733571Y-101465238D02*
X108733571Y-101131904D01*
X109257380Y-100989047D02*
X109257380Y-101465238D01*
X108257380Y-101465238D01*
X108257380Y-100989047D01*
D12*
X117728571Y-75207142D02*
X118871428Y-75207142D01*
X118300000Y-75778571D02*
X118300000Y-74635714D01*
D10*
X112452380Y-74857261D02*
X113452380Y-74523928D01*
X112452380Y-74190595D01*
X113357142Y-73285833D02*
X113404761Y-73333452D01*
X113452380Y-73476309D01*
X113452380Y-73571547D01*
X113404761Y-73714404D01*
X113309523Y-73809642D01*
X113214285Y-73857261D01*
X113023809Y-73904880D01*
X112880952Y-73904880D01*
X112690476Y-73857261D01*
X112595238Y-73809642D01*
X112500000Y-73714404D01*
X112452380Y-73571547D01*
X112452380Y-73476309D01*
X112500000Y-73333452D01*
X112547619Y-73285833D01*
X113357142Y-72285833D02*
X113404761Y-72333452D01*
X113452380Y-72476309D01*
X113452380Y-72571547D01*
X113404761Y-72714404D01*
X113309523Y-72809642D01*
X113214285Y-72857261D01*
X113023809Y-72904880D01*
X112880952Y-72904880D01*
X112690476Y-72857261D01*
X112595238Y-72809642D01*
X112500000Y-72714404D01*
X112452380Y-72571547D01*
X112452380Y-72476309D01*
X112500000Y-72333452D01*
X112547619Y-72285833D01*
D13*
X101869047Y-91021428D02*
X102630952Y-91021428D01*
X102250000Y-91402380D02*
X102250000Y-90640476D01*
D10*
%TO.C,Y1*%
X148523809Y-107926190D02*
X148523809Y-108402380D01*
X148190476Y-107402380D02*
X148523809Y-107926190D01*
X148857142Y-107402380D01*
X149714285Y-108402380D02*
X149142857Y-108402380D01*
X149428571Y-108402380D02*
X149428571Y-107402380D01*
X149333333Y-107545238D01*
X149238095Y-107640476D01*
X149142857Y-107688095D01*
%TO.C,U6*%
X132702380Y-153261904D02*
X133511904Y-153261904D01*
X133607142Y-153214285D01*
X133654761Y-153166666D01*
X133702380Y-153071428D01*
X133702380Y-152880952D01*
X133654761Y-152785714D01*
X133607142Y-152738095D01*
X133511904Y-152690476D01*
X132702380Y-152690476D01*
X132702380Y-151785714D02*
X132702380Y-151976190D01*
X132750000Y-152071428D01*
X132797619Y-152119047D01*
X132940476Y-152214285D01*
X133130952Y-152261904D01*
X133511904Y-152261904D01*
X133607142Y-152214285D01*
X133654761Y-152166666D01*
X133702380Y-152071428D01*
X133702380Y-151880952D01*
X133654761Y-151785714D01*
X133607142Y-151738095D01*
X133511904Y-151690476D01*
X133273809Y-151690476D01*
X133178571Y-151738095D01*
X133130952Y-151785714D01*
X133083333Y-151880952D01*
X133083333Y-152071428D01*
X133130952Y-152166666D01*
X133178571Y-152214285D01*
X133273809Y-152261904D01*
%TO.C,U4*%
X99252380Y-153261904D02*
X100061904Y-153261904D01*
X100157142Y-153214285D01*
X100204761Y-153166666D01*
X100252380Y-153071428D01*
X100252380Y-152880952D01*
X100204761Y-152785714D01*
X100157142Y-152738095D01*
X100061904Y-152690476D01*
X99252380Y-152690476D01*
X99585714Y-151785714D02*
X100252380Y-151785714D01*
X99204761Y-152023809D02*
X99919047Y-152261904D01*
X99919047Y-151642857D01*
%TO.C,C24*%
X145857142Y-104007142D02*
X145809523Y-104054761D01*
X145666666Y-104102380D01*
X145571428Y-104102380D01*
X145428571Y-104054761D01*
X145333333Y-103959523D01*
X145285714Y-103864285D01*
X145238095Y-103673809D01*
X145238095Y-103530952D01*
X145285714Y-103340476D01*
X145333333Y-103245238D01*
X145428571Y-103150000D01*
X145571428Y-103102380D01*
X145666666Y-103102380D01*
X145809523Y-103150000D01*
X145857142Y-103197619D01*
X146238095Y-103197619D02*
X146285714Y-103150000D01*
X146380952Y-103102380D01*
X146619047Y-103102380D01*
X146714285Y-103150000D01*
X146761904Y-103197619D01*
X146809523Y-103292857D01*
X146809523Y-103388095D01*
X146761904Y-103530952D01*
X146190476Y-104102380D01*
X146809523Y-104102380D01*
X147666666Y-103435714D02*
X147666666Y-104102380D01*
X147428571Y-103054761D02*
X147190476Y-103769047D01*
X147809523Y-103769047D01*
%TO.C,C30*%
X149107142Y-78857142D02*
X149059523Y-78904761D01*
X148916666Y-78952380D01*
X148821428Y-78952380D01*
X148678571Y-78904761D01*
X148583333Y-78809523D01*
X148535714Y-78714285D01*
X148488095Y-78523809D01*
X148488095Y-78380952D01*
X148535714Y-78190476D01*
X148583333Y-78095238D01*
X148678571Y-78000000D01*
X148821428Y-77952380D01*
X148916666Y-77952380D01*
X149059523Y-78000000D01*
X149107142Y-78047619D01*
X149440476Y-77952380D02*
X150059523Y-77952380D01*
X149726190Y-78333333D01*
X149869047Y-78333333D01*
X149964285Y-78380952D01*
X150011904Y-78428571D01*
X150059523Y-78523809D01*
X150059523Y-78761904D01*
X150011904Y-78857142D01*
X149964285Y-78904761D01*
X149869047Y-78952380D01*
X149583333Y-78952380D01*
X149488095Y-78904761D01*
X149440476Y-78857142D01*
X150678571Y-77952380D02*
X150773809Y-77952380D01*
X150869047Y-78000000D01*
X150916666Y-78047619D01*
X150964285Y-78142857D01*
X151011904Y-78333333D01*
X151011904Y-78571428D01*
X150964285Y-78761904D01*
X150916666Y-78857142D01*
X150869047Y-78904761D01*
X150773809Y-78952380D01*
X150678571Y-78952380D01*
X150583333Y-78904761D01*
X150535714Y-78857142D01*
X150488095Y-78761904D01*
X150440476Y-78571428D01*
X150440476Y-78333333D01*
X150488095Y-78142857D01*
X150535714Y-78047619D01*
X150583333Y-78000000D01*
X150678571Y-77952380D01*
%TO.C,C6*%
X108907023Y-100057142D02*
X108859404Y-100104761D01*
X108716547Y-100152380D01*
X108621309Y-100152380D01*
X108478452Y-100104761D01*
X108383214Y-100009523D01*
X108335595Y-99914285D01*
X108287976Y-99723809D01*
X108287976Y-99580952D01*
X108335595Y-99390476D01*
X108383214Y-99295238D01*
X108478452Y-99200000D01*
X108621309Y-99152380D01*
X108716547Y-99152380D01*
X108859404Y-99200000D01*
X108907023Y-99247619D01*
X109764166Y-99152380D02*
X109573690Y-99152380D01*
X109478452Y-99200000D01*
X109430833Y-99247619D01*
X109335595Y-99390476D01*
X109287976Y-99580952D01*
X109287976Y-99961904D01*
X109335595Y-100057142D01*
X109383214Y-100104761D01*
X109478452Y-100152380D01*
X109668928Y-100152380D01*
X109764166Y-100104761D01*
X109811785Y-100057142D01*
X109859404Y-99961904D01*
X109859404Y-99723809D01*
X109811785Y-99628571D01*
X109764166Y-99580952D01*
X109668928Y-99533333D01*
X109478452Y-99533333D01*
X109383214Y-99580952D01*
X109335595Y-99628571D01*
X109287976Y-99723809D01*
%TO.C,C16*%
X101857142Y-157217857D02*
X101904761Y-157265476D01*
X101952380Y-157408333D01*
X101952380Y-157503571D01*
X101904761Y-157646428D01*
X101809523Y-157741666D01*
X101714285Y-157789285D01*
X101523809Y-157836904D01*
X101380952Y-157836904D01*
X101190476Y-157789285D01*
X101095238Y-157741666D01*
X101000000Y-157646428D01*
X100952380Y-157503571D01*
X100952380Y-157408333D01*
X101000000Y-157265476D01*
X101047619Y-157217857D01*
X101952380Y-156265476D02*
X101952380Y-156836904D01*
X101952380Y-156551190D02*
X100952380Y-156551190D01*
X101095238Y-156646428D01*
X101190476Y-156741666D01*
X101238095Y-156836904D01*
X100952380Y-155408333D02*
X100952380Y-155598809D01*
X101000000Y-155694047D01*
X101047619Y-155741666D01*
X101190476Y-155836904D01*
X101380952Y-155884523D01*
X101761904Y-155884523D01*
X101857142Y-155836904D01*
X101904761Y-155789285D01*
X101952380Y-155694047D01*
X101952380Y-155503571D01*
X101904761Y-155408333D01*
X101857142Y-155360714D01*
X101761904Y-155313095D01*
X101523809Y-155313095D01*
X101428571Y-155360714D01*
X101380952Y-155408333D01*
X101333333Y-155503571D01*
X101333333Y-155694047D01*
X101380952Y-155789285D01*
X101428571Y-155836904D01*
X101523809Y-155884523D01*
%TO.C,C29*%
X154607142Y-85107142D02*
X154559523Y-85154761D01*
X154416666Y-85202380D01*
X154321428Y-85202380D01*
X154178571Y-85154761D01*
X154083333Y-85059523D01*
X154035714Y-84964285D01*
X153988095Y-84773809D01*
X153988095Y-84630952D01*
X154035714Y-84440476D01*
X154083333Y-84345238D01*
X154178571Y-84250000D01*
X154321428Y-84202380D01*
X154416666Y-84202380D01*
X154559523Y-84250000D01*
X154607142Y-84297619D01*
X154988095Y-84297619D02*
X155035714Y-84250000D01*
X155130952Y-84202380D01*
X155369047Y-84202380D01*
X155464285Y-84250000D01*
X155511904Y-84297619D01*
X155559523Y-84392857D01*
X155559523Y-84488095D01*
X155511904Y-84630952D01*
X154940476Y-85202380D01*
X155559523Y-85202380D01*
X156035714Y-85202380D02*
X156226190Y-85202380D01*
X156321428Y-85154761D01*
X156369047Y-85107142D01*
X156464285Y-84964285D01*
X156511904Y-84773809D01*
X156511904Y-84392857D01*
X156464285Y-84297619D01*
X156416666Y-84250000D01*
X156321428Y-84202380D01*
X156130952Y-84202380D01*
X156035714Y-84250000D01*
X155988095Y-84297619D01*
X155940476Y-84392857D01*
X155940476Y-84630952D01*
X155988095Y-84726190D01*
X156035714Y-84773809D01*
X156130952Y-84821428D01*
X156321428Y-84821428D01*
X156416666Y-84773809D01*
X156464285Y-84726190D01*
X156511904Y-84630952D01*
%TO.C,C25*%
X148357142Y-106007142D02*
X148309523Y-106054761D01*
X148166666Y-106102380D01*
X148071428Y-106102380D01*
X147928571Y-106054761D01*
X147833333Y-105959523D01*
X147785714Y-105864285D01*
X147738095Y-105673809D01*
X147738095Y-105530952D01*
X147785714Y-105340476D01*
X147833333Y-105245238D01*
X147928571Y-105150000D01*
X148071428Y-105102380D01*
X148166666Y-105102380D01*
X148309523Y-105150000D01*
X148357142Y-105197619D01*
X148738095Y-105197619D02*
X148785714Y-105150000D01*
X148880952Y-105102380D01*
X149119047Y-105102380D01*
X149214285Y-105150000D01*
X149261904Y-105197619D01*
X149309523Y-105292857D01*
X149309523Y-105388095D01*
X149261904Y-105530952D01*
X148690476Y-106102380D01*
X149309523Y-106102380D01*
X150214285Y-105102380D02*
X149738095Y-105102380D01*
X149690476Y-105578571D01*
X149738095Y-105530952D01*
X149833333Y-105483333D01*
X150071428Y-105483333D01*
X150166666Y-105530952D01*
X150214285Y-105578571D01*
X150261904Y-105673809D01*
X150261904Y-105911904D01*
X150214285Y-106007142D01*
X150166666Y-106054761D01*
X150071428Y-106102380D01*
X149833333Y-106102380D01*
X149738095Y-106054761D01*
X149690476Y-106007142D01*
%TO.C,C12*%
X73857142Y-80342976D02*
X73904761Y-80390595D01*
X73952380Y-80533452D01*
X73952380Y-80628690D01*
X73904761Y-80771547D01*
X73809523Y-80866785D01*
X73714285Y-80914404D01*
X73523809Y-80962023D01*
X73380952Y-80962023D01*
X73190476Y-80914404D01*
X73095238Y-80866785D01*
X73000000Y-80771547D01*
X72952380Y-80628690D01*
X72952380Y-80533452D01*
X73000000Y-80390595D01*
X73047619Y-80342976D01*
X73952380Y-79390595D02*
X73952380Y-79962023D01*
X73952380Y-79676309D02*
X72952380Y-79676309D01*
X73095238Y-79771547D01*
X73190476Y-79866785D01*
X73238095Y-79962023D01*
X73047619Y-79009642D02*
X73000000Y-78962023D01*
X72952380Y-78866785D01*
X72952380Y-78628690D01*
X73000000Y-78533452D01*
X73047619Y-78485833D01*
X73142857Y-78438214D01*
X73238095Y-78438214D01*
X73380952Y-78485833D01*
X73952380Y-79057261D01*
X73952380Y-78438214D01*
%TO.C,R23*%
X123952380Y-112142976D02*
X123476190Y-112476309D01*
X123952380Y-112714404D02*
X122952380Y-112714404D01*
X122952380Y-112333452D01*
X123000000Y-112238214D01*
X123047619Y-112190595D01*
X123142857Y-112142976D01*
X123285714Y-112142976D01*
X123380952Y-112190595D01*
X123428571Y-112238214D01*
X123476190Y-112333452D01*
X123476190Y-112714404D01*
X123047619Y-111762023D02*
X123000000Y-111714404D01*
X122952380Y-111619166D01*
X122952380Y-111381071D01*
X123000000Y-111285833D01*
X123047619Y-111238214D01*
X123142857Y-111190595D01*
X123238095Y-111190595D01*
X123380952Y-111238214D01*
X123952380Y-111809642D01*
X123952380Y-111190595D01*
X122952380Y-110857261D02*
X122952380Y-110238214D01*
X123333333Y-110571547D01*
X123333333Y-110428690D01*
X123380952Y-110333452D01*
X123428571Y-110285833D01*
X123523809Y-110238214D01*
X123761904Y-110238214D01*
X123857142Y-110285833D01*
X123904761Y-110333452D01*
X123952380Y-110428690D01*
X123952380Y-110714404D01*
X123904761Y-110809642D01*
X123857142Y-110857261D01*
%TO.C,R1*%
X109083333Y-88952380D02*
X108750000Y-88476190D01*
X108511904Y-88952380D02*
X108511904Y-87952380D01*
X108892857Y-87952380D01*
X108988095Y-88000000D01*
X109035714Y-88047619D01*
X109083333Y-88142857D01*
X109083333Y-88285714D01*
X109035714Y-88380952D01*
X108988095Y-88428571D01*
X108892857Y-88476190D01*
X108511904Y-88476190D01*
X110035714Y-88952380D02*
X109464285Y-88952380D01*
X109750000Y-88952380D02*
X109750000Y-87952380D01*
X109654761Y-88095238D01*
X109559523Y-88190476D01*
X109464285Y-88238095D01*
%TO.C,R21*%
X76952380Y-112142976D02*
X76476190Y-112476309D01*
X76952380Y-112714404D02*
X75952380Y-112714404D01*
X75952380Y-112333452D01*
X76000000Y-112238214D01*
X76047619Y-112190595D01*
X76142857Y-112142976D01*
X76285714Y-112142976D01*
X76380952Y-112190595D01*
X76428571Y-112238214D01*
X76476190Y-112333452D01*
X76476190Y-112714404D01*
X76047619Y-111762023D02*
X76000000Y-111714404D01*
X75952380Y-111619166D01*
X75952380Y-111381071D01*
X76000000Y-111285833D01*
X76047619Y-111238214D01*
X76142857Y-111190595D01*
X76238095Y-111190595D01*
X76380952Y-111238214D01*
X76952380Y-111809642D01*
X76952380Y-111190595D01*
X76952380Y-110238214D02*
X76952380Y-110809642D01*
X76952380Y-110523928D02*
X75952380Y-110523928D01*
X76095238Y-110619166D01*
X76190476Y-110714404D01*
X76238095Y-110809642D01*
%TO.C,L1*%
X88833333Y-101702380D02*
X88357142Y-101702380D01*
X88357142Y-100702380D01*
X89690476Y-101702380D02*
X89119047Y-101702380D01*
X89404761Y-101702380D02*
X89404761Y-100702380D01*
X89309523Y-100845238D01*
X89214285Y-100940476D01*
X89119047Y-100988095D01*
%TO.C,R5*%
X67633333Y-92752380D02*
X67300000Y-92276190D01*
X67061904Y-92752380D02*
X67061904Y-91752380D01*
X67442857Y-91752380D01*
X67538095Y-91800000D01*
X67585714Y-91847619D01*
X67633333Y-91942857D01*
X67633333Y-92085714D01*
X67585714Y-92180952D01*
X67538095Y-92228571D01*
X67442857Y-92276190D01*
X67061904Y-92276190D01*
X68538095Y-91752380D02*
X68061904Y-91752380D01*
X68014285Y-92228571D01*
X68061904Y-92180952D01*
X68157142Y-92133333D01*
X68395238Y-92133333D01*
X68490476Y-92180952D01*
X68538095Y-92228571D01*
X68585714Y-92323809D01*
X68585714Y-92561904D01*
X68538095Y-92657142D01*
X68490476Y-92704761D01*
X68395238Y-92752380D01*
X68157142Y-92752380D01*
X68061904Y-92704761D01*
X68014285Y-92657142D01*
%TO.C,R19*%
X154607142Y-78852380D02*
X154273809Y-78376190D01*
X154035714Y-78852380D02*
X154035714Y-77852380D01*
X154416666Y-77852380D01*
X154511904Y-77900000D01*
X154559523Y-77947619D01*
X154607142Y-78042857D01*
X154607142Y-78185714D01*
X154559523Y-78280952D01*
X154511904Y-78328571D01*
X154416666Y-78376190D01*
X154035714Y-78376190D01*
X155559523Y-78852380D02*
X154988095Y-78852380D01*
X155273809Y-78852380D02*
X155273809Y-77852380D01*
X155178571Y-77995238D01*
X155083333Y-78090476D01*
X154988095Y-78138095D01*
X156035714Y-78852380D02*
X156226190Y-78852380D01*
X156321428Y-78804761D01*
X156369047Y-78757142D01*
X156464285Y-78614285D01*
X156511904Y-78423809D01*
X156511904Y-78042857D01*
X156464285Y-77947619D01*
X156416666Y-77900000D01*
X156321428Y-77852380D01*
X156130952Y-77852380D01*
X156035714Y-77900000D01*
X155988095Y-77947619D01*
X155940476Y-78042857D01*
X155940476Y-78280952D01*
X155988095Y-78376190D01*
X156035714Y-78423809D01*
X156130952Y-78471428D01*
X156321428Y-78471428D01*
X156416666Y-78423809D01*
X156464285Y-78376190D01*
X156511904Y-78280952D01*
%TO.C,C11*%
X72357142Y-80342976D02*
X72404761Y-80390595D01*
X72452380Y-80533452D01*
X72452380Y-80628690D01*
X72404761Y-80771547D01*
X72309523Y-80866785D01*
X72214285Y-80914404D01*
X72023809Y-80962023D01*
X71880952Y-80962023D01*
X71690476Y-80914404D01*
X71595238Y-80866785D01*
X71500000Y-80771547D01*
X71452380Y-80628690D01*
X71452380Y-80533452D01*
X71500000Y-80390595D01*
X71547619Y-80342976D01*
X72452380Y-79390595D02*
X72452380Y-79962023D01*
X72452380Y-79676309D02*
X71452380Y-79676309D01*
X71595238Y-79771547D01*
X71690476Y-79866785D01*
X71738095Y-79962023D01*
X72452380Y-78438214D02*
X72452380Y-79009642D01*
X72452380Y-78723928D02*
X71452380Y-78723928D01*
X71595238Y-78819166D01*
X71690476Y-78914404D01*
X71738095Y-79009642D01*
%TO.C,C23*%
X151657023Y-102407142D02*
X151609404Y-102454761D01*
X151466547Y-102502380D01*
X151371309Y-102502380D01*
X151228452Y-102454761D01*
X151133214Y-102359523D01*
X151085595Y-102264285D01*
X151037976Y-102073809D01*
X151037976Y-101930952D01*
X151085595Y-101740476D01*
X151133214Y-101645238D01*
X151228452Y-101550000D01*
X151371309Y-101502380D01*
X151466547Y-101502380D01*
X151609404Y-101550000D01*
X151657023Y-101597619D01*
X152037976Y-101597619D02*
X152085595Y-101550000D01*
X152180833Y-101502380D01*
X152418928Y-101502380D01*
X152514166Y-101550000D01*
X152561785Y-101597619D01*
X152609404Y-101692857D01*
X152609404Y-101788095D01*
X152561785Y-101930952D01*
X151990357Y-102502380D01*
X152609404Y-102502380D01*
X152942738Y-101502380D02*
X153561785Y-101502380D01*
X153228452Y-101883333D01*
X153371309Y-101883333D01*
X153466547Y-101930952D01*
X153514166Y-101978571D01*
X153561785Y-102073809D01*
X153561785Y-102311904D01*
X153514166Y-102407142D01*
X153466547Y-102454761D01*
X153371309Y-102502380D01*
X153085595Y-102502380D01*
X152990357Y-102454761D01*
X152942738Y-102407142D01*
%TO.C,C5*%
X94321333Y-84150742D02*
X94273714Y-84198361D01*
X94130857Y-84245980D01*
X94035619Y-84245980D01*
X93892761Y-84198361D01*
X93797523Y-84103123D01*
X93749904Y-84007885D01*
X93702285Y-83817409D01*
X93702285Y-83674552D01*
X93749904Y-83484076D01*
X93797523Y-83388838D01*
X93892761Y-83293600D01*
X94035619Y-83245980D01*
X94130857Y-83245980D01*
X94273714Y-83293600D01*
X94321333Y-83341219D01*
X95226095Y-83245980D02*
X94749904Y-83245980D01*
X94702285Y-83722171D01*
X94749904Y-83674552D01*
X94845142Y-83626933D01*
X95083238Y-83626933D01*
X95178476Y-83674552D01*
X95226095Y-83722171D01*
X95273714Y-83817409D01*
X95273714Y-84055504D01*
X95226095Y-84150742D01*
X95178476Y-84198361D01*
X95083238Y-84245980D01*
X94845142Y-84245980D01*
X94749904Y-84198361D01*
X94702285Y-84150742D01*
%TO.C,C8*%
X69857142Y-88892976D02*
X69904761Y-88940595D01*
X69952380Y-89083452D01*
X69952380Y-89178690D01*
X69904761Y-89321547D01*
X69809523Y-89416785D01*
X69714285Y-89464404D01*
X69523809Y-89512023D01*
X69380952Y-89512023D01*
X69190476Y-89464404D01*
X69095238Y-89416785D01*
X69000000Y-89321547D01*
X68952380Y-89178690D01*
X68952380Y-89083452D01*
X69000000Y-88940595D01*
X69047619Y-88892976D01*
X69380952Y-88321547D02*
X69333333Y-88416785D01*
X69285714Y-88464404D01*
X69190476Y-88512023D01*
X69142857Y-88512023D01*
X69047619Y-88464404D01*
X69000000Y-88416785D01*
X68952380Y-88321547D01*
X68952380Y-88131071D01*
X69000000Y-88035833D01*
X69047619Y-87988214D01*
X69142857Y-87940595D01*
X69190476Y-87940595D01*
X69285714Y-87988214D01*
X69333333Y-88035833D01*
X69380952Y-88131071D01*
X69380952Y-88321547D01*
X69428571Y-88416785D01*
X69476190Y-88464404D01*
X69571428Y-88512023D01*
X69761904Y-88512023D01*
X69857142Y-88464404D01*
X69904761Y-88416785D01*
X69952380Y-88321547D01*
X69952380Y-88131071D01*
X69904761Y-88035833D01*
X69857142Y-87988214D01*
X69761904Y-87940595D01*
X69571428Y-87940595D01*
X69476190Y-87988214D01*
X69428571Y-88035833D01*
X69380952Y-88131071D01*
%TO.C,R29*%
X155557142Y-81952380D02*
X155223809Y-81476190D01*
X154985714Y-81952380D02*
X154985714Y-80952380D01*
X155366666Y-80952380D01*
X155461904Y-81000000D01*
X155509523Y-81047619D01*
X155557142Y-81142857D01*
X155557142Y-81285714D01*
X155509523Y-81380952D01*
X155461904Y-81428571D01*
X155366666Y-81476190D01*
X154985714Y-81476190D01*
X155938095Y-81047619D02*
X155985714Y-81000000D01*
X156080952Y-80952380D01*
X156319047Y-80952380D01*
X156414285Y-81000000D01*
X156461904Y-81047619D01*
X156509523Y-81142857D01*
X156509523Y-81238095D01*
X156461904Y-81380952D01*
X155890476Y-81952380D01*
X156509523Y-81952380D01*
X156985714Y-81952380D02*
X157176190Y-81952380D01*
X157271428Y-81904761D01*
X157319047Y-81857142D01*
X157414285Y-81714285D01*
X157461904Y-81523809D01*
X157461904Y-81142857D01*
X157414285Y-81047619D01*
X157366666Y-81000000D01*
X157271428Y-80952380D01*
X157080952Y-80952380D01*
X156985714Y-81000000D01*
X156938095Y-81047619D01*
X156890476Y-81142857D01*
X156890476Y-81380952D01*
X156938095Y-81476190D01*
X156985714Y-81523809D01*
X157080952Y-81571428D01*
X157271428Y-81571428D01*
X157366666Y-81523809D01*
X157414285Y-81476190D01*
X157461904Y-81380952D01*
%TO.C,Q2*%
X69881761Y-107354619D02*
X69786523Y-107307000D01*
X69691285Y-107211761D01*
X69548428Y-107068904D01*
X69453190Y-107021285D01*
X69357952Y-107021285D01*
X69405571Y-107259380D02*
X69310333Y-107211761D01*
X69215095Y-107116523D01*
X69167476Y-106926047D01*
X69167476Y-106592714D01*
X69215095Y-106402238D01*
X69310333Y-106307000D01*
X69405571Y-106259380D01*
X69596047Y-106259380D01*
X69691285Y-106307000D01*
X69786523Y-106402238D01*
X69834142Y-106592714D01*
X69834142Y-106926047D01*
X69786523Y-107116523D01*
X69691285Y-107211761D01*
X69596047Y-107259380D01*
X69405571Y-107259380D01*
X70215095Y-106354619D02*
X70262714Y-106307000D01*
X70357952Y-106259380D01*
X70596047Y-106259380D01*
X70691285Y-106307000D01*
X70738904Y-106354619D01*
X70786523Y-106449857D01*
X70786523Y-106545095D01*
X70738904Y-106687952D01*
X70167476Y-107259380D01*
X70786523Y-107259380D01*
%TO.C,U5*%
X108488095Y-147552380D02*
X108488095Y-148361904D01*
X108535714Y-148457142D01*
X108583333Y-148504761D01*
X108678571Y-148552380D01*
X108869047Y-148552380D01*
X108964285Y-148504761D01*
X109011904Y-148457142D01*
X109059523Y-148361904D01*
X109059523Y-147552380D01*
X110011904Y-147552380D02*
X109535714Y-147552380D01*
X109488095Y-148028571D01*
X109535714Y-147980952D01*
X109630952Y-147933333D01*
X109869047Y-147933333D01*
X109964285Y-147980952D01*
X110011904Y-148028571D01*
X110059523Y-148123809D01*
X110059523Y-148361904D01*
X110011904Y-148457142D01*
X109964285Y-148504761D01*
X109869047Y-148552380D01*
X109630952Y-148552380D01*
X109535714Y-148504761D01*
X109488095Y-148457142D01*
%TO.C,U8*%
X140452380Y-100761904D02*
X141261904Y-100761904D01*
X141357142Y-100714285D01*
X141404761Y-100666666D01*
X141452380Y-100571428D01*
X141452380Y-100380952D01*
X141404761Y-100285714D01*
X141357142Y-100238095D01*
X141261904Y-100190476D01*
X140452380Y-100190476D01*
X140880952Y-99571428D02*
X140833333Y-99666666D01*
X140785714Y-99714285D01*
X140690476Y-99761904D01*
X140642857Y-99761904D01*
X140547619Y-99714285D01*
X140500000Y-99666666D01*
X140452380Y-99571428D01*
X140452380Y-99380952D01*
X140500000Y-99285714D01*
X140547619Y-99238095D01*
X140642857Y-99190476D01*
X140690476Y-99190476D01*
X140785714Y-99238095D01*
X140833333Y-99285714D01*
X140880952Y-99380952D01*
X140880952Y-99571428D01*
X140928571Y-99666666D01*
X140976190Y-99714285D01*
X141071428Y-99761904D01*
X141261904Y-99761904D01*
X141357142Y-99714285D01*
X141404761Y-99666666D01*
X141452380Y-99571428D01*
X141452380Y-99380952D01*
X141404761Y-99285714D01*
X141357142Y-99238095D01*
X141261904Y-99190476D01*
X141071428Y-99190476D01*
X140976190Y-99238095D01*
X140928571Y-99285714D01*
X140880952Y-99380952D01*
%TO.C,R27*%
X143302380Y-101742857D02*
X142826190Y-102076190D01*
X143302380Y-102314285D02*
X142302380Y-102314285D01*
X142302380Y-101933333D01*
X142350000Y-101838095D01*
X142397619Y-101790476D01*
X142492857Y-101742857D01*
X142635714Y-101742857D01*
X142730952Y-101790476D01*
X142778571Y-101838095D01*
X142826190Y-101933333D01*
X142826190Y-102314285D01*
X142397619Y-101361904D02*
X142350000Y-101314285D01*
X142302380Y-101219047D01*
X142302380Y-100980952D01*
X142350000Y-100885714D01*
X142397619Y-100838095D01*
X142492857Y-100790476D01*
X142588095Y-100790476D01*
X142730952Y-100838095D01*
X143302380Y-101409523D01*
X143302380Y-100790476D01*
X142302380Y-100457142D02*
X142302380Y-99790476D01*
X143302380Y-100219047D01*
%TO.C,R34*%
X116952380Y-83892857D02*
X116476190Y-84226190D01*
X116952380Y-84464285D02*
X115952380Y-84464285D01*
X115952380Y-84083333D01*
X116000000Y-83988095D01*
X116047619Y-83940476D01*
X116142857Y-83892857D01*
X116285714Y-83892857D01*
X116380952Y-83940476D01*
X116428571Y-83988095D01*
X116476190Y-84083333D01*
X116476190Y-84464285D01*
X115952380Y-83559523D02*
X115952380Y-82940476D01*
X116333333Y-83273809D01*
X116333333Y-83130952D01*
X116380952Y-83035714D01*
X116428571Y-82988095D01*
X116523809Y-82940476D01*
X116761904Y-82940476D01*
X116857142Y-82988095D01*
X116904761Y-83035714D01*
X116952380Y-83130952D01*
X116952380Y-83416666D01*
X116904761Y-83511904D01*
X116857142Y-83559523D01*
X116285714Y-82083333D02*
X116952380Y-82083333D01*
X115904761Y-82321428D02*
X116619047Y-82559523D01*
X116619047Y-81940476D01*
%TO.C,C28*%
X130007142Y-103157142D02*
X129959523Y-103204761D01*
X129816666Y-103252380D01*
X129721428Y-103252380D01*
X129578571Y-103204761D01*
X129483333Y-103109523D01*
X129435714Y-103014285D01*
X129388095Y-102823809D01*
X129388095Y-102680952D01*
X129435714Y-102490476D01*
X129483333Y-102395238D01*
X129578571Y-102300000D01*
X129721428Y-102252380D01*
X129816666Y-102252380D01*
X129959523Y-102300000D01*
X130007142Y-102347619D01*
X130388095Y-102347619D02*
X130435714Y-102300000D01*
X130530952Y-102252380D01*
X130769047Y-102252380D01*
X130864285Y-102300000D01*
X130911904Y-102347619D01*
X130959523Y-102442857D01*
X130959523Y-102538095D01*
X130911904Y-102680952D01*
X130340476Y-103252380D01*
X130959523Y-103252380D01*
X131530952Y-102680952D02*
X131435714Y-102633333D01*
X131388095Y-102585714D01*
X131340476Y-102490476D01*
X131340476Y-102442857D01*
X131388095Y-102347619D01*
X131435714Y-102300000D01*
X131530952Y-102252380D01*
X131721428Y-102252380D01*
X131816666Y-102300000D01*
X131864285Y-102347619D01*
X131911904Y-102442857D01*
X131911904Y-102490476D01*
X131864285Y-102585714D01*
X131816666Y-102633333D01*
X131721428Y-102680952D01*
X131530952Y-102680952D01*
X131435714Y-102728571D01*
X131388095Y-102776190D01*
X131340476Y-102871428D01*
X131340476Y-103061904D01*
X131388095Y-103157142D01*
X131435714Y-103204761D01*
X131530952Y-103252380D01*
X131721428Y-103252380D01*
X131816666Y-103204761D01*
X131864285Y-103157142D01*
X131911904Y-103061904D01*
X131911904Y-102871428D01*
X131864285Y-102776190D01*
X131816666Y-102728571D01*
X131721428Y-102680952D01*
%TO.C,R32*%
X113452380Y-83892857D02*
X112976190Y-84226190D01*
X113452380Y-84464285D02*
X112452380Y-84464285D01*
X112452380Y-84083333D01*
X112500000Y-83988095D01*
X112547619Y-83940476D01*
X112642857Y-83892857D01*
X112785714Y-83892857D01*
X112880952Y-83940476D01*
X112928571Y-83988095D01*
X112976190Y-84083333D01*
X112976190Y-84464285D01*
X112452380Y-83559523D02*
X112452380Y-82940476D01*
X112833333Y-83273809D01*
X112833333Y-83130952D01*
X112880952Y-83035714D01*
X112928571Y-82988095D01*
X113023809Y-82940476D01*
X113261904Y-82940476D01*
X113357142Y-82988095D01*
X113404761Y-83035714D01*
X113452380Y-83130952D01*
X113452380Y-83416666D01*
X113404761Y-83511904D01*
X113357142Y-83559523D01*
X112547619Y-82559523D02*
X112500000Y-82511904D01*
X112452380Y-82416666D01*
X112452380Y-82178571D01*
X112500000Y-82083333D01*
X112547619Y-82035714D01*
X112642857Y-81988095D01*
X112738095Y-81988095D01*
X112880952Y-82035714D01*
X113452380Y-82607142D01*
X113452380Y-81988095D01*
%TO.C,R31*%
X143607142Y-78702380D02*
X143273809Y-78226190D01*
X143035714Y-78702380D02*
X143035714Y-77702380D01*
X143416666Y-77702380D01*
X143511904Y-77750000D01*
X143559523Y-77797619D01*
X143607142Y-77892857D01*
X143607142Y-78035714D01*
X143559523Y-78130952D01*
X143511904Y-78178571D01*
X143416666Y-78226190D01*
X143035714Y-78226190D01*
X143940476Y-77702380D02*
X144559523Y-77702380D01*
X144226190Y-78083333D01*
X144369047Y-78083333D01*
X144464285Y-78130952D01*
X144511904Y-78178571D01*
X144559523Y-78273809D01*
X144559523Y-78511904D01*
X144511904Y-78607142D01*
X144464285Y-78654761D01*
X144369047Y-78702380D01*
X144083333Y-78702380D01*
X143988095Y-78654761D01*
X143940476Y-78607142D01*
X145511904Y-78702380D02*
X144940476Y-78702380D01*
X145226190Y-78702380D02*
X145226190Y-77702380D01*
X145130952Y-77845238D01*
X145035714Y-77940476D01*
X144940476Y-77988095D01*
%TO.C,Y2*%
X136133809Y-98826190D02*
X136133809Y-99302380D01*
X135800476Y-98302380D02*
X136133809Y-98826190D01*
X136467142Y-98302380D01*
X136752857Y-98397619D02*
X136800476Y-98350000D01*
X136895714Y-98302380D01*
X137133809Y-98302380D01*
X137229047Y-98350000D01*
X137276666Y-98397619D01*
X137324285Y-98492857D01*
X137324285Y-98588095D01*
X137276666Y-98730952D01*
X136705238Y-99302380D01*
X137324285Y-99302380D01*
%TO.C,R8*%
X75207023Y-85602380D02*
X74873690Y-85126190D01*
X74635595Y-85602380D02*
X74635595Y-84602380D01*
X75016547Y-84602380D01*
X75111785Y-84650000D01*
X75159404Y-84697619D01*
X75207023Y-84792857D01*
X75207023Y-84935714D01*
X75159404Y-85030952D01*
X75111785Y-85078571D01*
X75016547Y-85126190D01*
X74635595Y-85126190D01*
X75778452Y-85030952D02*
X75683214Y-84983333D01*
X75635595Y-84935714D01*
X75587976Y-84840476D01*
X75587976Y-84792857D01*
X75635595Y-84697619D01*
X75683214Y-84650000D01*
X75778452Y-84602380D01*
X75968928Y-84602380D01*
X76064166Y-84650000D01*
X76111785Y-84697619D01*
X76159404Y-84792857D01*
X76159404Y-84840476D01*
X76111785Y-84935714D01*
X76064166Y-84983333D01*
X75968928Y-85030952D01*
X75778452Y-85030952D01*
X75683214Y-85078571D01*
X75635595Y-85126190D01*
X75587976Y-85221428D01*
X75587976Y-85411904D01*
X75635595Y-85507142D01*
X75683214Y-85554761D01*
X75778452Y-85602380D01*
X75968928Y-85602380D01*
X76064166Y-85554761D01*
X76111785Y-85507142D01*
X76159404Y-85411904D01*
X76159404Y-85221428D01*
X76111785Y-85126190D01*
X76064166Y-85078571D01*
X75968928Y-85030952D01*
%TO.C,C27*%
X129957142Y-100657142D02*
X129909523Y-100704761D01*
X129766666Y-100752380D01*
X129671428Y-100752380D01*
X129528571Y-100704761D01*
X129433333Y-100609523D01*
X129385714Y-100514285D01*
X129338095Y-100323809D01*
X129338095Y-100180952D01*
X129385714Y-99990476D01*
X129433333Y-99895238D01*
X129528571Y-99800000D01*
X129671428Y-99752380D01*
X129766666Y-99752380D01*
X129909523Y-99800000D01*
X129957142Y-99847619D01*
X130338095Y-99847619D02*
X130385714Y-99800000D01*
X130480952Y-99752380D01*
X130719047Y-99752380D01*
X130814285Y-99800000D01*
X130861904Y-99847619D01*
X130909523Y-99942857D01*
X130909523Y-100038095D01*
X130861904Y-100180952D01*
X130290476Y-100752380D01*
X130909523Y-100752380D01*
X131242857Y-99752380D02*
X131909523Y-99752380D01*
X131480952Y-100752380D01*
%TO.C,R72*%
X137057142Y-144182380D02*
X136723809Y-143706190D01*
X136485714Y-144182380D02*
X136485714Y-143182380D01*
X136866666Y-143182380D01*
X136961904Y-143230000D01*
X137009523Y-143277619D01*
X137057142Y-143372857D01*
X137057142Y-143515714D01*
X137009523Y-143610952D01*
X136961904Y-143658571D01*
X136866666Y-143706190D01*
X136485714Y-143706190D01*
X137390476Y-143182380D02*
X138057142Y-143182380D01*
X137628571Y-144182380D01*
X138390476Y-143277619D02*
X138438095Y-143230000D01*
X138533333Y-143182380D01*
X138771428Y-143182380D01*
X138866666Y-143230000D01*
X138914285Y-143277619D01*
X138961904Y-143372857D01*
X138961904Y-143468095D01*
X138914285Y-143610952D01*
X138342857Y-144182380D01*
X138961904Y-144182380D01*
%TO.C,C20*%
X138757142Y-100242738D02*
X138804761Y-100290357D01*
X138852380Y-100433214D01*
X138852380Y-100528452D01*
X138804761Y-100671309D01*
X138709523Y-100766547D01*
X138614285Y-100814166D01*
X138423809Y-100861785D01*
X138280952Y-100861785D01*
X138090476Y-100814166D01*
X137995238Y-100766547D01*
X137900000Y-100671309D01*
X137852380Y-100528452D01*
X137852380Y-100433214D01*
X137900000Y-100290357D01*
X137947619Y-100242738D01*
X137947619Y-99861785D02*
X137900000Y-99814166D01*
X137852380Y-99718928D01*
X137852380Y-99480833D01*
X137900000Y-99385595D01*
X137947619Y-99337976D01*
X138042857Y-99290357D01*
X138138095Y-99290357D01*
X138280952Y-99337976D01*
X138852380Y-99909404D01*
X138852380Y-99290357D01*
X137852380Y-98671309D02*
X137852380Y-98576071D01*
X137900000Y-98480833D01*
X137947619Y-98433214D01*
X138042857Y-98385595D01*
X138233333Y-98337976D01*
X138471428Y-98337976D01*
X138661904Y-98385595D01*
X138757142Y-98433214D01*
X138804761Y-98480833D01*
X138852380Y-98576071D01*
X138852380Y-98671309D01*
X138804761Y-98766547D01*
X138757142Y-98814166D01*
X138661904Y-98861785D01*
X138471428Y-98909404D01*
X138233333Y-98909404D01*
X138042857Y-98861785D01*
X137947619Y-98814166D01*
X137900000Y-98766547D01*
X137852380Y-98671309D01*
%TO.C,C21*%
X155387142Y-88992857D02*
X155434761Y-89040476D01*
X155482380Y-89183333D01*
X155482380Y-89278571D01*
X155434761Y-89421428D01*
X155339523Y-89516666D01*
X155244285Y-89564285D01*
X155053809Y-89611904D01*
X154910952Y-89611904D01*
X154720476Y-89564285D01*
X154625238Y-89516666D01*
X154530000Y-89421428D01*
X154482380Y-89278571D01*
X154482380Y-89183333D01*
X154530000Y-89040476D01*
X154577619Y-88992857D01*
X154577619Y-88611904D02*
X154530000Y-88564285D01*
X154482380Y-88469047D01*
X154482380Y-88230952D01*
X154530000Y-88135714D01*
X154577619Y-88088095D01*
X154672857Y-88040476D01*
X154768095Y-88040476D01*
X154910952Y-88088095D01*
X155482380Y-88659523D01*
X155482380Y-88040476D01*
X155482380Y-87088095D02*
X155482380Y-87659523D01*
X155482380Y-87373809D02*
X154482380Y-87373809D01*
X154625238Y-87469047D01*
X154720476Y-87564285D01*
X154768095Y-87659523D01*
%TO.C,R3*%
X78882380Y-90666666D02*
X78406190Y-91000000D01*
X78882380Y-91238095D02*
X77882380Y-91238095D01*
X77882380Y-90857142D01*
X77930000Y-90761904D01*
X77977619Y-90714285D01*
X78072857Y-90666666D01*
X78215714Y-90666666D01*
X78310952Y-90714285D01*
X78358571Y-90761904D01*
X78406190Y-90857142D01*
X78406190Y-91238095D01*
X77882380Y-90333333D02*
X77882380Y-89714285D01*
X78263333Y-90047619D01*
X78263333Y-89904761D01*
X78310952Y-89809523D01*
X78358571Y-89761904D01*
X78453809Y-89714285D01*
X78691904Y-89714285D01*
X78787142Y-89761904D01*
X78834761Y-89809523D01*
X78882380Y-89904761D01*
X78882380Y-90190476D01*
X78834761Y-90285714D01*
X78787142Y-90333333D01*
%TO.C,U3*%
X82752380Y-153261904D02*
X83561904Y-153261904D01*
X83657142Y-153214285D01*
X83704761Y-153166666D01*
X83752380Y-153071428D01*
X83752380Y-152880952D01*
X83704761Y-152785714D01*
X83657142Y-152738095D01*
X83561904Y-152690476D01*
X82752380Y-152690476D01*
X82752380Y-152309523D02*
X82752380Y-151690476D01*
X83133333Y-152023809D01*
X83133333Y-151880952D01*
X83180952Y-151785714D01*
X83228571Y-151738095D01*
X83323809Y-151690476D01*
X83561904Y-151690476D01*
X83657142Y-151738095D01*
X83704761Y-151785714D01*
X83752380Y-151880952D01*
X83752380Y-152166666D01*
X83704761Y-152261904D01*
X83657142Y-152309523D01*
%TO.C,C7*%
X108907023Y-97557141D02*
X108859404Y-97604760D01*
X108716547Y-97652379D01*
X108621309Y-97652379D01*
X108478452Y-97604760D01*
X108383214Y-97509522D01*
X108335595Y-97414284D01*
X108287976Y-97223808D01*
X108287976Y-97080951D01*
X108335595Y-96890475D01*
X108383214Y-96795237D01*
X108478452Y-96699999D01*
X108621309Y-96652379D01*
X108716547Y-96652379D01*
X108859404Y-96699999D01*
X108907023Y-96747618D01*
X109240357Y-96652379D02*
X109907023Y-96652379D01*
X109478452Y-97652379D01*
%TO.C,C15*%
X85357142Y-157242857D02*
X85404761Y-157290476D01*
X85452380Y-157433333D01*
X85452380Y-157528571D01*
X85404761Y-157671428D01*
X85309523Y-157766666D01*
X85214285Y-157814285D01*
X85023809Y-157861904D01*
X84880952Y-157861904D01*
X84690476Y-157814285D01*
X84595238Y-157766666D01*
X84500000Y-157671428D01*
X84452380Y-157528571D01*
X84452380Y-157433333D01*
X84500000Y-157290476D01*
X84547619Y-157242857D01*
X85452380Y-156290476D02*
X85452380Y-156861904D01*
X85452380Y-156576190D02*
X84452380Y-156576190D01*
X84595238Y-156671428D01*
X84690476Y-156766666D01*
X84738095Y-156861904D01*
X84452380Y-155385714D02*
X84452380Y-155861904D01*
X84928571Y-155909523D01*
X84880952Y-155861904D01*
X84833333Y-155766666D01*
X84833333Y-155528571D01*
X84880952Y-155433333D01*
X84928571Y-155385714D01*
X85023809Y-155338095D01*
X85261904Y-155338095D01*
X85357142Y-155385714D01*
X85404761Y-155433333D01*
X85452380Y-155528571D01*
X85452380Y-155766666D01*
X85404761Y-155861904D01*
X85357142Y-155909523D01*
%TO.C,C18*%
X135357142Y-157217857D02*
X135404761Y-157265476D01*
X135452380Y-157408333D01*
X135452380Y-157503571D01*
X135404761Y-157646428D01*
X135309523Y-157741666D01*
X135214285Y-157789285D01*
X135023809Y-157836904D01*
X134880952Y-157836904D01*
X134690476Y-157789285D01*
X134595238Y-157741666D01*
X134500000Y-157646428D01*
X134452380Y-157503571D01*
X134452380Y-157408333D01*
X134500000Y-157265476D01*
X134547619Y-157217857D01*
X135452380Y-156265476D02*
X135452380Y-156836904D01*
X135452380Y-156551190D02*
X134452380Y-156551190D01*
X134595238Y-156646428D01*
X134690476Y-156741666D01*
X134738095Y-156836904D01*
X134880952Y-155694047D02*
X134833333Y-155789285D01*
X134785714Y-155836904D01*
X134690476Y-155884523D01*
X134642857Y-155884523D01*
X134547619Y-155836904D01*
X134500000Y-155789285D01*
X134452380Y-155694047D01*
X134452380Y-155503571D01*
X134500000Y-155408333D01*
X134547619Y-155360714D01*
X134642857Y-155313095D01*
X134690476Y-155313095D01*
X134785714Y-155360714D01*
X134833333Y-155408333D01*
X134880952Y-155503571D01*
X134880952Y-155694047D01*
X134928571Y-155789285D01*
X134976190Y-155836904D01*
X135071428Y-155884523D01*
X135261904Y-155884523D01*
X135357142Y-155836904D01*
X135404761Y-155789285D01*
X135452380Y-155694047D01*
X135452380Y-155503571D01*
X135404761Y-155408333D01*
X135357142Y-155360714D01*
X135261904Y-155313095D01*
X135071428Y-155313095D01*
X134976190Y-155360714D01*
X134928571Y-155408333D01*
X134880952Y-155503571D01*
%TO.C,C9*%
X74988334Y-93956142D02*
X74940715Y-94003761D01*
X74797858Y-94051380D01*
X74702620Y-94051380D01*
X74559762Y-94003761D01*
X74464524Y-93908523D01*
X74416905Y-93813285D01*
X74369286Y-93622809D01*
X74369286Y-93479952D01*
X74416905Y-93289476D01*
X74464524Y-93194238D01*
X74559762Y-93099000D01*
X74702620Y-93051380D01*
X74797858Y-93051380D01*
X74940715Y-93099000D01*
X74988334Y-93146619D01*
X75464524Y-94051380D02*
X75655001Y-94051380D01*
X75750239Y-94003761D01*
X75797858Y-93956142D01*
X75893096Y-93813285D01*
X75940715Y-93622809D01*
X75940715Y-93241857D01*
X75893096Y-93146619D01*
X75845477Y-93099000D01*
X75750239Y-93051380D01*
X75559762Y-93051380D01*
X75464524Y-93099000D01*
X75416905Y-93146619D01*
X75369286Y-93241857D01*
X75369286Y-93479952D01*
X75416905Y-93575190D01*
X75464524Y-93622809D01*
X75559762Y-93670428D01*
X75750239Y-93670428D01*
X75845477Y-93622809D01*
X75893096Y-93575190D01*
X75940715Y-93479952D01*
%TO.C,V1*%
X75452380Y-128059523D02*
X76452380Y-127726190D01*
X75452380Y-127392857D01*
X76452380Y-126535714D02*
X76452380Y-127107142D01*
X76452380Y-126821428D02*
X75452380Y-126821428D01*
X75595238Y-126916666D01*
X75690476Y-127011904D01*
X75738095Y-127107142D01*
%TO.C,V2*%
X95452380Y-128059523D02*
X96452380Y-127726190D01*
X95452380Y-127392857D01*
X95547619Y-127107142D02*
X95500000Y-127059523D01*
X95452380Y-126964285D01*
X95452380Y-126726190D01*
X95500000Y-126630952D01*
X95547619Y-126583333D01*
X95642857Y-126535714D01*
X95738095Y-126535714D01*
X95880952Y-126583333D01*
X96452380Y-127154761D01*
X96452380Y-126535714D01*
%TO.C,FB1*%
X93273666Y-77278571D02*
X92940333Y-77278571D01*
X92940333Y-77802380D02*
X92940333Y-76802380D01*
X93416523Y-76802380D01*
X94130809Y-77278571D02*
X94273666Y-77326190D01*
X94321285Y-77373809D01*
X94368904Y-77469047D01*
X94368904Y-77611904D01*
X94321285Y-77707142D01*
X94273666Y-77754761D01*
X94178428Y-77802380D01*
X93797476Y-77802380D01*
X93797476Y-76802380D01*
X94130809Y-76802380D01*
X94226047Y-76850000D01*
X94273666Y-76897619D01*
X94321285Y-76992857D01*
X94321285Y-77088095D01*
X94273666Y-77183333D01*
X94226047Y-77230952D01*
X94130809Y-77278571D01*
X93797476Y-77278571D01*
X95321285Y-77802380D02*
X94749857Y-77802380D01*
X95035571Y-77802380D02*
X95035571Y-76802380D01*
X94940333Y-76945238D01*
X94845095Y-77040476D01*
X94749857Y-77088095D01*
%TO.C,C26*%
X151957142Y-108292857D02*
X152004761Y-108340476D01*
X152052380Y-108483333D01*
X152052380Y-108578571D01*
X152004761Y-108721428D01*
X151909523Y-108816666D01*
X151814285Y-108864285D01*
X151623809Y-108911904D01*
X151480952Y-108911904D01*
X151290476Y-108864285D01*
X151195238Y-108816666D01*
X151100000Y-108721428D01*
X151052380Y-108578571D01*
X151052380Y-108483333D01*
X151100000Y-108340476D01*
X151147619Y-108292857D01*
X151147619Y-107911904D02*
X151100000Y-107864285D01*
X151052380Y-107769047D01*
X151052380Y-107530952D01*
X151100000Y-107435714D01*
X151147619Y-107388095D01*
X151242857Y-107340476D01*
X151338095Y-107340476D01*
X151480952Y-107388095D01*
X152052380Y-107959523D01*
X152052380Y-107340476D01*
X151052380Y-106483333D02*
X151052380Y-106673809D01*
X151100000Y-106769047D01*
X151147619Y-106816666D01*
X151290476Y-106911904D01*
X151480952Y-106959523D01*
X151861904Y-106959523D01*
X151957142Y-106911904D01*
X152004761Y-106864285D01*
X152052380Y-106769047D01*
X152052380Y-106578571D01*
X152004761Y-106483333D01*
X151957142Y-106435714D01*
X151861904Y-106388095D01*
X151623809Y-106388095D01*
X151528571Y-106435714D01*
X151480952Y-106483333D01*
X151433333Y-106578571D01*
X151433333Y-106769047D01*
X151480952Y-106864285D01*
X151528571Y-106911904D01*
X151623809Y-106959523D01*
%TO.C,R4*%
X70852380Y-80842976D02*
X70376190Y-81176309D01*
X70852380Y-81414404D02*
X69852380Y-81414404D01*
X69852380Y-81033452D01*
X69900000Y-80938214D01*
X69947619Y-80890595D01*
X70042857Y-80842976D01*
X70185714Y-80842976D01*
X70280952Y-80890595D01*
X70328571Y-80938214D01*
X70376190Y-81033452D01*
X70376190Y-81414404D01*
X70185714Y-79985833D02*
X70852380Y-79985833D01*
X69804761Y-80223928D02*
X70519047Y-80462023D01*
X70519047Y-79842976D01*
%TO.C,C19*%
X151857142Y-157242857D02*
X151904761Y-157290476D01*
X151952380Y-157433333D01*
X151952380Y-157528571D01*
X151904761Y-157671428D01*
X151809523Y-157766666D01*
X151714285Y-157814285D01*
X151523809Y-157861904D01*
X151380952Y-157861904D01*
X151190476Y-157814285D01*
X151095238Y-157766666D01*
X151000000Y-157671428D01*
X150952380Y-157528571D01*
X150952380Y-157433333D01*
X151000000Y-157290476D01*
X151047619Y-157242857D01*
X151952380Y-156290476D02*
X151952380Y-156861904D01*
X151952380Y-156576190D02*
X150952380Y-156576190D01*
X151095238Y-156671428D01*
X151190476Y-156766666D01*
X151238095Y-156861904D01*
X151952380Y-155814285D02*
X151952380Y-155623809D01*
X151904761Y-155528571D01*
X151857142Y-155480952D01*
X151714285Y-155385714D01*
X151523809Y-155338095D01*
X151142857Y-155338095D01*
X151047619Y-155385714D01*
X151000000Y-155433333D01*
X150952380Y-155528571D01*
X150952380Y-155719047D01*
X151000000Y-155814285D01*
X151047619Y-155861904D01*
X151142857Y-155909523D01*
X151380952Y-155909523D01*
X151476190Y-155861904D01*
X151523809Y-155814285D01*
X151571428Y-155719047D01*
X151571428Y-155528571D01*
X151523809Y-155433333D01*
X151476190Y-155385714D01*
X151380952Y-155338095D01*
%TO.C,R24*%
X143952380Y-112142976D02*
X143476190Y-112476309D01*
X143952380Y-112714404D02*
X142952380Y-112714404D01*
X142952380Y-112333452D01*
X143000000Y-112238214D01*
X143047619Y-112190595D01*
X143142857Y-112142976D01*
X143285714Y-112142976D01*
X143380952Y-112190595D01*
X143428571Y-112238214D01*
X143476190Y-112333452D01*
X143476190Y-112714404D01*
X143047619Y-111762023D02*
X143000000Y-111714404D01*
X142952380Y-111619166D01*
X142952380Y-111381071D01*
X143000000Y-111285833D01*
X143047619Y-111238214D01*
X143142857Y-111190595D01*
X143238095Y-111190595D01*
X143380952Y-111238214D01*
X143952380Y-111809642D01*
X143952380Y-111190595D01*
X143285714Y-110333452D02*
X143952380Y-110333452D01*
X142904761Y-110571547D02*
X143619047Y-110809642D01*
X143619047Y-110190595D01*
%TO.C,R30*%
X142507142Y-81952380D02*
X142173809Y-81476190D01*
X141935714Y-81952380D02*
X141935714Y-80952380D01*
X142316666Y-80952380D01*
X142411904Y-81000000D01*
X142459523Y-81047619D01*
X142507142Y-81142857D01*
X142507142Y-81285714D01*
X142459523Y-81380952D01*
X142411904Y-81428571D01*
X142316666Y-81476190D01*
X141935714Y-81476190D01*
X142840476Y-80952380D02*
X143459523Y-80952380D01*
X143126190Y-81333333D01*
X143269047Y-81333333D01*
X143364285Y-81380952D01*
X143411904Y-81428571D01*
X143459523Y-81523809D01*
X143459523Y-81761904D01*
X143411904Y-81857142D01*
X143364285Y-81904761D01*
X143269047Y-81952380D01*
X142983333Y-81952380D01*
X142888095Y-81904761D01*
X142840476Y-81857142D01*
X144078571Y-80952380D02*
X144173809Y-80952380D01*
X144269047Y-81000000D01*
X144316666Y-81047619D01*
X144364285Y-81142857D01*
X144411904Y-81333333D01*
X144411904Y-81571428D01*
X144364285Y-81761904D01*
X144316666Y-81857142D01*
X144269047Y-81904761D01*
X144173809Y-81952380D01*
X144078571Y-81952380D01*
X143983333Y-81904761D01*
X143935714Y-81857142D01*
X143888095Y-81761904D01*
X143840476Y-81571428D01*
X143840476Y-81333333D01*
X143888095Y-81142857D01*
X143935714Y-81047619D01*
X143983333Y-81000000D01*
X144078571Y-80952380D01*
%TO.C,G\u002A\u002A*%
X135453571Y-90583214D02*
X135489285Y-90476071D01*
X135489285Y-90297500D01*
X135453571Y-90226071D01*
X135417857Y-90190357D01*
X135346428Y-90154642D01*
X135275000Y-90154642D01*
X135203571Y-90190357D01*
X135167857Y-90226071D01*
X135132142Y-90297500D01*
X135096428Y-90440357D01*
X135060714Y-90511785D01*
X135025000Y-90547500D01*
X134953571Y-90583214D01*
X134882142Y-90583214D01*
X134810714Y-90547500D01*
X134775000Y-90511785D01*
X134739285Y-90440357D01*
X134739285Y-90261785D01*
X134775000Y-90154642D01*
X134739285Y-89904642D02*
X135489285Y-89726071D01*
X134953571Y-89583214D01*
X135489285Y-89440357D01*
X134739285Y-89261785D01*
X135417857Y-88547500D02*
X135453571Y-88583214D01*
X135489285Y-88690357D01*
X135489285Y-88761785D01*
X135453571Y-88868928D01*
X135382142Y-88940357D01*
X135310714Y-88976071D01*
X135167857Y-89011785D01*
X135060714Y-89011785D01*
X134917857Y-88976071D01*
X134846428Y-88940357D01*
X134775000Y-88868928D01*
X134739285Y-88761785D01*
X134739285Y-88690357D01*
X134775000Y-88583214D01*
X134810714Y-88547500D01*
X135489285Y-87868928D02*
X135489285Y-88226071D01*
X134739285Y-88226071D01*
X135489285Y-87618928D02*
X134739285Y-87618928D01*
X135489285Y-87190357D02*
X135060714Y-87511785D01*
X134739285Y-87190357D02*
X135167857Y-87618928D01*
X132689285Y-86273928D02*
X131939285Y-86273928D01*
X132689285Y-85845357D01*
X131939285Y-85845357D01*
X132617857Y-85059642D02*
X132653571Y-85095357D01*
X132689285Y-85202500D01*
X132689285Y-85273928D01*
X132653571Y-85381071D01*
X132582142Y-85452500D01*
X132510714Y-85488214D01*
X132367857Y-85523928D01*
X132260714Y-85523928D01*
X132117857Y-85488214D01*
X132046428Y-85452500D01*
X131975000Y-85381071D01*
X131939285Y-85273928D01*
X131939285Y-85202500D01*
X131975000Y-85095357D01*
X132010714Y-85059642D01*
X132689285Y-88404642D02*
X131939285Y-88404642D01*
X132689285Y-87976071D01*
X131939285Y-87976071D01*
X132617857Y-87190357D02*
X132653571Y-87226071D01*
X132689285Y-87333214D01*
X132689285Y-87404642D01*
X132653571Y-87511785D01*
X132582142Y-87583214D01*
X132510714Y-87618928D01*
X132367857Y-87654642D01*
X132260714Y-87654642D01*
X132117857Y-87618928D01*
X132046428Y-87583214D01*
X131975000Y-87511785D01*
X131939285Y-87404642D01*
X131939285Y-87333214D01*
X131975000Y-87226071D01*
X132010714Y-87190357D01*
X134775000Y-85881071D02*
X134739285Y-85952500D01*
X134739285Y-86059642D01*
X134775000Y-86166785D01*
X134846428Y-86238214D01*
X134917857Y-86273928D01*
X135060714Y-86309642D01*
X135167857Y-86309642D01*
X135310714Y-86273928D01*
X135382142Y-86238214D01*
X135453571Y-86166785D01*
X135489285Y-86059642D01*
X135489285Y-85988214D01*
X135453571Y-85881071D01*
X135417857Y-85845357D01*
X135167857Y-85845357D01*
X135167857Y-85988214D01*
X135489285Y-85523928D02*
X134739285Y-85523928D01*
X135489285Y-85095357D01*
X134739285Y-85095357D01*
X135489285Y-84738214D02*
X134739285Y-84738214D01*
X134739285Y-84559642D01*
X134775000Y-84452500D01*
X134846428Y-84381071D01*
X134917857Y-84345357D01*
X135060714Y-84309642D01*
X135167857Y-84309642D01*
X135310714Y-84345357D01*
X135382142Y-84381071D01*
X135453571Y-84452500D01*
X135489285Y-84559642D01*
X135489285Y-84738214D01*
X134089285Y-88404642D02*
X133339285Y-88404642D01*
X134089285Y-87976071D01*
X133339285Y-87976071D01*
X134017857Y-87190357D02*
X134053571Y-87226071D01*
X134089285Y-87333214D01*
X134089285Y-87404642D01*
X134053571Y-87511785D01*
X133982142Y-87583214D01*
X133910714Y-87618928D01*
X133767857Y-87654642D01*
X133660714Y-87654642D01*
X133517857Y-87618928D01*
X133446428Y-87583214D01*
X133375000Y-87511785D01*
X133339285Y-87404642D01*
X133339285Y-87333214D01*
X133375000Y-87226071D01*
X133410714Y-87190357D01*
X136139285Y-86345357D02*
X136139285Y-85881071D01*
X136425000Y-86131071D01*
X136425000Y-86023928D01*
X136460714Y-85952500D01*
X136496428Y-85916785D01*
X136567857Y-85881071D01*
X136746428Y-85881071D01*
X136817857Y-85916785D01*
X136853571Y-85952500D01*
X136889285Y-86023928D01*
X136889285Y-86238214D01*
X136853571Y-86309642D01*
X136817857Y-86345357D01*
X136817857Y-85559642D02*
X136853571Y-85523928D01*
X136889285Y-85559642D01*
X136853571Y-85595357D01*
X136817857Y-85559642D01*
X136889285Y-85559642D01*
X136139285Y-85273928D02*
X136139285Y-84809642D01*
X136425000Y-85059642D01*
X136425000Y-84952500D01*
X136460714Y-84881071D01*
X136496428Y-84845357D01*
X136567857Y-84809642D01*
X136746428Y-84809642D01*
X136817857Y-84845357D01*
X136853571Y-84881071D01*
X136889285Y-84952500D01*
X136889285Y-85166785D01*
X136853571Y-85238214D01*
X136817857Y-85273928D01*
X136139285Y-84595357D02*
X136889285Y-84345357D01*
X136139285Y-84095357D01*
X133375000Y-85881071D02*
X133339285Y-85952500D01*
X133339285Y-86059642D01*
X133375000Y-86166785D01*
X133446428Y-86238214D01*
X133517857Y-86273928D01*
X133660714Y-86309642D01*
X133767857Y-86309642D01*
X133910714Y-86273928D01*
X133982142Y-86238214D01*
X134053571Y-86166785D01*
X134089285Y-86059642D01*
X134089285Y-85988214D01*
X134053571Y-85881071D01*
X134017857Y-85845357D01*
X133767857Y-85845357D01*
X133767857Y-85988214D01*
X134089285Y-85523928D02*
X133339285Y-85523928D01*
X134089285Y-85095357D01*
X133339285Y-85095357D01*
X134089285Y-84738214D02*
X133339285Y-84738214D01*
X133339285Y-84559642D01*
X133375000Y-84452500D01*
X133446428Y-84381071D01*
X133517857Y-84345357D01*
X133660714Y-84309642D01*
X133767857Y-84309642D01*
X133910714Y-84345357D01*
X133982142Y-84381071D01*
X134053571Y-84452500D01*
X134089285Y-84559642D01*
X134089285Y-84738214D01*
X136853571Y-90368928D02*
X136889285Y-90261785D01*
X136889285Y-90083214D01*
X136853571Y-90011785D01*
X136817857Y-89976071D01*
X136746428Y-89940357D01*
X136675000Y-89940357D01*
X136603571Y-89976071D01*
X136567857Y-90011785D01*
X136532142Y-90083214D01*
X136496428Y-90226071D01*
X136460714Y-90297500D01*
X136425000Y-90333214D01*
X136353571Y-90368928D01*
X136282142Y-90368928D01*
X136210714Y-90333214D01*
X136175000Y-90297500D01*
X136139285Y-90226071D01*
X136139285Y-90047500D01*
X136175000Y-89940357D01*
X136139285Y-89690357D02*
X136889285Y-89511785D01*
X136353571Y-89368928D01*
X136889285Y-89226071D01*
X136139285Y-89047500D01*
X136889285Y-88761785D02*
X136139285Y-88761785D01*
X136139285Y-88583214D01*
X136175000Y-88476071D01*
X136246428Y-88404642D01*
X136317857Y-88368928D01*
X136460714Y-88333214D01*
X136567857Y-88333214D01*
X136710714Y-88368928D01*
X136782142Y-88404642D01*
X136853571Y-88476071D01*
X136889285Y-88583214D01*
X136889285Y-88761785D01*
X136889285Y-88011785D02*
X136139285Y-88011785D01*
X136139285Y-87511785D02*
X136139285Y-87368928D01*
X136175000Y-87297500D01*
X136246428Y-87226071D01*
X136389285Y-87190357D01*
X136639285Y-87190357D01*
X136782142Y-87226071D01*
X136853571Y-87297500D01*
X136889285Y-87368928D01*
X136889285Y-87511785D01*
X136853571Y-87583214D01*
X136782142Y-87654642D01*
X136639285Y-87690357D01*
X136389285Y-87690357D01*
X136246428Y-87654642D01*
X136175000Y-87583214D01*
X136139285Y-87511785D01*
X130327500Y-89868928D02*
X130327500Y-89083214D01*
X131289285Y-89690357D02*
X130539285Y-89690357D01*
X131289285Y-89261785D01*
X130539285Y-89261785D01*
X130327500Y-89083214D02*
X130327500Y-88333214D01*
X131289285Y-88476071D02*
X130932142Y-88726071D01*
X131289285Y-88904642D02*
X130539285Y-88904642D01*
X130539285Y-88618928D01*
X130575000Y-88547500D01*
X130610714Y-88511785D01*
X130682142Y-88476071D01*
X130789285Y-88476071D01*
X130860714Y-88511785D01*
X130896428Y-88547500D01*
X130932142Y-88618928D01*
X130932142Y-88904642D01*
X130327500Y-88333214D02*
X130327500Y-87618928D01*
X131253571Y-88190357D02*
X131289285Y-88083214D01*
X131289285Y-87904642D01*
X131253571Y-87833214D01*
X131217857Y-87797500D01*
X131146428Y-87761785D01*
X131075000Y-87761785D01*
X131003571Y-87797500D01*
X130967857Y-87833214D01*
X130932142Y-87904642D01*
X130896428Y-88047500D01*
X130860714Y-88118928D01*
X130825000Y-88154642D01*
X130753571Y-88190357D01*
X130682142Y-88190357D01*
X130610714Y-88154642D01*
X130575000Y-88118928D01*
X130539285Y-88047500D01*
X130539285Y-87868928D01*
X130575000Y-87761785D01*
X130327500Y-87618928D02*
X130327500Y-87047500D01*
X130539285Y-87547500D02*
X130539285Y-87118928D01*
X131289285Y-87333214D02*
X130539285Y-87333214D01*
X130575000Y-85881071D02*
X130539285Y-85952500D01*
X130539285Y-86059642D01*
X130575000Y-86166785D01*
X130646428Y-86238214D01*
X130717857Y-86273928D01*
X130860714Y-86309642D01*
X130967857Y-86309642D01*
X131110714Y-86273928D01*
X131182142Y-86238214D01*
X131253571Y-86166785D01*
X131289285Y-86059642D01*
X131289285Y-85988214D01*
X131253571Y-85881071D01*
X131217857Y-85845357D01*
X130967857Y-85845357D01*
X130967857Y-85988214D01*
X131289285Y-85523928D02*
X130539285Y-85523928D01*
X131289285Y-85095357D01*
X130539285Y-85095357D01*
X131289285Y-84738214D02*
X130539285Y-84738214D01*
X130539285Y-84559642D01*
X130575000Y-84452500D01*
X130646428Y-84381071D01*
X130717857Y-84345357D01*
X130860714Y-84309642D01*
X130967857Y-84309642D01*
X131110714Y-84345357D01*
X131182142Y-84381071D01*
X131253571Y-84452500D01*
X131289285Y-84559642D01*
X131289285Y-84738214D01*
%TO.C,C31*%
X143607142Y-85107142D02*
X143559523Y-85154761D01*
X143416666Y-85202380D01*
X143321428Y-85202380D01*
X143178571Y-85154761D01*
X143083333Y-85059523D01*
X143035714Y-84964285D01*
X142988095Y-84773809D01*
X142988095Y-84630952D01*
X143035714Y-84440476D01*
X143083333Y-84345238D01*
X143178571Y-84250000D01*
X143321428Y-84202380D01*
X143416666Y-84202380D01*
X143559523Y-84250000D01*
X143607142Y-84297619D01*
X143940476Y-84202380D02*
X144559523Y-84202380D01*
X144226190Y-84583333D01*
X144369047Y-84583333D01*
X144464285Y-84630952D01*
X144511904Y-84678571D01*
X144559523Y-84773809D01*
X144559523Y-85011904D01*
X144511904Y-85107142D01*
X144464285Y-85154761D01*
X144369047Y-85202380D01*
X144083333Y-85202380D01*
X143988095Y-85154761D01*
X143940476Y-85107142D01*
X145511904Y-85202380D02*
X144940476Y-85202380D01*
X145226190Y-85202380D02*
X145226190Y-84202380D01*
X145130952Y-84345238D01*
X145035714Y-84440476D01*
X144940476Y-84488095D01*
%TO.C,U7*%
X149252380Y-153261904D02*
X150061904Y-153261904D01*
X150157142Y-153214285D01*
X150204761Y-153166666D01*
X150252380Y-153071428D01*
X150252380Y-152880952D01*
X150204761Y-152785714D01*
X150157142Y-152738095D01*
X150061904Y-152690476D01*
X149252380Y-152690476D01*
X149252380Y-152309523D02*
X149252380Y-151642857D01*
X150252380Y-152071428D01*
%TO.C,NE1*%
X108785714Y-125158363D02*
X108785714Y-124158363D01*
X109357142Y-125158363D01*
X109357142Y-124158363D01*
X109833333Y-124634554D02*
X110166666Y-124634554D01*
X110309523Y-125158363D02*
X109833333Y-125158363D01*
X109833333Y-124158363D01*
X110309523Y-124158363D01*
X111261904Y-125158363D02*
X110690476Y-125158363D01*
X110976190Y-125158363D02*
X110976190Y-124158363D01*
X110880952Y-124301221D01*
X110785714Y-124396459D01*
X110690476Y-124444078D01*
%TO.C,V4*%
X142452380Y-128059523D02*
X143452380Y-127726190D01*
X142452380Y-127392857D01*
X142785714Y-126630952D02*
X143452380Y-126630952D01*
X142404761Y-126869047D02*
X143119047Y-127107142D01*
X143119047Y-126488095D01*
%TO.C,U1*%
X74352380Y-89411904D02*
X75161904Y-89411904D01*
X75257142Y-89364285D01*
X75304761Y-89316666D01*
X75352380Y-89221428D01*
X75352380Y-89030952D01*
X75304761Y-88935714D01*
X75257142Y-88888095D01*
X75161904Y-88840476D01*
X74352380Y-88840476D01*
X75352380Y-87840476D02*
X75352380Y-88411904D01*
X75352380Y-88126190D02*
X74352380Y-88126190D01*
X74495238Y-88221428D01*
X74590476Y-88316666D01*
X74638095Y-88411904D01*
%TO.C,R28*%
X138852380Y-90442976D02*
X138376190Y-90776309D01*
X138852380Y-91014404D02*
X137852380Y-91014404D01*
X137852380Y-90633452D01*
X137900000Y-90538214D01*
X137947619Y-90490595D01*
X138042857Y-90442976D01*
X138185714Y-90442976D01*
X138280952Y-90490595D01*
X138328571Y-90538214D01*
X138376190Y-90633452D01*
X138376190Y-91014404D01*
X137947619Y-90062023D02*
X137900000Y-90014404D01*
X137852380Y-89919166D01*
X137852380Y-89681071D01*
X137900000Y-89585833D01*
X137947619Y-89538214D01*
X138042857Y-89490595D01*
X138138095Y-89490595D01*
X138280952Y-89538214D01*
X138852380Y-90109642D01*
X138852380Y-89490595D01*
X138280952Y-88919166D02*
X138233333Y-89014404D01*
X138185714Y-89062023D01*
X138090476Y-89109642D01*
X138042857Y-89109642D01*
X137947619Y-89062023D01*
X137900000Y-89014404D01*
X137852380Y-88919166D01*
X137852380Y-88728690D01*
X137900000Y-88633452D01*
X137947619Y-88585833D01*
X138042857Y-88538214D01*
X138090476Y-88538214D01*
X138185714Y-88585833D01*
X138233333Y-88633452D01*
X138280952Y-88728690D01*
X138280952Y-88919166D01*
X138328571Y-89014404D01*
X138376190Y-89062023D01*
X138471428Y-89109642D01*
X138661904Y-89109642D01*
X138757142Y-89062023D01*
X138804761Y-89014404D01*
X138852380Y-88919166D01*
X138852380Y-88728690D01*
X138804761Y-88633452D01*
X138757142Y-88585833D01*
X138661904Y-88538214D01*
X138471428Y-88538214D01*
X138376190Y-88585833D01*
X138328571Y-88633452D01*
X138280952Y-88728690D01*
%TO.C,D1*%
X104011905Y-91652381D02*
X104011905Y-90652381D01*
X104250001Y-90652381D01*
X104392858Y-90700001D01*
X104488096Y-90795239D01*
X104535715Y-90890477D01*
X104583334Y-91080953D01*
X104583334Y-91223810D01*
X104535715Y-91414286D01*
X104488096Y-91509524D01*
X104392858Y-91604762D01*
X104250001Y-91652381D01*
X104011905Y-91652381D01*
X105535715Y-91652381D02*
X104964286Y-91652381D01*
X105250001Y-91652381D02*
X105250001Y-90652381D01*
X105154762Y-90795239D01*
X105059524Y-90890477D01*
X104964286Y-90938096D01*
%TO.C,R33*%
X115202380Y-83892857D02*
X114726190Y-84226190D01*
X115202380Y-84464285D02*
X114202380Y-84464285D01*
X114202380Y-84083333D01*
X114250000Y-83988095D01*
X114297619Y-83940476D01*
X114392857Y-83892857D01*
X114535714Y-83892857D01*
X114630952Y-83940476D01*
X114678571Y-83988095D01*
X114726190Y-84083333D01*
X114726190Y-84464285D01*
X114202380Y-83559523D02*
X114202380Y-82940476D01*
X114583333Y-83273809D01*
X114583333Y-83130952D01*
X114630952Y-83035714D01*
X114678571Y-82988095D01*
X114773809Y-82940476D01*
X115011904Y-82940476D01*
X115107142Y-82988095D01*
X115154761Y-83035714D01*
X115202380Y-83130952D01*
X115202380Y-83416666D01*
X115154761Y-83511904D01*
X115107142Y-83559523D01*
X114202380Y-82607142D02*
X114202380Y-81988095D01*
X114583333Y-82321428D01*
X114583333Y-82178571D01*
X114630952Y-82083333D01*
X114678571Y-82035714D01*
X114773809Y-81988095D01*
X115011904Y-81988095D01*
X115107142Y-82035714D01*
X115154761Y-82083333D01*
X115202380Y-82178571D01*
X115202380Y-82464285D01*
X115154761Y-82559523D01*
X115107142Y-82607142D01*
%TO.C,C14*%
X106657023Y-74919460D02*
X106609404Y-74967079D01*
X106466547Y-75014698D01*
X106371309Y-75014698D01*
X106228452Y-74967079D01*
X106133214Y-74871841D01*
X106085595Y-74776603D01*
X106037976Y-74586127D01*
X106037976Y-74443270D01*
X106085595Y-74252794D01*
X106133214Y-74157556D01*
X106228452Y-74062318D01*
X106371309Y-74014698D01*
X106466547Y-74014698D01*
X106609404Y-74062318D01*
X106657023Y-74109937D01*
X107609404Y-75014698D02*
X107037976Y-75014698D01*
X107323690Y-75014698D02*
X107323690Y-74014698D01*
X107228452Y-74157556D01*
X107133214Y-74252794D01*
X107037976Y-74300413D01*
X108466547Y-74348032D02*
X108466547Y-75014698D01*
X108228452Y-73967079D02*
X107990357Y-74681365D01*
X108609404Y-74681365D01*
%TO.C,V3*%
X122452380Y-128059523D02*
X123452380Y-127726190D01*
X122452380Y-127392857D01*
X122452380Y-127154761D02*
X122452380Y-126535714D01*
X122833333Y-126869047D01*
X122833333Y-126726190D01*
X122880952Y-126630952D01*
X122928571Y-126583333D01*
X123023809Y-126535714D01*
X123261904Y-126535714D01*
X123357142Y-126583333D01*
X123404761Y-126630952D01*
X123452380Y-126726190D01*
X123452380Y-127011904D01*
X123404761Y-127107142D01*
X123357142Y-127154761D01*
%TO.C,R7*%
X65259642Y-87602380D02*
X64926309Y-87126190D01*
X64688214Y-87602380D02*
X64688214Y-86602380D01*
X65069166Y-86602380D01*
X65164404Y-86650000D01*
X65212023Y-86697619D01*
X65259642Y-86792857D01*
X65259642Y-86935714D01*
X65212023Y-87030952D01*
X65164404Y-87078571D01*
X65069166Y-87126190D01*
X64688214Y-87126190D01*
X65592976Y-86602380D02*
X66259642Y-86602380D01*
X65831071Y-87602380D01*
%TO.C,U2*%
X106488095Y-75702380D02*
X106488095Y-76511904D01*
X106535714Y-76607142D01*
X106583333Y-76654761D01*
X106678571Y-76702380D01*
X106869047Y-76702380D01*
X106964285Y-76654761D01*
X107011904Y-76607142D01*
X107059523Y-76511904D01*
X107059523Y-75702380D01*
X107488095Y-75797619D02*
X107535714Y-75750000D01*
X107630952Y-75702380D01*
X107869047Y-75702380D01*
X107964285Y-75750000D01*
X108011904Y-75797619D01*
X108059523Y-75892857D01*
X108059523Y-75988095D01*
X108011904Y-76130952D01*
X107440476Y-76702380D01*
X108059523Y-76702380D01*
%TO.C,C10*%
X64307261Y-86007142D02*
X64259642Y-86054761D01*
X64116785Y-86102380D01*
X64021547Y-86102380D01*
X63878690Y-86054761D01*
X63783452Y-85959523D01*
X63735833Y-85864285D01*
X63688214Y-85673809D01*
X63688214Y-85530952D01*
X63735833Y-85340476D01*
X63783452Y-85245238D01*
X63878690Y-85150000D01*
X64021547Y-85102380D01*
X64116785Y-85102380D01*
X64259642Y-85150000D01*
X64307261Y-85197619D01*
X65259642Y-86102380D02*
X64688214Y-86102380D01*
X64973928Y-86102380D02*
X64973928Y-85102380D01*
X64878690Y-85245238D01*
X64783452Y-85340476D01*
X64688214Y-85388095D01*
X65878690Y-85102380D02*
X65973928Y-85102380D01*
X66069166Y-85150000D01*
X66116785Y-85197619D01*
X66164404Y-85292857D01*
X66212023Y-85483333D01*
X66212023Y-85721428D01*
X66164404Y-85911904D01*
X66116785Y-86007142D01*
X66069166Y-86054761D01*
X65973928Y-86102380D01*
X65878690Y-86102380D01*
X65783452Y-86054761D01*
X65735833Y-86007142D01*
X65688214Y-85911904D01*
X65640595Y-85721428D01*
X65640595Y-85483333D01*
X65688214Y-85292857D01*
X65735833Y-85197619D01*
X65783452Y-85150000D01*
X65878690Y-85102380D01*
%TO.C,C22*%
X151657023Y-100757142D02*
X151609404Y-100804761D01*
X151466547Y-100852380D01*
X151371309Y-100852380D01*
X151228452Y-100804761D01*
X151133214Y-100709523D01*
X151085595Y-100614285D01*
X151037976Y-100423809D01*
X151037976Y-100280952D01*
X151085595Y-100090476D01*
X151133214Y-99995238D01*
X151228452Y-99900000D01*
X151371309Y-99852380D01*
X151466547Y-99852380D01*
X151609404Y-99900000D01*
X151657023Y-99947619D01*
X152037976Y-99947619D02*
X152085595Y-99900000D01*
X152180833Y-99852380D01*
X152418928Y-99852380D01*
X152514166Y-99900000D01*
X152561785Y-99947619D01*
X152609404Y-100042857D01*
X152609404Y-100138095D01*
X152561785Y-100280952D01*
X151990357Y-100852380D01*
X152609404Y-100852380D01*
X152990357Y-99947619D02*
X153037976Y-99900000D01*
X153133214Y-99852380D01*
X153371309Y-99852380D01*
X153466547Y-99900000D01*
X153514166Y-99947619D01*
X153561785Y-100042857D01*
X153561785Y-100138095D01*
X153514166Y-100280952D01*
X152942738Y-100852380D01*
X153561785Y-100852380D01*
%TO.C,C13*%
X98357142Y-76542976D02*
X98404761Y-76590595D01*
X98452380Y-76733452D01*
X98452380Y-76828690D01*
X98404761Y-76971547D01*
X98309523Y-77066785D01*
X98214285Y-77114404D01*
X98023809Y-77162023D01*
X97880952Y-77162023D01*
X97690476Y-77114404D01*
X97595238Y-77066785D01*
X97500000Y-76971547D01*
X97452380Y-76828690D01*
X97452380Y-76733452D01*
X97500000Y-76590595D01*
X97547619Y-76542976D01*
X98452380Y-75590595D02*
X98452380Y-76162023D01*
X98452380Y-75876309D02*
X97452380Y-75876309D01*
X97595238Y-75971547D01*
X97690476Y-76066785D01*
X97738095Y-76162023D01*
X97452380Y-75257261D02*
X97452380Y-74638214D01*
X97833333Y-74971547D01*
X97833333Y-74828690D01*
X97880952Y-74733452D01*
X97928571Y-74685833D01*
X98023809Y-74638214D01*
X98261904Y-74638214D01*
X98357142Y-74685833D01*
X98404761Y-74733452D01*
X98452380Y-74828690D01*
X98452380Y-75114404D01*
X98404761Y-75209642D01*
X98357142Y-75257261D01*
%TO.C,R2*%
X103833333Y-89452380D02*
X103500000Y-88976190D01*
X103261904Y-89452380D02*
X103261904Y-88452380D01*
X103642857Y-88452380D01*
X103738095Y-88500000D01*
X103785714Y-88547619D01*
X103833333Y-88642857D01*
X103833333Y-88785714D01*
X103785714Y-88880952D01*
X103738095Y-88928571D01*
X103642857Y-88976190D01*
X103261904Y-88976190D01*
X104214285Y-88547619D02*
X104261904Y-88500000D01*
X104357142Y-88452380D01*
X104595238Y-88452380D01*
X104690476Y-88500000D01*
X104738095Y-88547619D01*
X104785714Y-88642857D01*
X104785714Y-88738095D01*
X104738095Y-88880952D01*
X104166666Y-89452380D01*
X104785714Y-89452380D01*
%TO.C,F1*%
X87931666Y-76428571D02*
X87598333Y-76428571D01*
X87598333Y-76952380D02*
X87598333Y-75952380D01*
X88074523Y-75952380D01*
X88979285Y-76952380D02*
X88407857Y-76952380D01*
X88693571Y-76952380D02*
X88693571Y-75952380D01*
X88598333Y-76095238D01*
X88503095Y-76190476D01*
X88407857Y-76238095D01*
%TO.C,C17*%
X117357142Y-149542857D02*
X117404761Y-149590476D01*
X117452380Y-149733333D01*
X117452380Y-149828571D01*
X117404761Y-149971428D01*
X117309523Y-150066666D01*
X117214285Y-150114285D01*
X117023809Y-150161904D01*
X116880952Y-150161904D01*
X116690476Y-150114285D01*
X116595238Y-150066666D01*
X116500000Y-149971428D01*
X116452380Y-149828571D01*
X116452380Y-149733333D01*
X116500000Y-149590476D01*
X116547619Y-149542857D01*
X117452380Y-148590476D02*
X117452380Y-149161904D01*
X117452380Y-148876190D02*
X116452380Y-148876190D01*
X116595238Y-148971428D01*
X116690476Y-149066666D01*
X116738095Y-149161904D01*
X116452380Y-148257142D02*
X116452380Y-147590476D01*
X117452380Y-148019047D01*
%TO.C,R22*%
X96952380Y-112142976D02*
X96476190Y-112476309D01*
X96952380Y-112714404D02*
X95952380Y-112714404D01*
X95952380Y-112333452D01*
X96000000Y-112238214D01*
X96047619Y-112190595D01*
X96142857Y-112142976D01*
X96285714Y-112142976D01*
X96380952Y-112190595D01*
X96428571Y-112238214D01*
X96476190Y-112333452D01*
X96476190Y-112714404D01*
X96047619Y-111762023D02*
X96000000Y-111714404D01*
X95952380Y-111619166D01*
X95952380Y-111381071D01*
X96000000Y-111285833D01*
X96047619Y-111238214D01*
X96142857Y-111190595D01*
X96238095Y-111190595D01*
X96380952Y-111238214D01*
X96952380Y-111809642D01*
X96952380Y-111190595D01*
X96047619Y-110809642D02*
X96000000Y-110762023D01*
X95952380Y-110666785D01*
X95952380Y-110428690D01*
X96000000Y-110333452D01*
X96047619Y-110285833D01*
X96142857Y-110238214D01*
X96238095Y-110238214D01*
X96380952Y-110285833D01*
X96952380Y-110857261D01*
X96952380Y-110238214D01*
%TO.C,NE2*%
X108785714Y-130152380D02*
X108785714Y-129152380D01*
X109357142Y-130152380D01*
X109357142Y-129152380D01*
X109833333Y-129628571D02*
X110166666Y-129628571D01*
X110309523Y-130152380D02*
X109833333Y-130152380D01*
X109833333Y-129152380D01*
X110309523Y-129152380D01*
X110690476Y-129247619D02*
X110738095Y-129200000D01*
X110833333Y-129152380D01*
X111071428Y-129152380D01*
X111166666Y-129200000D01*
X111214285Y-129247619D01*
X111261904Y-129342857D01*
X111261904Y-129438095D01*
X111214285Y-129580952D01*
X110642857Y-130152380D01*
X111261904Y-130152380D01*
%TO.C,R6*%
X64132381Y-91866667D02*
X63656191Y-92200001D01*
X64132381Y-92438096D02*
X63132381Y-92438096D01*
X63132381Y-92057143D01*
X63180001Y-91961905D01*
X63227620Y-91914286D01*
X63322858Y-91866667D01*
X63465715Y-91866667D01*
X63560953Y-91914286D01*
X63608572Y-91961905D01*
X63656191Y-92057143D01*
X63656191Y-92438096D01*
X63132381Y-91009524D02*
X63132381Y-91200001D01*
X63180001Y-91295239D01*
X63227620Y-91342858D01*
X63370477Y-91438096D01*
X63560953Y-91485715D01*
X63941905Y-91485715D01*
X64037143Y-91438096D01*
X64084762Y-91390477D01*
X64132381Y-91295239D01*
X64132381Y-91104762D01*
X64084762Y-91009524D01*
X64037143Y-90961905D01*
X63941905Y-90914286D01*
X63703810Y-90914286D01*
X63608572Y-90961905D01*
X63560953Y-91009524D01*
X63513334Y-91104762D01*
X63513334Y-91295239D01*
X63560953Y-91390477D01*
X63608572Y-91438096D01*
X63703810Y-91485715D01*
%TO.C,R20*%
X149107142Y-81952380D02*
X148773809Y-81476190D01*
X148535714Y-81952380D02*
X148535714Y-80952380D01*
X148916666Y-80952380D01*
X149011904Y-81000000D01*
X149059523Y-81047619D01*
X149107142Y-81142857D01*
X149107142Y-81285714D01*
X149059523Y-81380952D01*
X149011904Y-81428571D01*
X148916666Y-81476190D01*
X148535714Y-81476190D01*
X149488095Y-81047619D02*
X149535714Y-81000000D01*
X149630952Y-80952380D01*
X149869047Y-80952380D01*
X149964285Y-81000000D01*
X150011904Y-81047619D01*
X150059523Y-81142857D01*
X150059523Y-81238095D01*
X150011904Y-81380952D01*
X149440476Y-81952380D01*
X150059523Y-81952380D01*
X150678571Y-80952380D02*
X150773809Y-80952380D01*
X150869047Y-81000000D01*
X150916666Y-81047619D01*
X150964285Y-81142857D01*
X151011904Y-81333333D01*
X151011904Y-81571428D01*
X150964285Y-81761904D01*
X150916666Y-81857142D01*
X150869047Y-81904761D01*
X150773809Y-81952380D01*
X150678571Y-81952380D01*
X150583333Y-81904761D01*
X150535714Y-81857142D01*
X150488095Y-81761904D01*
X150440476Y-81571428D01*
X150440476Y-81333333D01*
X150488095Y-81142857D01*
X150535714Y-81047619D01*
X150583333Y-81000000D01*
X150678571Y-80952380D01*
D14*
%TO.C,Q41*%
X153080000Y-116510000D02*
X153080000Y-114350000D01*
X149920000Y-116510000D02*
X149920000Y-115050000D01*
X153080000Y-116510000D02*
X152150000Y-116510000D01*
X149920000Y-116510000D02*
X150850000Y-116510000D01*
%TO.C,R45*%
X92671267Y-112690000D02*
X92328733Y-112690000D01*
X92671267Y-113710000D02*
X92328733Y-113710000D01*
%TO.C,R53*%
X88328733Y-139810000D02*
X88671267Y-139810000D01*
X88328733Y-138790000D02*
X88671267Y-138790000D01*
%TO.C,Q32*%
X129920000Y-135940000D02*
X129920000Y-138100000D01*
X133080000Y-135940000D02*
X132150000Y-135940000D01*
X129920000Y-135940000D02*
X130850000Y-135940000D01*
X133080000Y-135940000D02*
X133080000Y-137400000D01*
%TO.C,R71*%
X141328733Y-146810000D02*
X141671267Y-146810000D01*
X141328733Y-145790000D02*
X141671267Y-145790000D01*
%TO.C,Y1*%
X139150000Y-105000000D02*
X139150000Y-108700000D01*
X139150000Y-108700000D02*
X144450000Y-108700000D01*
%TO.C,U6*%
X121740000Y-151965000D02*
X122020000Y-151965000D01*
X131980000Y-151965000D02*
X131980000Y-150300000D01*
X132260000Y-156735000D02*
X131980000Y-156735000D01*
X132260000Y-151965000D02*
X131980000Y-151965000D01*
X121740000Y-154350000D02*
X121740000Y-151965000D01*
X132260000Y-154350000D02*
X132260000Y-151965000D01*
X121740000Y-156735000D02*
X122020000Y-156735000D01*
X132260000Y-154350000D02*
X132260000Y-156735000D01*
X121740000Y-154350000D02*
X121740000Y-156735000D01*
X133400000Y-150950000D02*
G75*
G03*
X133400000Y-150950000I-400000J0D01*
G01*
%TO.C,Q16*%
X74080000Y-138940000D02*
X74080000Y-140400000D01*
X70920000Y-138940000D02*
X71850000Y-138940000D01*
X70920000Y-138940000D02*
X70920000Y-141100000D01*
X74080000Y-138940000D02*
X73150000Y-138940000D01*
%TO.C,R59*%
X129128733Y-141790000D02*
X129471267Y-141790000D01*
X129128733Y-142810000D02*
X129471267Y-142810000D01*
%TO.C,C4*%
X86558800Y-86809664D02*
X86558800Y-85605536D01*
X84738800Y-86809664D02*
X84738800Y-85605536D01*
%TO.C,R74*%
X135671267Y-112690000D02*
X135328733Y-112690000D01*
X135671267Y-113710000D02*
X135328733Y-113710000D01*
%TO.C,Q36*%
X117920000Y-138940000D02*
X117920000Y-141100000D01*
X121080000Y-138940000D02*
X120150000Y-138940000D01*
X117920000Y-138940000D02*
X118850000Y-138940000D01*
X121080000Y-138940000D02*
X121080000Y-140400000D01*
%TO.C,Q38*%
X113920000Y-116510000D02*
X114850000Y-116510000D01*
X113920000Y-116510000D02*
X113920000Y-115050000D01*
X117080000Y-116510000D02*
X116150000Y-116510000D01*
X117080000Y-116510000D02*
X117080000Y-114350000D01*
%TO.C,U4*%
X98760000Y-154350000D02*
X98760000Y-156735000D01*
X88240000Y-154350000D02*
X88240000Y-156735000D01*
X88240000Y-151965000D02*
X88520000Y-151965000D01*
X98480000Y-151965000D02*
X98480000Y-150300000D01*
X98760000Y-154350000D02*
X98760000Y-151965000D01*
X98760000Y-151965000D02*
X98480000Y-151965000D01*
X98760000Y-156735000D02*
X98480000Y-156735000D01*
X88240000Y-154350000D02*
X88240000Y-151965000D01*
X88240000Y-156735000D02*
X88520000Y-156735000D01*
X99900000Y-150950000D02*
G75*
G03*
X99900000Y-150950000I-400000J0D01*
G01*
%TO.C,Q12*%
X86080000Y-135940000D02*
X85150000Y-135940000D01*
X82920000Y-135940000D02*
X82920000Y-138100000D01*
X86080000Y-135940000D02*
X86080000Y-137400000D01*
X82920000Y-135940000D02*
X83850000Y-135940000D01*
%TO.C,C2*%
X81783600Y-86802064D02*
X81783600Y-85597936D01*
X79963600Y-86802064D02*
X79963600Y-85597936D01*
%TO.C,C24*%
X146310000Y-101078733D02*
X146310000Y-101421267D01*
X145290000Y-101078733D02*
X145290000Y-101421267D01*
%TO.C,C30*%
X149578733Y-80510000D02*
X149921267Y-80510000D01*
X149578733Y-79490000D02*
X149921267Y-79490000D01*
%TO.C,R57*%
X131671267Y-113710000D02*
X131328733Y-113710000D01*
X131671267Y-112690000D02*
X131328733Y-112690000D01*
%TO.C,C6*%
X106102064Y-100610000D02*
X104897936Y-100610000D01*
X106102064Y-98790000D02*
X104897936Y-98790000D01*
%TO.C,C16*%
X100560000Y-156746267D02*
X100560000Y-156403733D01*
X99540000Y-156746267D02*
X99540000Y-156403733D01*
%TO.C,C29*%
X155078733Y-82740000D02*
X155421267Y-82740000D01*
X155078733Y-83760000D02*
X155421267Y-83760000D01*
%TO.C,C25*%
X140671267Y-104560000D02*
X140328733Y-104560000D01*
X140671267Y-103540000D02*
X140328733Y-103540000D01*
%TO.C,R69*%
X149128733Y-142810000D02*
X149471267Y-142810000D01*
X149128733Y-141790000D02*
X149471267Y-141790000D01*
%TO.C,Q44*%
X147080000Y-142940000D02*
X147080000Y-144400000D01*
X143920000Y-142940000D02*
X143920000Y-145100000D01*
X143920000Y-142940000D02*
X144850000Y-142940000D01*
X147080000Y-142940000D02*
X146150000Y-142940000D01*
%TO.C,G1*%
G36*
X115936720Y-102400532D02*
G01*
X115965561Y-102408358D01*
X116008963Y-102420820D01*
X116063588Y-102436957D01*
X116126099Y-102455812D01*
X116128123Y-102456429D01*
X116204642Y-102479688D01*
X116286497Y-102504482D01*
X116366331Y-102528589D01*
X116436787Y-102549784D01*
X116472222Y-102560396D01*
X116545302Y-102582310D01*
X116637806Y-102610192D01*
X116747914Y-102643491D01*
X116873804Y-102681653D01*
X117013656Y-102724128D01*
X117165651Y-102770362D01*
X117327967Y-102819805D01*
X117372222Y-102833296D01*
X117451419Y-102857393D01*
X117531948Y-102881805D01*
X117608502Y-102904928D01*
X117675773Y-102925162D01*
X117728452Y-102940903D01*
X117738889Y-102943998D01*
X117788902Y-102958905D01*
X117854340Y-102978565D01*
X117929382Y-103001222D01*
X118008204Y-103025117D01*
X118084737Y-103048417D01*
X118152004Y-103068775D01*
X118212348Y-103086713D01*
X118262442Y-103101267D01*
X118298958Y-103111476D01*
X118318568Y-103116376D01*
X118320657Y-103116667D01*
X118325004Y-103108001D01*
X118328597Y-103081362D01*
X118331489Y-103035793D01*
X118333734Y-102970333D01*
X118335385Y-102884025D01*
X118335920Y-102840682D01*
X118338889Y-102564697D01*
X118483333Y-102666416D01*
X118522647Y-102694093D01*
X118577530Y-102732719D01*
X118645374Y-102780460D01*
X118723570Y-102835479D01*
X118809511Y-102895943D01*
X118900589Y-102960016D01*
X118994196Y-103025863D01*
X119066667Y-103076838D01*
X119154406Y-103138590D01*
X119236635Y-103196538D01*
X119311557Y-103249410D01*
X119377376Y-103295935D01*
X119432295Y-103334842D01*
X119474519Y-103364861D01*
X119502250Y-103384719D01*
X119513693Y-103393146D01*
X119513815Y-103393253D01*
X119507351Y-103400250D01*
X119483871Y-103414051D01*
X119446840Y-103432825D01*
X119399716Y-103454743D01*
X119386038Y-103460819D01*
X119287946Y-103504002D01*
X119184595Y-103549543D01*
X119078562Y-103596303D01*
X118972421Y-103643145D01*
X118868750Y-103688929D01*
X118770124Y-103732517D01*
X118679119Y-103772771D01*
X118598310Y-103808552D01*
X118530275Y-103838722D01*
X118477589Y-103862143D01*
X118444444Y-103876949D01*
X118338889Y-103924343D01*
X118335873Y-103701378D01*
X118334568Y-103633100D01*
X118332685Y-103572495D01*
X118330391Y-103523041D01*
X118327853Y-103488214D01*
X118325240Y-103471490D01*
X118324762Y-103470659D01*
X118311129Y-103466108D01*
X118280167Y-103459571D01*
X118236580Y-103451946D01*
X118188889Y-103444675D01*
X118144782Y-103438221D01*
X118082816Y-103428923D01*
X118007083Y-103417408D01*
X117921673Y-103404300D01*
X117830678Y-103390225D01*
X117738187Y-103375811D01*
X117716667Y-103372440D01*
X117541327Y-103345056D01*
X117387624Y-103321284D01*
X117255276Y-103301083D01*
X117143999Y-103284412D01*
X117053511Y-103271230D01*
X116983529Y-103261494D01*
X116933771Y-103255164D01*
X116903953Y-103252199D01*
X116893871Y-103252426D01*
X116898066Y-103262835D01*
X116911782Y-103291343D01*
X116934211Y-103336374D01*
X116964546Y-103396349D01*
X117001980Y-103469691D01*
X117045705Y-103554824D01*
X117094914Y-103650169D01*
X117148800Y-103754149D01*
X117206556Y-103865188D01*
X117254180Y-103956463D01*
X117314341Y-104071873D01*
X117371181Y-104181428D01*
X117423904Y-104283555D01*
X117471709Y-104376684D01*
X117513798Y-104459243D01*
X117549373Y-104529660D01*
X117577636Y-104586365D01*
X117597787Y-104627785D01*
X117609028Y-104652349D01*
X117611083Y-104658805D01*
X117598775Y-104656592D01*
X117567725Y-104648809D01*
X117520509Y-104636163D01*
X117459703Y-104619363D01*
X117387883Y-104599118D01*
X117307623Y-104576135D01*
X117254143Y-104560644D01*
X117165442Y-104534843D01*
X117086281Y-104511828D01*
X117013621Y-104490719D01*
X116944427Y-104470636D01*
X116875660Y-104450700D01*
X116804283Y-104430032D01*
X116727260Y-104407752D01*
X116641552Y-104382982D01*
X116544122Y-104354840D01*
X116431933Y-104322449D01*
X116301948Y-104284929D01*
X116277778Y-104277953D01*
X116195399Y-104254158D01*
X116096673Y-104225612D01*
X115986595Y-104193762D01*
X115870158Y-104160051D01*
X115752356Y-104125927D01*
X115638184Y-104092835D01*
X115563369Y-104071137D01*
X115461935Y-104041716D01*
X115359685Y-104012066D01*
X115260346Y-103983267D01*
X115167646Y-103956401D01*
X115085312Y-103932547D01*
X115017073Y-103912786D01*
X114968924Y-103898854D01*
X114903634Y-103879968D01*
X114823453Y-103856764D01*
X114734837Y-103831111D01*
X114644238Y-103804876D01*
X114558110Y-103779929D01*
X114544444Y-103775970D01*
X114468123Y-103753890D01*
X114394072Y-103732525D01*
X114326601Y-103713115D01*
X114270017Y-103696898D01*
X114228628Y-103685113D01*
X114216667Y-103681741D01*
X114163460Y-103666665D01*
X114105621Y-103650028D01*
X114066329Y-103638562D01*
X113993768Y-103617179D01*
X114002571Y-103497479D01*
X114008516Y-103418573D01*
X114015071Y-103334924D01*
X114021982Y-103249436D01*
X114028997Y-103165012D01*
X114035864Y-103084556D01*
X114042331Y-103010971D01*
X114048145Y-102947160D01*
X114053055Y-102896027D01*
X114056807Y-102860475D01*
X114059149Y-102843408D01*
X114059501Y-102842351D01*
X114070864Y-102844351D01*
X114098772Y-102852774D01*
X114138958Y-102866252D01*
X114184524Y-102882455D01*
X114222522Y-102896237D01*
X114267772Y-102912524D01*
X114321903Y-102931896D01*
X114386545Y-102954931D01*
X114463328Y-102982208D01*
X114553881Y-103014306D01*
X114659834Y-103051803D01*
X114782817Y-103095278D01*
X114924459Y-103145310D01*
X114988889Y-103168059D01*
X115132213Y-103218743D01*
X115287892Y-103273960D01*
X115458961Y-103334789D01*
X115611111Y-103388992D01*
X115668762Y-103409511D01*
X115740594Y-103435025D01*
X115819834Y-103463133D01*
X115899709Y-103491430D01*
X115955555Y-103511190D01*
X116164766Y-103585239D01*
X116353305Y-103652124D01*
X116521496Y-103711962D01*
X116610761Y-103743809D01*
X116662081Y-103761912D01*
X116705171Y-103776679D01*
X116736102Y-103786796D01*
X116750945Y-103790949D01*
X116751664Y-103790929D01*
X116746489Y-103781258D01*
X116730771Y-103754034D01*
X116705401Y-103710758D01*
X116671271Y-103652932D01*
X116629270Y-103582057D01*
X116580290Y-103499635D01*
X116525223Y-103407167D01*
X116464959Y-103306156D01*
X116400389Y-103198102D01*
X116338555Y-103094778D01*
X116270841Y-102981609D01*
X116206630Y-102874105D01*
X116146810Y-102773770D01*
X116092274Y-102682105D01*
X116043911Y-102600614D01*
X116002612Y-102530798D01*
X115969267Y-102474160D01*
X115944767Y-102432201D01*
X115930001Y-102406426D01*
X115925775Y-102398299D01*
X115936720Y-102400532D01*
G37*
G36*
X119444620Y-108059433D02*
G01*
X119376489Y-108020843D01*
X119296706Y-107975357D01*
X119204100Y-107922324D01*
X119097500Y-107861096D01*
X118975736Y-107791020D01*
X118837636Y-107711448D01*
X118682030Y-107621728D01*
X118600000Y-107574419D01*
X118517555Y-107526870D01*
X118444988Y-107485024D01*
X118378636Y-107446768D01*
X118314835Y-107409994D01*
X118249923Y-107372589D01*
X118180237Y-107332444D01*
X118102115Y-107287447D01*
X118011894Y-107235488D01*
X117911111Y-107177452D01*
X117823300Y-107126887D01*
X117730170Y-107073258D01*
X117636599Y-107019376D01*
X117547468Y-106968051D01*
X117467657Y-106922093D01*
X117402047Y-106884312D01*
X117400000Y-106883133D01*
X117338674Y-106847821D01*
X117262350Y-106803875D01*
X117175288Y-106753749D01*
X117081749Y-106699897D01*
X116985995Y-106644770D01*
X116892286Y-106590822D01*
X116850000Y-106566479D01*
X116688448Y-106473471D01*
X116538371Y-106387053D01*
X116394102Y-106303962D01*
X116249978Y-106220935D01*
X116100334Y-106134709D01*
X115939505Y-106042020D01*
X115866667Y-106000037D01*
X115663598Y-105882992D01*
X115478536Y-105776330D01*
X115310236Y-105679337D01*
X115157452Y-105591294D01*
X115018940Y-105511484D01*
X114893456Y-105439192D01*
X114779754Y-105373699D01*
X114676591Y-105314289D01*
X114582721Y-105260246D01*
X114496900Y-105210851D01*
X114417883Y-105165389D01*
X114344426Y-105123142D01*
X114275284Y-105083393D01*
X114255555Y-105072055D01*
X114164451Y-105019674D01*
X114062392Y-104960954D01*
X113955947Y-104899676D01*
X113851682Y-104839621D01*
X113756164Y-104784569D01*
X113705555Y-104755381D01*
X113617135Y-104704386D01*
X113518057Y-104647275D01*
X113415054Y-104587925D01*
X113314856Y-104530216D01*
X113224195Y-104478024D01*
X113188889Y-104457709D01*
X113107789Y-104411032D01*
X113020656Y-104360849D01*
X112933218Y-104310460D01*
X112851206Y-104263168D01*
X112780350Y-104222277D01*
X112755555Y-104207956D01*
X112700189Y-104175972D01*
X112647648Y-104145636D01*
X112595269Y-104115415D01*
X112540390Y-104083774D01*
X112480350Y-104049180D01*
X112412485Y-104010100D01*
X112334133Y-103964998D01*
X112242633Y-103912342D01*
X112135322Y-103850597D01*
X112100000Y-103830276D01*
X112037481Y-103794038D01*
X111977085Y-103758546D01*
X111923254Y-103726444D01*
X111880428Y-103700379D01*
X111855555Y-103684656D01*
X111786190Y-103631934D01*
X111720572Y-103568911D01*
X111664216Y-103501532D01*
X111622633Y-103435742D01*
X111620103Y-103430714D01*
X111602998Y-103394289D01*
X111592210Y-103364426D01*
X111586297Y-103333834D01*
X111583819Y-103295223D01*
X111583346Y-103246019D01*
X112679261Y-103246019D01*
X112689851Y-103310278D01*
X112699117Y-103333334D01*
X112712902Y-103360271D01*
X112728693Y-103384565D01*
X112748702Y-103407896D01*
X112775143Y-103431943D01*
X112810228Y-103458385D01*
X112856169Y-103488903D01*
X112915179Y-103525176D01*
X112989472Y-103568883D01*
X113072222Y-103616531D01*
X113144407Y-103657898D01*
X113221185Y-103701962D01*
X113296376Y-103745173D01*
X113363802Y-103783979D01*
X113411111Y-103811264D01*
X113468346Y-103844294D01*
X113538245Y-103884587D01*
X113614200Y-103928337D01*
X113689604Y-103971738D01*
X113738889Y-104000083D01*
X113810550Y-104041311D01*
X113888007Y-104085922D01*
X113964460Y-104129997D01*
X114033112Y-104169616D01*
X114072222Y-104192217D01*
X114127773Y-104224301D01*
X114196831Y-104264119D01*
X114273627Y-104308350D01*
X114352391Y-104353669D01*
X114427356Y-104396755D01*
X114433333Y-104400188D01*
X114507975Y-104443073D01*
X114587156Y-104488598D01*
X114665035Y-104533400D01*
X114735768Y-104574119D01*
X114793516Y-104607395D01*
X114797222Y-104609533D01*
X114865022Y-104648627D01*
X114941668Y-104692803D01*
X115017885Y-104736718D01*
X115084400Y-104775028D01*
X115086111Y-104776013D01*
X115145224Y-104810061D01*
X115216642Y-104851214D01*
X115293424Y-104895471D01*
X115368627Y-104938831D01*
X115411111Y-104963334D01*
X115482211Y-105004335D01*
X115559465Y-105048867D01*
X115635829Y-105092871D01*
X115704259Y-105132286D01*
X115738889Y-105152223D01*
X115799082Y-105186882D01*
X115871479Y-105228589D01*
X115949034Y-105273285D01*
X116024705Y-105316911D01*
X116066667Y-105341112D01*
X116181948Y-105407605D01*
X116280897Y-105464668D01*
X116366424Y-105513975D01*
X116441443Y-105557206D01*
X116508866Y-105596038D01*
X116571605Y-105632147D01*
X116632573Y-105667211D01*
X116694683Y-105702908D01*
X116760848Y-105740916D01*
X116766667Y-105744257D01*
X116841045Y-105787001D01*
X116919711Y-105832258D01*
X116996896Y-105876705D01*
X117066831Y-105917021D01*
X117123747Y-105949882D01*
X117127778Y-105952212D01*
X117182030Y-105983541D01*
X117250109Y-106022793D01*
X117326570Y-106066831D01*
X117405966Y-106112518D01*
X117482849Y-106156717D01*
X117500000Y-106166571D01*
X117580516Y-106212853D01*
X117673281Y-106266230D01*
X117771306Y-106322676D01*
X117867599Y-106378167D01*
X117955171Y-106428677D01*
X117972222Y-106438518D01*
X118048896Y-106482762D01*
X118139304Y-106534905D01*
X118237921Y-106591760D01*
X118339220Y-106650142D01*
X118437675Y-106706865D01*
X118522222Y-106755556D01*
X118613412Y-106808082D01*
X118712957Y-106865460D01*
X118815245Y-106924452D01*
X118914665Y-106981821D01*
X119005605Y-107034330D01*
X119077060Y-107075623D01*
X119172209Y-107130410D01*
X119250578Y-107174856D01*
X119314464Y-107210020D01*
X119366162Y-107236964D01*
X119407968Y-107256745D01*
X119442177Y-107270424D01*
X119471085Y-107279061D01*
X119496988Y-107283714D01*
X119522182Y-107285445D01*
X119531873Y-107285556D01*
X119602379Y-107276177D01*
X119660928Y-107248074D01*
X119707453Y-107201298D01*
X119741884Y-107135902D01*
X119745619Y-107125600D01*
X119747464Y-107119714D01*
X119749192Y-107112592D01*
X119750809Y-107103533D01*
X119752316Y-107091837D01*
X119753717Y-107076803D01*
X119755016Y-107057732D01*
X119756215Y-107033922D01*
X119757318Y-107004674D01*
X119758328Y-106969286D01*
X119759248Y-106927059D01*
X119760081Y-106877291D01*
X119760832Y-106819284D01*
X119761502Y-106752335D01*
X119762095Y-106675746D01*
X119762615Y-106588815D01*
X119763064Y-106490842D01*
X119763446Y-106381127D01*
X119763764Y-106258968D01*
X119764022Y-106123667D01*
X119764222Y-105974522D01*
X119764368Y-105810833D01*
X119764462Y-105631900D01*
X119764509Y-105437022D01*
X119764511Y-105225499D01*
X119764472Y-104996630D01*
X119764395Y-104749715D01*
X119764283Y-104484054D01*
X119764139Y-104198946D01*
X119763967Y-103893691D01*
X119763770Y-103567588D01*
X119763559Y-103233334D01*
X119761111Y-99400000D01*
X119733333Y-99345012D01*
X119708629Y-99305905D01*
X119677725Y-99269557D01*
X119663262Y-99256451D01*
X119635818Y-99237387D01*
X119608164Y-99226320D01*
X119571711Y-99220515D01*
X119544212Y-99218541D01*
X119511097Y-99217854D01*
X119479812Y-99220575D01*
X119447290Y-99227935D01*
X119410465Y-99241167D01*
X119366269Y-99261502D01*
X119311637Y-99290171D01*
X119243501Y-99328407D01*
X119181473Y-99364231D01*
X119127838Y-99395346D01*
X119060327Y-99434391D01*
X118984345Y-99478247D01*
X118905297Y-99523795D01*
X118828589Y-99567915D01*
X118811111Y-99577955D01*
X118732468Y-99623130D01*
X118647095Y-99672196D01*
X118561280Y-99721538D01*
X118481310Y-99767540D01*
X118413474Y-99806587D01*
X118405555Y-99811148D01*
X118344788Y-99846129D01*
X118269947Y-99889185D01*
X118186230Y-99937326D01*
X118098838Y-99987562D01*
X118012968Y-100036904D01*
X117961111Y-100066691D01*
X117878954Y-100113887D01*
X117791940Y-100163892D01*
X117705268Y-100213718D01*
X117624138Y-100260375D01*
X117553747Y-100300875D01*
X117516667Y-100322222D01*
X117450564Y-100360279D01*
X117371577Y-100405738D01*
X117286087Y-100454927D01*
X117200476Y-100504174D01*
X117121126Y-100549806D01*
X117113889Y-100553968D01*
X116885759Y-100685135D01*
X116676559Y-100805422D01*
X116485952Y-100915022D01*
X116313602Y-101014128D01*
X116159172Y-101102934D01*
X116022326Y-101181634D01*
X115902727Y-101250421D01*
X115800039Y-101309488D01*
X115777778Y-101322294D01*
X115512410Y-101474927D01*
X115262912Y-101618375D01*
X115025914Y-101754576D01*
X114855555Y-101852440D01*
X114776196Y-101898030D01*
X114693843Y-101945358D01*
X114613287Y-101991670D01*
X114539317Y-102034212D01*
X114476721Y-102070231D01*
X114444444Y-102088816D01*
X114384973Y-102123062D01*
X114309012Y-102166784D01*
X114219342Y-102218383D01*
X114118739Y-102276261D01*
X114009983Y-102338820D01*
X113895851Y-102404462D01*
X113779122Y-102471590D01*
X113662574Y-102538605D01*
X113548986Y-102603908D01*
X113483333Y-102641648D01*
X113405417Y-102686405D01*
X113315503Y-102738007D01*
X113220885Y-102792272D01*
X113128857Y-102845014D01*
X113046714Y-102892051D01*
X113045740Y-102892609D01*
X112978255Y-102931854D01*
X112914513Y-102970079D01*
X112858012Y-103005098D01*
X112812250Y-103034723D01*
X112780722Y-103056767D01*
X112771671Y-103064015D01*
X112720817Y-103120490D01*
X112689799Y-103181957D01*
X112679261Y-103246019D01*
X111583346Y-103246019D01*
X111583333Y-103244679D01*
X111583980Y-103190921D01*
X111586769Y-103152340D01*
X111592968Y-103121907D01*
X111603850Y-103092594D01*
X111615185Y-103068466D01*
X111648858Y-103013186D01*
X111696314Y-102952973D01*
X111752027Y-102893894D01*
X111810470Y-102842014D01*
X111844097Y-102817169D01*
X111864574Y-102804316D01*
X111902482Y-102781514D01*
X111955966Y-102749846D01*
X112023167Y-102710398D01*
X112102228Y-102664252D01*
X112191291Y-102612493D01*
X112288499Y-102556205D01*
X112391994Y-102496471D01*
X112499919Y-102434375D01*
X112511111Y-102427947D01*
X112625287Y-102362376D01*
X112739887Y-102296555D01*
X112852396Y-102231931D01*
X112960298Y-102169946D01*
X113061080Y-102112047D01*
X113152227Y-102059676D01*
X113231225Y-102014280D01*
X113295559Y-101977303D01*
X113336111Y-101953986D01*
X113424614Y-101903087D01*
X113517965Y-101849403D01*
X113618379Y-101791659D01*
X113728068Y-101728585D01*
X113849245Y-101658907D01*
X113984122Y-101581354D01*
X114134913Y-101494652D01*
X114219444Y-101446048D01*
X114300664Y-101399349D01*
X114393545Y-101345943D01*
X114490484Y-101290203D01*
X114583878Y-101236500D01*
X114663889Y-101190493D01*
X114747186Y-101142595D01*
X114841968Y-101088095D01*
X114940456Y-101031466D01*
X115034868Y-100977180D01*
X115113889Y-100931746D01*
X115192276Y-100886668D01*
X115277553Y-100837614D01*
X115363339Y-100788257D01*
X115443250Y-100742267D01*
X115510906Y-100703318D01*
X115516667Y-100700000D01*
X115615835Y-100642913D01*
X115730972Y-100576671D01*
X115858771Y-100503177D01*
X115995922Y-100424332D01*
X116139120Y-100342037D01*
X116285055Y-100258194D01*
X116430419Y-100174704D01*
X116483333Y-100144320D01*
X116569293Y-100094954D01*
X116663594Y-100040781D01*
X116760123Y-99985313D01*
X116852768Y-99932065D01*
X116935414Y-99884548D01*
X116972222Y-99863379D01*
X117050361Y-99818438D01*
X117135554Y-99769451D01*
X117221322Y-99720142D01*
X117301184Y-99674238D01*
X117368659Y-99635464D01*
X117372222Y-99633416D01*
X117438306Y-99595437D01*
X117517270Y-99550035D01*
X117602736Y-99500878D01*
X117688328Y-99451635D01*
X117767669Y-99405972D01*
X117775000Y-99401751D01*
X118007848Y-99267750D01*
X118245622Y-99130998D01*
X118479768Y-98996414D01*
X118663889Y-98890648D01*
X118725991Y-98854979D01*
X118803381Y-98810521D01*
X118892080Y-98759560D01*
X118988108Y-98704382D01*
X119087487Y-98647274D01*
X119186239Y-98590520D01*
X119263467Y-98546133D01*
X119377855Y-98480830D01*
X119475545Y-98426199D01*
X119558750Y-98381247D01*
X119629684Y-98344978D01*
X119690561Y-98316397D01*
X119743595Y-98294507D01*
X119790999Y-98278315D01*
X119834987Y-98266824D01*
X119877773Y-98259040D01*
X119911111Y-98254964D01*
X120008416Y-98254867D01*
X120101377Y-98273531D01*
X120186270Y-98309635D01*
X120259373Y-98361855D01*
X120285356Y-98387931D01*
X120337533Y-98455706D01*
X120377160Y-98530897D01*
X120407573Y-98620055D01*
X120411838Y-98636177D01*
X120413629Y-98643506D01*
X120415318Y-98651508D01*
X120416907Y-98660829D01*
X120418400Y-98672117D01*
X120419798Y-98686017D01*
X120421105Y-98703178D01*
X120422324Y-98724246D01*
X120423458Y-98749867D01*
X120424509Y-98780689D01*
X120425481Y-98817358D01*
X120426376Y-98860522D01*
X120427198Y-98910826D01*
X120427948Y-98968919D01*
X120428631Y-99035447D01*
X120429248Y-99111057D01*
X120429803Y-99196395D01*
X120430299Y-99292109D01*
X120430738Y-99398845D01*
X120431123Y-99517250D01*
X120431458Y-99647971D01*
X120431745Y-99791656D01*
X120431987Y-99948950D01*
X120432187Y-100120501D01*
X120432348Y-100306955D01*
X120432472Y-100508960D01*
X120432563Y-100727162D01*
X120432623Y-100962209D01*
X120432656Y-101214746D01*
X120432664Y-101485421D01*
X120432650Y-101774881D01*
X120432617Y-102083773D01*
X120432568Y-102412743D01*
X120432505Y-102762438D01*
X120432432Y-103133506D01*
X120432407Y-103254556D01*
X120432320Y-103640052D01*
X120432217Y-104003928D01*
X120432097Y-104346784D01*
X120431957Y-104669221D01*
X120431796Y-104971842D01*
X120431612Y-105255246D01*
X120431402Y-105520035D01*
X120431164Y-105766812D01*
X120430896Y-105996175D01*
X120430596Y-106208728D01*
X120430261Y-106405072D01*
X120429891Y-106585807D01*
X120429482Y-106751534D01*
X120429032Y-106902856D01*
X120428539Y-107040373D01*
X120428002Y-107164687D01*
X120427418Y-107276398D01*
X120426784Y-107376108D01*
X120426100Y-107464419D01*
X120425362Y-107541932D01*
X120424568Y-107609247D01*
X120423717Y-107666966D01*
X120422806Y-107715691D01*
X120421833Y-107756022D01*
X120420797Y-107788561D01*
X120419694Y-107813909D01*
X120418523Y-107832667D01*
X120417281Y-107845437D01*
X120416146Y-107852129D01*
X120380268Y-107961258D01*
X120330250Y-108053618D01*
X120267155Y-108128643D01*
X120192046Y-108185771D01*
X120105988Y-108224437D01*
X120010044Y-108244076D01*
X119905278Y-108244127D01*
X119792755Y-108224023D01*
X119742600Y-108209158D01*
X119726604Y-108203754D01*
X119710663Y-108197958D01*
X119693606Y-108191120D01*
X119674262Y-108182589D01*
X119651461Y-108171714D01*
X119624032Y-108157847D01*
X119590804Y-108140335D01*
X119550606Y-108118529D01*
X119531873Y-108108162D01*
X119502268Y-108091779D01*
X119444620Y-108059433D01*
G37*
%TO.C,R43*%
X68328733Y-138790000D02*
X68671267Y-138790000D01*
X68328733Y-139810000D02*
X68671267Y-139810000D01*
%TO.C,R70*%
X145328733Y-145790000D02*
X145671267Y-145790000D01*
X145328733Y-146810000D02*
X145671267Y-146810000D01*
%TO.C,C12*%
X72990000Y-82921267D02*
X72990000Y-82578733D01*
X74010000Y-82921267D02*
X74010000Y-82578733D01*
%TO.C,Q42*%
X153080000Y-135940000D02*
X152150000Y-135940000D01*
X149920000Y-135940000D02*
X149920000Y-138100000D01*
X149920000Y-135940000D02*
X150850000Y-135940000D01*
X153080000Y-135940000D02*
X153080000Y-137400000D01*
%TO.C,Q31*%
X129920000Y-116510000D02*
X129920000Y-115050000D01*
X133080000Y-116510000D02*
X133080000Y-114350000D01*
X133080000Y-116510000D02*
X132150000Y-116510000D01*
X129920000Y-116510000D02*
X130850000Y-116510000D01*
%TO.C,Q39*%
X137920000Y-116510000D02*
X138850000Y-116510000D01*
X141080000Y-116510000D02*
X141080000Y-114350000D01*
X141080000Y-116510000D02*
X140150000Y-116510000D01*
X137920000Y-116510000D02*
X137920000Y-115050000D01*
%TO.C,Q17*%
X66920000Y-135940000D02*
X67850000Y-135940000D01*
X70080000Y-135940000D02*
X69150000Y-135940000D01*
X70080000Y-135940000D02*
X70080000Y-137400000D01*
X66920000Y-135940000D02*
X66920000Y-138100000D01*
%TO.C,R23*%
X122790000Y-114488748D02*
X122790000Y-115011252D01*
X124210000Y-114488748D02*
X124210000Y-115011252D01*
%TO.C,R1*%
X106090000Y-89802065D02*
X106090000Y-88597937D01*
X107910000Y-89802065D02*
X107910000Y-88597937D01*
%TO.C,J1*%
X83595000Y-70025000D02*
X83595000Y-67295000D01*
X74405000Y-70025000D02*
X74405000Y-67295000D01*
X83595000Y-73625000D02*
X83595000Y-72725000D01*
X83475000Y-76705000D02*
X74525000Y-76705000D01*
X74405000Y-73625000D02*
X74405000Y-72725000D01*
X83595000Y-67295000D02*
X74405000Y-67295000D01*
%TO.C,D3*%
X115485000Y-78410000D02*
X115485000Y-75950000D01*
X114015000Y-78410000D02*
X115485000Y-78410000D01*
X114015000Y-75950000D02*
X114015000Y-78410000D01*
%TO.C,R49*%
X102128733Y-142810000D02*
X102471267Y-142810000D01*
X102128733Y-141790000D02*
X102471267Y-141790000D01*
%TO.C,R21*%
X75790000Y-114488748D02*
X75790000Y-115011252D01*
X77210000Y-114488748D02*
X77210000Y-115011252D01*
%TO.C,R56*%
X127671267Y-113710000D02*
X127328733Y-113710000D01*
X127671267Y-112690000D02*
X127328733Y-112690000D01*
D13*
%TO.C,L1*%
X80750000Y-91700000D02*
G75*
G03*
X80750000Y-91700000I-400000J0D01*
G01*
D14*
%TO.C,R5*%
X68483733Y-93190001D02*
X68826267Y-93190001D01*
X68483733Y-94210001D02*
X68826267Y-94210001D01*
%TO.C,R19*%
X155421267Y-80260000D02*
X155078733Y-80260000D01*
X155421267Y-79240000D02*
X155078733Y-79240000D01*
%TO.C,C11*%
X71490000Y-82921267D02*
X71490000Y-82578733D01*
X72510000Y-82921267D02*
X72510000Y-82578733D01*
%TO.C,Q24*%
X96920000Y-142940000D02*
X97850000Y-142940000D01*
X100080000Y-142940000D02*
X99150000Y-142940000D01*
X100080000Y-142940000D02*
X100080000Y-144400000D01*
X96920000Y-142940000D02*
X96920000Y-145100000D01*
%TO.C,SW1*%
X149750000Y-76500000D02*
X149750000Y-74500000D01*
X149750000Y-74500000D02*
X150250000Y-75000000D01*
X149750000Y-77150000D02*
X155650000Y-77150000D01*
X149750000Y-77150000D02*
X143850000Y-77150000D01*
X149750000Y-74500000D02*
X149250000Y-75000000D01*
%TO.C,Q25*%
X96080000Y-142940000D02*
X95150000Y-142940000D01*
X96080000Y-142940000D02*
X96080000Y-144400000D01*
X92920000Y-142940000D02*
X92920000Y-145100000D01*
X92920000Y-142940000D02*
X93850000Y-142940000D01*
%TO.C,R55*%
X119671267Y-112690000D02*
X119328733Y-112690000D01*
X119671267Y-113710000D02*
X119328733Y-113710000D01*
%TO.C,C23*%
X148421267Y-101540000D02*
X148078733Y-101540000D01*
X148421267Y-102560000D02*
X148078733Y-102560000D01*
%TO.C,R63*%
X115353733Y-139810000D02*
X115696267Y-139810000D01*
X115353733Y-138790000D02*
X115696267Y-138790000D01*
%TO.C,R61*%
X121328733Y-146810000D02*
X121671267Y-146810000D01*
X121328733Y-145790000D02*
X121671267Y-145790000D01*
%TO.C,C5*%
X94749252Y-81433600D02*
X94226748Y-81433600D01*
X94749252Y-82853600D02*
X94226748Y-82853600D01*
%TO.C,C8*%
X70010000Y-91371268D02*
X70010000Y-91028734D01*
X68990000Y-91371268D02*
X68990000Y-91028734D01*
%TO.C,R29*%
X153271267Y-82010000D02*
X152928733Y-82010000D01*
X153271267Y-80990000D02*
X152928733Y-80990000D01*
%TO.C,Q2*%
X66549999Y-97830001D02*
X66819999Y-97830001D01*
X66549999Y-99330001D02*
X66549999Y-97830001D01*
X73179999Y-97830001D02*
X73179999Y-95000001D01*
X73449999Y-97830001D02*
X73179999Y-97830001D01*
X73449999Y-99330001D02*
X73449999Y-97830001D01*
X66819999Y-97830001D02*
X66819999Y-96730001D01*
%TO.C,U5*%
X110000000Y-159610000D02*
X107615000Y-159610000D01*
X110000000Y-159610000D02*
X112385000Y-159610000D01*
X112385000Y-149090000D02*
X112385000Y-149370000D01*
X107615000Y-159610000D02*
X107615000Y-159330000D01*
X112385000Y-159610000D02*
X112385000Y-159330000D01*
X107615000Y-149090000D02*
X107615000Y-149370000D01*
X107615000Y-149370000D02*
X105950000Y-149370000D01*
X110000000Y-149090000D02*
X112385000Y-149090000D01*
X110000000Y-149090000D02*
X107615000Y-149090000D01*
X107000000Y-148350000D02*
G75*
G03*
X107000000Y-148350000I-400000J0D01*
G01*
%TO.C,Q34*%
X123920000Y-142940000D02*
X123920000Y-145100000D01*
X123920000Y-142940000D02*
X124850000Y-142940000D01*
X127080000Y-142940000D02*
X126150000Y-142940000D01*
X127080000Y-142940000D02*
X127080000Y-144400000D01*
%TO.C,U8*%
X151110000Y-87640000D02*
X150160000Y-87640000D01*
X140890000Y-96910000D02*
X140890000Y-97860000D01*
X140890000Y-87640000D02*
X141840000Y-87640000D01*
X140890000Y-88590000D02*
X140890000Y-87640000D01*
X151110000Y-88590000D02*
X151110000Y-87640000D01*
X140890000Y-97860000D02*
X141840000Y-97860000D01*
X151110000Y-96910000D02*
X151110000Y-97860000D01*
X151110000Y-97860000D02*
X150160000Y-97860000D01*
X141840000Y-97860000D02*
X141840000Y-99200000D01*
%TO.C,Q19*%
X90920000Y-116510000D02*
X90920000Y-115050000D01*
X90920000Y-116510000D02*
X91850000Y-116510000D01*
X94080000Y-116510000D02*
X93150000Y-116510000D01*
X94080000Y-116510000D02*
X94080000Y-114350000D01*
%TO.C,R60*%
X125328733Y-145790000D02*
X125671267Y-145790000D01*
X125328733Y-146810000D02*
X125671267Y-146810000D01*
%TO.C,R27*%
X143740000Y-101478733D02*
X143740000Y-101821267D01*
X144760000Y-101478733D02*
X144760000Y-101821267D01*
%TO.C,Q40*%
X149080000Y-116510000D02*
X148150000Y-116510000D01*
X145920000Y-116510000D02*
X146850000Y-116510000D01*
X145920000Y-116510000D02*
X145920000Y-115050000D01*
X149080000Y-116510000D02*
X149080000Y-114350000D01*
%TO.C,Q28*%
X86920000Y-116510000D02*
X87850000Y-116510000D01*
X90080000Y-116510000D02*
X89150000Y-116510000D01*
X86920000Y-116510000D02*
X86920000Y-115050000D01*
X90080000Y-116510000D02*
X90080000Y-114350000D01*
%TO.C,R34*%
X117020000Y-80038733D02*
X117020000Y-80381267D01*
X116000000Y-80038733D02*
X116000000Y-80381267D01*
%TO.C,Q33*%
X129080000Y-138940000D02*
X128150000Y-138940000D01*
X125920000Y-138940000D02*
X126850000Y-138940000D01*
X129080000Y-138940000D02*
X129080000Y-140400000D01*
X125920000Y-138940000D02*
X125920000Y-141100000D01*
%TO.C,R44*%
X68671267Y-113710000D02*
X68328733Y-113710000D01*
X68671267Y-112690000D02*
X68328733Y-112690000D01*
%TO.C,C28*%
X133921267Y-102290000D02*
X133578733Y-102290000D01*
X133921267Y-103310000D02*
X133578733Y-103310000D01*
%TO.C,R42*%
X70871267Y-142810000D02*
X70528733Y-142810000D01*
X70871267Y-141790000D02*
X70528733Y-141790000D01*
%TO.C,R32*%
X112490000Y-80078733D02*
X112490000Y-80421267D01*
X113510000Y-80078733D02*
X113510000Y-80421267D01*
%TO.C,R52*%
X90871267Y-142810000D02*
X90528733Y-142810000D01*
X90871267Y-141790000D02*
X90528733Y-141790000D01*
%TO.C,R31*%
X144421267Y-79240000D02*
X144078733Y-79240000D01*
X144421267Y-80260000D02*
X144078733Y-80260000D01*
%TO.C,Y2*%
X135755000Y-102225000D02*
X135755000Y-100875000D01*
X137505000Y-102225000D02*
X137505000Y-100875000D01*
%TO.C,D4*%
X115765000Y-78410000D02*
X117235000Y-78410000D01*
X117235000Y-78410000D02*
X117235000Y-75950000D01*
X115765000Y-75950000D02*
X115765000Y-78410000D01*
%TO.C,R35*%
X72671267Y-112690000D02*
X72328733Y-112690000D01*
X72671267Y-113710000D02*
X72328733Y-113710000D01*
%TO.C,R51*%
X94328733Y-146810000D02*
X94671267Y-146810000D01*
X94328733Y-145790000D02*
X94671267Y-145790000D01*
%TO.C,J2*%
X130450000Y-74150000D02*
X129430000Y-74150000D01*
X127910000Y-74150000D02*
X127340000Y-74150000D01*
X139590000Y-72710000D02*
X139590000Y-74150000D01*
X132990000Y-79350000D02*
X131970000Y-79350000D01*
X138070000Y-74150000D02*
X137050000Y-74150000D01*
X135530000Y-79350000D02*
X134510000Y-79350000D01*
X138070000Y-79350000D02*
X137050000Y-79350000D01*
X135530000Y-74150000D02*
X134510000Y-74150000D01*
X140160000Y-74150000D02*
X139590000Y-74150000D01*
X140160000Y-79350000D02*
X139590000Y-79350000D01*
X130450000Y-79350000D02*
X129430000Y-79350000D01*
X127910000Y-79350000D02*
X127340000Y-79350000D01*
X132990000Y-74150000D02*
X131970000Y-74150000D01*
X140160000Y-74150000D02*
X140160000Y-79350000D01*
X127340000Y-74150000D02*
X127340000Y-79350000D01*
%TO.C,R39*%
X82128733Y-142810000D02*
X82471267Y-142810000D01*
X82128733Y-141790000D02*
X82471267Y-141790000D01*
%TO.C,Q11*%
X82920000Y-116510000D02*
X82920000Y-115050000D01*
X82920000Y-116510000D02*
X83850000Y-116510000D01*
X86080000Y-116510000D02*
X85150000Y-116510000D01*
X86080000Y-116510000D02*
X86080000Y-114350000D01*
%TO.C,R8*%
X72628733Y-85660000D02*
X72971267Y-85660000D01*
X72628733Y-84640000D02*
X72971267Y-84640000D01*
%TO.C,C27*%
X133921267Y-100810000D02*
X133578733Y-100810000D01*
X133921267Y-99790000D02*
X133578733Y-99790000D01*
%TO.C,R72*%
X137871267Y-141790000D02*
X137528733Y-141790000D01*
X137871267Y-142810000D02*
X137528733Y-142810000D01*
%TO.C,R68*%
X151328733Y-139810000D02*
X151671267Y-139810000D01*
X151328733Y-138790000D02*
X151671267Y-138790000D01*
%TO.C,R41*%
X74328733Y-146810000D02*
X74671267Y-146810000D01*
X74328733Y-145790000D02*
X74671267Y-145790000D01*
%TO.C,Q47*%
X133920000Y-135940000D02*
X133920000Y-138100000D01*
X137080000Y-135940000D02*
X137080000Y-137400000D01*
X137080000Y-135940000D02*
X136150000Y-135940000D01*
X133920000Y-135940000D02*
X134850000Y-135940000D01*
%TO.C,Q26*%
X90920000Y-138940000D02*
X90920000Y-141100000D01*
X94080000Y-138940000D02*
X94080000Y-140400000D01*
X90920000Y-138940000D02*
X91850000Y-138940000D01*
X94080000Y-138940000D02*
X93150000Y-138940000D01*
%TO.C,C20*%
X138910000Y-96621267D02*
X138910000Y-96278733D01*
X137890000Y-96621267D02*
X137890000Y-96278733D01*
%TO.C,C21*%
X154110000Y-88178733D02*
X154110000Y-88521267D01*
X153090000Y-88178733D02*
X153090000Y-88521267D01*
%TO.C,R48*%
X104328733Y-138790000D02*
X104671267Y-138790000D01*
X104328733Y-139810000D02*
X104671267Y-139810000D01*
%TO.C,Q43*%
X145920000Y-138940000D02*
X146850000Y-138940000D01*
X149080000Y-138940000D02*
X148150000Y-138940000D01*
X149080000Y-138940000D02*
X149080000Y-140400000D01*
X145920000Y-138940000D02*
X145920000Y-141100000D01*
%TO.C,R3*%
X77510000Y-91028734D02*
X77510000Y-91371268D01*
X76490000Y-91028734D02*
X76490000Y-91371268D01*
%TO.C,U3*%
X82260000Y-156735000D02*
X81980000Y-156735000D01*
X71740000Y-154350000D02*
X71740000Y-156735000D01*
X81980000Y-151965000D02*
X81980000Y-150300000D01*
X82260000Y-154350000D02*
X82260000Y-151965000D01*
X82260000Y-154350000D02*
X82260000Y-156735000D01*
X82260000Y-151965000D02*
X81980000Y-151965000D01*
X71740000Y-156735000D02*
X72020000Y-156735000D01*
X71740000Y-154350000D02*
X71740000Y-151965000D01*
X71740000Y-151965000D02*
X72020000Y-151965000D01*
X83400000Y-150950000D02*
G75*
G03*
X83400000Y-150950000I-400000J0D01*
G01*
%TO.C,Q45*%
X139920000Y-142940000D02*
X140850000Y-142940000D01*
X139920000Y-142940000D02*
X139920000Y-145100000D01*
X143080000Y-142940000D02*
X142150000Y-142940000D01*
X143080000Y-142940000D02*
X143080000Y-144400000D01*
%TO.C,C7*%
X106102064Y-96289999D02*
X104897936Y-96289999D01*
X106102064Y-98109999D02*
X104897936Y-98109999D01*
%TO.C,C15*%
X84010000Y-156771267D02*
X84010000Y-156428733D01*
X82990000Y-156771267D02*
X82990000Y-156428733D01*
%TO.C,C18*%
X132940000Y-156746267D02*
X132940000Y-156403733D01*
X133960000Y-156746267D02*
X133960000Y-156403733D01*
%TO.C,R73*%
X135328733Y-139810000D02*
X135671267Y-139810000D01*
X135328733Y-138790000D02*
X135671267Y-138790000D01*
%TO.C,R40*%
X78328733Y-146810000D02*
X78671267Y-146810000D01*
X78328733Y-145790000D02*
X78671267Y-145790000D01*
%TO.C,C9*%
X74893749Y-94390001D02*
X75416253Y-94390001D01*
X74893749Y-95810001D02*
X75416253Y-95810001D01*
%TO.C,V1*%
X76500000Y-124250000D02*
X76500000Y-122750000D01*
X85500000Y-127250000D02*
G75*
G03*
X85500000Y-127250000I-9000000J0D01*
G01*
D15*
X76500000Y-122750000D02*
X77000000Y-123250000D01*
X77000000Y-123250000D02*
X76000000Y-123250000D01*
X76000000Y-123250000D02*
X76500000Y-122750000D01*
G36*
X77000000Y-123250000D02*
G01*
X76000000Y-123250000D01*
X76500000Y-122750000D01*
X77000000Y-123250000D01*
G37*
X77000000Y-123250000D02*
X76000000Y-123250000D01*
X76500000Y-122750000D01*
X77000000Y-123250000D01*
D14*
%TO.C,Q27*%
X86920000Y-135940000D02*
X87850000Y-135940000D01*
X90080000Y-135940000D02*
X90080000Y-137400000D01*
X86920000Y-135940000D02*
X86920000Y-138100000D01*
X90080000Y-135940000D02*
X89150000Y-135940000D01*
%TO.C,Q21*%
X102920000Y-116510000D02*
X102920000Y-115050000D01*
X106080000Y-116510000D02*
X106080000Y-114350000D01*
X102920000Y-116510000D02*
X103850000Y-116510000D01*
X106080000Y-116510000D02*
X105150000Y-116510000D01*
%TO.C,V2*%
X96500000Y-124250000D02*
X96500000Y-122750000D01*
X105500000Y-127250000D02*
G75*
G03*
X105500000Y-127250000I-9000000J0D01*
G01*
D15*
X96500000Y-122750000D02*
X97000000Y-123250000D01*
X97000000Y-123250000D02*
X96000000Y-123250000D01*
X96000000Y-123250000D02*
X96500000Y-122750000D01*
G36*
X97000000Y-123250000D02*
G01*
X96000000Y-123250000D01*
X96500000Y-122750000D01*
X97000000Y-123250000D01*
G37*
X97000000Y-123250000D02*
X96000000Y-123250000D01*
X96500000Y-122750000D01*
X97000000Y-123250000D01*
D14*
%TO.C,FB1*%
X94709064Y-80060000D02*
X93504936Y-80060000D01*
X94709064Y-78240000D02*
X93504936Y-78240000D01*
%TO.C,Q15*%
X76080000Y-142940000D02*
X75150000Y-142940000D01*
X72920000Y-142940000D02*
X73850000Y-142940000D01*
X76080000Y-142940000D02*
X76080000Y-144400000D01*
X72920000Y-142940000D02*
X72920000Y-145100000D01*
%TO.C,Q9*%
X74080000Y-116510000D02*
X74080000Y-114350000D01*
X70920000Y-116510000D02*
X71850000Y-116510000D01*
X74080000Y-116510000D02*
X73150000Y-116510000D01*
X70920000Y-116510000D02*
X70920000Y-115050000D01*
%TO.C,C26*%
X144990000Y-106578733D02*
X144990000Y-106921267D01*
X146010000Y-106578733D02*
X146010000Y-106921267D01*
%TO.C,R58*%
X131328733Y-139810000D02*
X131671267Y-139810000D01*
X131328733Y-138790000D02*
X131671267Y-138790000D01*
%TO.C,R4*%
X70910000Y-83421267D02*
X70910000Y-83078733D01*
X69890000Y-83421267D02*
X69890000Y-83078733D01*
%TO.C,C19*%
X150510000Y-156771267D02*
X150510000Y-156428733D01*
X149490000Y-156771267D02*
X149490000Y-156428733D01*
%TO.C,R64*%
X115671267Y-112690000D02*
X115328733Y-112690000D01*
X115671267Y-113710000D02*
X115328733Y-113710000D01*
%TO.C,R24*%
X144210000Y-114488748D02*
X144210000Y-115011252D01*
X142790000Y-114488748D02*
X142790000Y-115011252D01*
%TO.C,Q30*%
X129080000Y-116510000D02*
X129080000Y-114350000D01*
X125920000Y-116510000D02*
X126850000Y-116510000D01*
X125920000Y-116510000D02*
X125920000Y-115050000D01*
X129080000Y-116510000D02*
X128150000Y-116510000D01*
%TO.C,R36*%
X80671267Y-113710000D02*
X80328733Y-113710000D01*
X80671267Y-112690000D02*
X80328733Y-112690000D01*
%TO.C,Q35*%
X119920000Y-142940000D02*
X120850000Y-142940000D01*
X123080000Y-142940000D02*
X123080000Y-144400000D01*
X119920000Y-142940000D02*
X119920000Y-145100000D01*
X123080000Y-142940000D02*
X122150000Y-142940000D01*
%TO.C,Q10*%
X78920000Y-116510000D02*
X79850000Y-116510000D01*
X82080000Y-116510000D02*
X82080000Y-114350000D01*
X78920000Y-116510000D02*
X78920000Y-115050000D01*
X82080000Y-116510000D02*
X81150000Y-116510000D01*
%TO.C,R38*%
X84328733Y-138790000D02*
X84671267Y-138790000D01*
X84328733Y-139810000D02*
X84671267Y-139810000D01*
%TO.C,Q48*%
X137080000Y-116510000D02*
X136150000Y-116510000D01*
X137080000Y-116510000D02*
X137080000Y-114350000D01*
X133920000Y-116510000D02*
X134850000Y-116510000D01*
X133920000Y-116510000D02*
X133920000Y-115050000D01*
%TO.C,R30*%
X146571267Y-80990000D02*
X146228733Y-80990000D01*
X146571267Y-82010000D02*
X146228733Y-82010000D01*
%TO.C,R47*%
X104671267Y-112690000D02*
X104328733Y-112690000D01*
X104671267Y-113710000D02*
X104328733Y-113710000D01*
%TO.C,G\u002A\u002A*%
X130150000Y-82550000D02*
X137150000Y-82550000D01*
X137150000Y-86750000D02*
X130150000Y-86750000D01*
X134350000Y-90950000D02*
X134350000Y-86750000D01*
X137150000Y-90950000D02*
X137150000Y-86750000D01*
X130150000Y-90950000D02*
X137150000Y-90950000D01*
X131550000Y-90950000D02*
X131550000Y-86750000D01*
X134350000Y-86750000D02*
X134350000Y-82550000D01*
X135750000Y-86750000D02*
X135750000Y-82550000D01*
X132950000Y-90950000D02*
X132950000Y-86750000D01*
X135750000Y-90950000D02*
X135750000Y-86750000D01*
X130150000Y-86750000D02*
X130150000Y-82550000D01*
X130150000Y-90950000D02*
X130150000Y-86750000D01*
X132950000Y-86750000D02*
X132950000Y-82550000D01*
X131550000Y-86750000D02*
X131550000Y-82550000D01*
X137150000Y-86750000D02*
X137150000Y-82550000D01*
%TO.C,C1*%
X77590000Y-86802064D02*
X77590000Y-85597936D01*
X79410000Y-86802064D02*
X79410000Y-85597936D01*
%TO.C,R67*%
X151671267Y-113710000D02*
X151328733Y-113710000D01*
X151671267Y-112690000D02*
X151328733Y-112690000D01*
%TO.C,R37*%
X84671267Y-112690000D02*
X84328733Y-112690000D01*
X84671267Y-113710000D02*
X84328733Y-113710000D01*
%TO.C,C31*%
X144078733Y-83760000D02*
X144421267Y-83760000D01*
X144078733Y-82740000D02*
X144421267Y-82740000D01*
%TO.C,R66*%
X147671267Y-112690000D02*
X147328733Y-112690000D01*
X147671267Y-113710000D02*
X147328733Y-113710000D01*
%TO.C,U7*%
X148760000Y-154350000D02*
X148760000Y-156735000D01*
X138240000Y-151965000D02*
X138520000Y-151965000D01*
X138240000Y-156735000D02*
X138520000Y-156735000D01*
X138240000Y-154350000D02*
X138240000Y-151965000D01*
X148760000Y-154350000D02*
X148760000Y-151965000D01*
X148760000Y-156735000D02*
X148480000Y-156735000D01*
X138240000Y-154350000D02*
X138240000Y-156735000D01*
X148760000Y-151965000D02*
X148480000Y-151965000D01*
X148480000Y-151965000D02*
X148480000Y-150300000D01*
X149900000Y-150950000D02*
G75*
G03*
X149900000Y-150950000I-400000J0D01*
G01*
%TO.C,V4*%
X143500000Y-124250000D02*
X143500000Y-122750000D01*
X152500000Y-127250000D02*
G75*
G03*
X152500000Y-127250000I-9000000J0D01*
G01*
D15*
X143500000Y-122750000D02*
X144000000Y-123250000D01*
X144000000Y-123250000D02*
X143000000Y-123250000D01*
X143000000Y-123250000D02*
X143500000Y-122750000D01*
G36*
X144000000Y-123250000D02*
G01*
X143000000Y-123250000D01*
X143500000Y-122750000D01*
X144000000Y-123250000D01*
G37*
X144000000Y-123250000D02*
X143000000Y-123250000D01*
X143500000Y-122750000D01*
X144000000Y-123250000D01*
D14*
%TO.C,U1*%
X74109999Y-90750000D02*
X74109999Y-87875000D01*
X70889999Y-90750000D02*
X70889999Y-89250000D01*
X74109999Y-90750000D02*
X74109999Y-92250000D01*
X70889999Y-90750000D02*
X70889999Y-92250000D01*
%TO.C,R28*%
X138910000Y-93196266D02*
X138910000Y-92853732D01*
X137890000Y-93196266D02*
X137890000Y-92853732D01*
%TO.C,Q13*%
X82080000Y-138940000D02*
X82080000Y-140400000D01*
X78920000Y-138940000D02*
X78920000Y-141100000D01*
X82080000Y-138940000D02*
X81150000Y-138940000D01*
X78920000Y-138940000D02*
X79850000Y-138940000D01*
%TO.C,R46*%
X100671267Y-112690000D02*
X100328733Y-112690000D01*
X100671267Y-113710000D02*
X100328733Y-113710000D01*
%TO.C,R50*%
X98303733Y-146810000D02*
X98646267Y-146810000D01*
X98303733Y-145790000D02*
X98646267Y-145790000D01*
%TO.C,Q37*%
X113920000Y-135940000D02*
X114850000Y-135940000D01*
X113920000Y-135940000D02*
X113920000Y-138100000D01*
X117080000Y-135940000D02*
X116150000Y-135940000D01*
X117080000Y-135940000D02*
X117080000Y-137400000D01*
%TO.C,Q46*%
X137920000Y-138940000D02*
X138850000Y-138940000D01*
X141080000Y-138940000D02*
X140150000Y-138940000D01*
X137920000Y-138940000D02*
X137920000Y-141100000D01*
X141080000Y-138940000D02*
X141080000Y-140400000D01*
%TO.C,D1*%
X107000001Y-91700001D02*
X107000001Y-92200001D01*
X106500001Y-94950001D02*
X106500001Y-95450001D01*
X106500001Y-95450001D02*
X102500001Y-95450001D01*
X106500001Y-92450001D02*
X106000001Y-91950001D01*
X102500001Y-95450001D02*
X102500001Y-94950001D01*
X106500001Y-91950001D02*
X102500001Y-91950001D01*
X102500001Y-91950001D02*
X102500001Y-92450001D01*
X106500001Y-92450001D02*
X106500001Y-91950001D01*
%TO.C,R33*%
X115260000Y-80078733D02*
X115260000Y-80421267D01*
X114240000Y-80078733D02*
X114240000Y-80421267D01*
%TO.C,Q18*%
X70080000Y-116510000D02*
X69150000Y-116510000D01*
X70080000Y-116510000D02*
X70080000Y-114350000D01*
X66920000Y-116510000D02*
X66920000Y-115050000D01*
X66920000Y-116510000D02*
X67850000Y-116510000D01*
%TO.C,C3*%
X84171200Y-86809664D02*
X84171200Y-85605536D01*
X82351200Y-86809664D02*
X82351200Y-85605536D01*
%TO.C,C14*%
X104261252Y-75260000D02*
X103738748Y-75260000D01*
X104261252Y-73840000D02*
X103738748Y-73840000D01*
%TO.C,G2*%
G36*
X122498576Y-96552777D02*
G01*
X122495051Y-96382927D01*
X122480526Y-96281056D01*
X122445795Y-96221260D01*
X122381653Y-96177635D01*
X122361476Y-96167013D01*
X122177725Y-96033611D01*
X122004794Y-95842332D01*
X121868207Y-95626309D01*
X121796464Y-95433610D01*
X121774180Y-95201756D01*
X122381709Y-95201756D01*
X122420662Y-95394156D01*
X122523884Y-95538396D01*
X122670923Y-95626802D01*
X122841324Y-95651700D01*
X123014635Y-95605417D01*
X123159056Y-95493386D01*
X123263638Y-95334481D01*
X123295102Y-95201756D01*
X123254241Y-95048889D01*
X123159056Y-94910125D01*
X123001131Y-94791586D01*
X122827300Y-94751285D01*
X122658016Y-94781552D01*
X122513733Y-94874711D01*
X122414904Y-95023090D01*
X122381709Y-95201756D01*
X121774180Y-95201756D01*
X121767724Y-95134581D01*
X121821614Y-94868225D01*
X121962421Y-94620665D01*
X122093474Y-94472306D01*
X122352857Y-94268128D01*
X122628178Y-94155091D01*
X122913723Y-94133902D01*
X123203782Y-94205270D01*
X123404704Y-94309569D01*
X123631655Y-94505550D01*
X123790184Y-94751852D01*
X123875859Y-95030075D01*
X123884249Y-95321823D01*
X123810925Y-95608698D01*
X123747964Y-95734930D01*
X123558389Y-95970998D01*
X123384101Y-96105811D01*
X123251284Y-96195232D01*
X123182131Y-96268068D01*
X123156754Y-96350592D01*
X123154252Y-96409486D01*
X123166711Y-96506800D01*
X123212962Y-96604747D01*
X123306318Y-96725346D01*
X123419624Y-96848494D01*
X123684996Y-97126709D01*
X126508460Y-97126709D01*
X126779785Y-96858216D01*
X127051109Y-96589723D01*
X127051109Y-93814015D01*
X126755861Y-93521392D01*
X126460613Y-93228768D01*
X122661405Y-93230405D01*
X118862196Y-93232041D01*
X118414231Y-92789274D01*
X118231358Y-92610327D01*
X118100826Y-92489262D01*
X118009371Y-92416780D01*
X117943729Y-92383581D01*
X117890637Y-92380365D01*
X117848891Y-92392892D01*
X117741372Y-92414553D01*
X117578049Y-92424826D01*
X117522521Y-92423968D01*
X117416626Y-92422331D01*
X117218225Y-92403195D01*
X117072262Y-92363071D01*
X116937659Y-92289407D01*
X116902211Y-92265153D01*
X116689275Y-92062458D01*
X116539081Y-91809137D01*
X116457669Y-91526467D01*
X116455330Y-91423331D01*
X117055112Y-91423331D01*
X117105772Y-91583157D01*
X117209212Y-91715372D01*
X117352455Y-91804059D01*
X117522521Y-91833306D01*
X117706431Y-91787197D01*
X117728141Y-91776205D01*
X117859841Y-91657517D01*
X117929507Y-91492577D01*
X117933095Y-91308989D01*
X117866560Y-91134355D01*
X117829481Y-91084503D01*
X117737503Y-90998853D01*
X117631152Y-90960546D01*
X117496766Y-90952772D01*
X117344657Y-90963762D01*
X117242947Y-91007833D01*
X117164050Y-91084503D01*
X117070212Y-91251808D01*
X117055112Y-91423331D01*
X116455330Y-91423331D01*
X116451076Y-91235723D01*
X116525343Y-90958181D01*
X116528942Y-90950152D01*
X116606116Y-90824462D01*
X116720751Y-90686746D01*
X116850937Y-90558263D01*
X116974767Y-90460272D01*
X117070333Y-90414033D01*
X117082666Y-90412846D01*
X117100393Y-90396720D01*
X117114565Y-90342722D01*
X117125533Y-90242429D01*
X117133646Y-90087415D01*
X117139256Y-89869254D01*
X117142712Y-89579521D01*
X117144366Y-89209791D01*
X117144640Y-88922982D01*
X117144640Y-87433119D01*
X117625039Y-86951079D01*
X118105439Y-86469038D01*
X120687692Y-86469038D01*
X121141638Y-86921281D01*
X121323616Y-87101721D01*
X121453042Y-87224964D01*
X121543817Y-87300155D01*
X121609838Y-87336442D01*
X121665007Y-87342969D01*
X121723221Y-87328885D01*
X121748097Y-87320357D01*
X121972655Y-87274292D01*
X122210600Y-87276440D01*
X122385250Y-87316298D01*
X122440797Y-87332489D01*
X122494299Y-87328439D01*
X122559238Y-87294855D01*
X122649096Y-87222447D01*
X122777352Y-87101924D01*
X122957488Y-86923994D01*
X122964285Y-86917222D01*
X123414157Y-86469038D01*
X126791281Y-86469038D01*
X127755361Y-87429838D01*
X127755361Y-88921342D01*
X127755834Y-89339746D01*
X127757541Y-89673446D01*
X127760917Y-89931634D01*
X127766393Y-90123504D01*
X127774404Y-90258247D01*
X127785382Y-90345056D01*
X127799761Y-90393123D01*
X127817974Y-90411642D01*
X127825651Y-90412846D01*
X127915143Y-90448215D01*
X128035579Y-90540112D01*
X128165390Y-90667220D01*
X128283004Y-90808226D01*
X128366852Y-90941812D01*
X128372019Y-90952772D01*
X128451095Y-91236409D01*
X128442703Y-91536271D01*
X128347567Y-91836348D01*
X128330499Y-91871327D01*
X128160812Y-92126944D01*
X127948629Y-92300741D01*
X127685241Y-92398510D01*
X127500813Y-92422973D01*
X127373198Y-92420988D01*
X127208615Y-92418427D01*
X126971439Y-92357087D01*
X126763574Y-92230108D01*
X126655546Y-92132219D01*
X126476325Y-91891823D01*
X126375902Y-91621512D01*
X126358504Y-91418302D01*
X126954512Y-91418302D01*
X126998477Y-91572873D01*
X127092083Y-91702342D01*
X127221575Y-91794045D01*
X127373198Y-91835319D01*
X127533200Y-91813501D01*
X127687824Y-91715928D01*
X127720148Y-91682597D01*
X127827492Y-91503349D01*
X127845513Y-91315455D01*
X127773814Y-91134022D01*
X127735951Y-91084503D01*
X127643973Y-90998853D01*
X127537621Y-90960546D01*
X127403235Y-90952772D01*
X127251126Y-90963762D01*
X127149416Y-91007833D01*
X127070519Y-91084503D01*
X126973941Y-91251291D01*
X126954512Y-91418302D01*
X126358504Y-91418302D01*
X126351639Y-91338124D01*
X126400899Y-91058493D01*
X126521045Y-90799457D01*
X126709440Y-90577851D01*
X126921997Y-90431110D01*
X127051109Y-90363485D01*
X127051109Y-87715939D01*
X126782616Y-87444614D01*
X126514123Y-87173290D01*
X123696386Y-87173290D01*
X123028696Y-87836524D01*
X123091594Y-88079005D01*
X123130003Y-88367963D01*
X123084444Y-88641370D01*
X123009820Y-88820988D01*
X122908066Y-88973824D01*
X122767164Y-89125471D01*
X122616561Y-89247768D01*
X122500035Y-89308540D01*
X122461884Y-89325717D01*
X122435304Y-89358927D01*
X122418213Y-89423184D01*
X122408531Y-89533500D01*
X122404176Y-89704888D01*
X122403066Y-89952362D01*
X122403050Y-90008105D01*
X122403050Y-90676888D01*
X122536687Y-90775690D01*
X122693872Y-90946958D01*
X122793957Y-91174803D01*
X122825601Y-91410688D01*
X122783271Y-91648119D01*
X122667952Y-91850778D01*
X122497155Y-92008450D01*
X122288390Y-92110923D01*
X122060343Y-92147793D01*
X122059164Y-92147984D01*
X121826989Y-92109420D01*
X121715048Y-92058462D01*
X121518152Y-91915371D01*
X121397898Y-91743122D01*
X121339369Y-91517763D01*
X121332138Y-91443672D01*
X121343563Y-91179314D01*
X121424764Y-90969224D01*
X121581808Y-90798686D01*
X121605674Y-90780450D01*
X121745749Y-90676888D01*
X121745749Y-89381122D01*
X121564063Y-89266429D01*
X121300204Y-89052967D01*
X121119914Y-88801026D01*
X121025608Y-88515970D01*
X121023041Y-88379946D01*
X121623098Y-88379946D01*
X121674958Y-88538738D01*
X121780408Y-88669743D01*
X121933958Y-88752069D01*
X122060343Y-88769593D01*
X122259187Y-88740426D01*
X122401661Y-88645697D01*
X122472612Y-88545400D01*
X122523543Y-88365763D01*
X122486634Y-88183477D01*
X122365722Y-88016196D01*
X122355476Y-88006654D01*
X122187708Y-87901095D01*
X122010209Y-87886984D01*
X121843931Y-87945752D01*
X121702097Y-88062562D01*
X121630315Y-88214257D01*
X121623098Y-88379946D01*
X121023041Y-88379946D01*
X121019705Y-88203160D01*
X121037069Y-88097163D01*
X121095583Y-87813866D01*
X120764322Y-87493578D01*
X120433060Y-87173290D01*
X118385878Y-87173290D01*
X118117385Y-87444614D01*
X117848891Y-87715939D01*
X117848891Y-90363485D01*
X117978004Y-90431110D01*
X118157954Y-90560540D01*
X118329635Y-90742854D01*
X118459166Y-90940596D01*
X118480338Y-90986477D01*
X118536431Y-91199371D01*
X118550430Y-91438937D01*
X118520772Y-91657601D01*
X118504091Y-91709502D01*
X118486664Y-91770166D01*
X118492510Y-91827304D01*
X118531639Y-91896639D01*
X118614060Y-91993891D01*
X118749782Y-92134781D01*
X118819902Y-92205534D01*
X119184766Y-92572551D01*
X126794562Y-92572551D01*
X127274961Y-93054591D01*
X127755361Y-93536631D01*
X127755361Y-96870162D01*
X127273321Y-97350561D01*
X126791281Y-97830961D01*
X123435271Y-97830961D01*
X122967736Y-97349722D01*
X122841324Y-97219605D01*
X122500202Y-96868484D01*
X122498576Y-96552777D01*
G37*
%TO.C,V3*%
X123500000Y-124250000D02*
X123500000Y-122750000D01*
X132500000Y-127250000D02*
G75*
G03*
X132500000Y-127250000I-9000000J0D01*
G01*
D15*
X123500000Y-122750000D02*
X124000000Y-123250000D01*
X124000000Y-123250000D02*
X123000000Y-123250000D01*
X123000000Y-123250000D02*
X123500000Y-122750000D01*
G36*
X124000000Y-123250000D02*
G01*
X123000000Y-123250000D01*
X123500000Y-122750000D01*
X124000000Y-123250000D01*
G37*
X124000000Y-123250000D02*
X123000000Y-123250000D01*
X123500000Y-122750000D01*
X124000000Y-123250000D01*
D14*
%TO.C,R62*%
X117871267Y-142810000D02*
X117528733Y-142810000D01*
X117871267Y-141790000D02*
X117528733Y-141790000D01*
%TO.C,Q14*%
X76920000Y-142940000D02*
X77850000Y-142940000D01*
X76920000Y-142940000D02*
X76920000Y-145100000D01*
X80080000Y-142940000D02*
X79150000Y-142940000D01*
X80080000Y-142940000D02*
X80080000Y-144400000D01*
%TO.C,R7*%
X68321266Y-87660000D02*
X67978732Y-87660000D01*
X68321266Y-86640000D02*
X67978732Y-86640000D01*
%TO.C,Q22*%
X106080000Y-135940000D02*
X106080000Y-137400000D01*
X102920000Y-135940000D02*
X102920000Y-138100000D01*
X102920000Y-135940000D02*
X103850000Y-135940000D01*
X106080000Y-135940000D02*
X105150000Y-135940000D01*
%TO.C,Q20*%
X102080000Y-116510000D02*
X102080000Y-114350000D01*
X98920000Y-116510000D02*
X99850000Y-116510000D01*
X98920000Y-116510000D02*
X98920000Y-115050000D01*
X102080000Y-116510000D02*
X101150000Y-116510000D01*
%TO.C,D2*%
X112265000Y-75950000D02*
X112265000Y-78410000D01*
X112265000Y-78410000D02*
X113735000Y-78410000D01*
X113735000Y-78410000D02*
X113735000Y-75950000D01*
%TO.C,R54*%
X88671267Y-113710000D02*
X88328733Y-113710000D01*
X88671267Y-112690000D02*
X88328733Y-112690000D01*
%TO.C,U2*%
X102150000Y-82660000D02*
X105910000Y-82660000D01*
X105910000Y-75840000D02*
X105910000Y-77100000D01*
X99900000Y-75840000D02*
X105910000Y-75840000D01*
X105910000Y-82660000D02*
X105910000Y-81400000D01*
%TO.C,C10*%
X68321267Y-86160000D02*
X67978733Y-86160000D01*
X68321267Y-85140000D02*
X67978733Y-85140000D01*
%TO.C,C22*%
X148421267Y-99890000D02*
X148078733Y-99890000D01*
X148421267Y-100910000D02*
X148078733Y-100910000D01*
%TO.C,Q23*%
X98920000Y-138940000D02*
X99850000Y-138940000D01*
X102080000Y-138940000D02*
X102080000Y-140400000D01*
X102080000Y-138940000D02*
X101150000Y-138940000D01*
X98920000Y-138940000D02*
X98920000Y-141100000D01*
%TO.C,C13*%
X97290000Y-79511252D02*
X97290000Y-78988748D01*
X98710000Y-79511252D02*
X98710000Y-78988748D01*
%TO.C,R2*%
X104171267Y-86990000D02*
X103828733Y-86990000D01*
X104171267Y-88010000D02*
X103828733Y-88010000D01*
%TO.C,F1*%
X86878748Y-77440000D02*
X89651252Y-77440000D01*
X86878748Y-80860000D02*
X89651252Y-80860000D01*
%TO.C,C17*%
X115910000Y-149071267D02*
X115910000Y-148728733D01*
X114890000Y-149071267D02*
X114890000Y-148728733D01*
%TO.C,R65*%
X139671267Y-113710000D02*
X139328733Y-113710000D01*
X139671267Y-112690000D02*
X139328733Y-112690000D01*
%TO.C,R22*%
X95790000Y-114488748D02*
X95790000Y-115011252D01*
X97210000Y-114488748D02*
X97210000Y-115011252D01*
%TO.C,R6*%
X64590001Y-92302065D02*
X64590001Y-91097937D01*
X66410001Y-92302065D02*
X66410001Y-91097937D01*
%TO.C,Q29*%
X121080000Y-116510000D02*
X120150000Y-116510000D01*
X121080000Y-116510000D02*
X121080000Y-114350000D01*
X117920000Y-116510000D02*
X118850000Y-116510000D01*
X117920000Y-116510000D02*
X117920000Y-115050000D01*
%TO.C,R20*%
X149578733Y-82490000D02*
X149921267Y-82490000D01*
X149578733Y-83510000D02*
X149921267Y-83510000D01*
%TD*%
M02*
