%TF.GenerationSoftware,KiCad,Pcbnew,(5.99.0-9843-g93c991926f)*%
%TF.CreationDate,2021-03-24T22:05:54-04:00*%
%TF.ProjectId,nixieclock,6e697869-6563-46c6-9f63-6b2e6b696361,rev?*%
%TF.SameCoordinates,Original*%
%TF.FileFunction,Paste,Top*%
%TF.FilePolarity,Positive*%
%FSLAX46Y46*%
G04 Gerber Fmt 4.6, Leading zero omitted, Abs format (unit mm)*
G04 Created by KiCad (PCBNEW (5.99.0-9843-g93c991926f)) date 2021-03-24 22:05:54*
%MOMM*%
%LPD*%
G01*
G04 APERTURE LIST*
G04 Aperture macros list*
%AMRoundRect*
0 Rectangle with rounded corners*
0 $1 Rounding radius*
0 $2 $3 $4 $5 $6 $7 $8 $9 X,Y pos of 4 corners*
0 Add a 4 corners polygon primitive as box body*
4,1,4,$2,$3,$4,$5,$6,$7,$8,$9,$2,$3,0*
0 Add four circle primitives for the rounded corners*
1,1,$1+$1,$2,$3*
1,1,$1+$1,$4,$5*
1,1,$1+$1,$6,$7*
1,1,$1+$1,$8,$9*
0 Add four rect primitives between the rounded corners*
20,1,$1+$1,$2,$3,$4,$5,0*
20,1,$1+$1,$4,$5,$6,$7,0*
20,1,$1+$1,$6,$7,$8,$9,0*
20,1,$1+$1,$8,$9,$2,$3,0*%
G04 Aperture macros list end*
%ADD10R,0.800000X0.900000*%
%ADD11RoundRect,0.237500X0.287500X0.237500X-0.287500X0.237500X-0.287500X-0.237500X0.287500X-0.237500X0*%
%ADD12RoundRect,0.237500X-0.287500X-0.237500X0.287500X-0.237500X0.287500X0.237500X-0.287500X0.237500X0*%
%ADD13R,1.600000X1.300000*%
%ADD14RoundRect,0.137500X-0.137500X0.662500X-0.137500X-0.662500X0.137500X-0.662500X0.137500X0.662500X0*%
%ADD15RoundRect,0.250001X0.624999X-0.462499X0.624999X0.462499X-0.624999X0.462499X-0.624999X-0.462499X0*%
%ADD16RoundRect,0.237500X-0.237500X0.287500X-0.237500X-0.287500X0.237500X-0.287500X0.237500X0.287500X0*%
%ADD17RoundRect,0.250001X0.462499X0.624999X-0.462499X0.624999X-0.462499X-0.624999X0.462499X-0.624999X0*%
%ADD18RoundRect,0.237500X0.237500X-0.287500X0.237500X0.287500X-0.237500X0.287500X-0.237500X-0.287500X0*%
%ADD19RoundRect,0.250000X-0.450000X0.325000X-0.450000X-0.325000X0.450000X-0.325000X0.450000X0.325000X0*%
%ADD20R,3.430000X1.790000*%
%ADD21RoundRect,0.250000X0.325000X0.450000X-0.325000X0.450000X-0.325000X-0.450000X0.325000X-0.450000X0*%
%ADD22R,2.750000X3.050000*%
%ADD23R,1.200000X2.200000*%
%ADD24RoundRect,0.137500X-0.662500X-0.137500X0.662500X-0.137500X0.662500X0.137500X-0.662500X0.137500X0*%
%ADD25RoundRect,0.075000X0.075000X-0.700000X0.075000X0.700000X-0.075000X0.700000X-0.075000X-0.700000X0*%
%ADD26RoundRect,0.075000X0.700000X-0.075000X0.700000X0.075000X-0.700000X0.075000X-0.700000X-0.075000X0*%
%ADD27R,1.800000X1.000000*%
%ADD28R,1.000000X3.150000*%
%ADD29RoundRect,0.250000X-0.325000X-0.450000X0.325000X-0.450000X0.325000X0.450000X-0.325000X0.450000X0*%
%ADD30RoundRect,0.170000X-0.210000X0.170000X-0.210000X-0.170000X0.210000X-0.170000X0.210000X0.170000X0*%
%ADD31RoundRect,0.075000X-0.075000X0.650000X-0.075000X-0.650000X0.075000X-0.650000X0.075000X0.650000X0*%
%ADD32R,1.400000X2.000000*%
%ADD33R,2.000000X1.500000*%
%ADD34R,2.000000X3.800000*%
%ADD35RoundRect,0.250000X0.450000X-0.325000X0.450000X0.325000X-0.450000X0.325000X-0.450000X-0.325000X0*%
%ADD36RoundRect,0.250000X-0.400000X-1.450000X0.400000X-1.450000X0.400000X1.450000X-0.400000X1.450000X0*%
G04 APERTURE END LIST*
D10*
%TO.C,Q41*%
X152450000Y-114750000D03*
X150550000Y-114750000D03*
X151500000Y-116750000D03*
%TD*%
D11*
%TO.C,R45*%
X93375000Y-113200000D03*
X91625000Y-113200000D03*
%TD*%
D12*
%TO.C,R53*%
X87625000Y-139300000D03*
X89375000Y-139300000D03*
%TD*%
D10*
%TO.C,Q32*%
X130550000Y-137700000D03*
X132450000Y-137700000D03*
X131500000Y-135700000D03*
%TD*%
D12*
%TO.C,R71*%
X140625000Y-146300000D03*
X142375000Y-146300000D03*
%TD*%
D13*
%TO.C,Y1*%
X140150000Y-107850000D03*
X143450000Y-107850000D03*
X143450000Y-105850000D03*
X140150000Y-105850000D03*
%TD*%
D14*
%TO.C,U6*%
X131445000Y-151100000D03*
X130175000Y-151100000D03*
X128905000Y-151100000D03*
X127635000Y-151100000D03*
X126365000Y-151100000D03*
X125095000Y-151100000D03*
X123825000Y-151100000D03*
X122555000Y-151100000D03*
X122555000Y-157600000D03*
X123825000Y-157600000D03*
X125095000Y-157600000D03*
X126365000Y-157600000D03*
X127635000Y-157600000D03*
X128905000Y-157600000D03*
X130175000Y-157600000D03*
X131445000Y-157600000D03*
%TD*%
D10*
%TO.C,Q16*%
X71550000Y-140700000D03*
X73450000Y-140700000D03*
X72500000Y-138700000D03*
%TD*%
D12*
%TO.C,R59*%
X128425000Y-142300000D03*
X130175000Y-142300000D03*
%TD*%
D15*
%TO.C,C4*%
X85648800Y-87695100D03*
X85648800Y-84720100D03*
%TD*%
D11*
%TO.C,R74*%
X136375000Y-113200000D03*
X134625000Y-113200000D03*
%TD*%
D10*
%TO.C,Q36*%
X118550000Y-140700000D03*
X120450000Y-140700000D03*
X119500000Y-138700000D03*
%TD*%
%TO.C,Q38*%
X116450000Y-114750000D03*
X114550000Y-114750000D03*
X115500000Y-116750000D03*
%TD*%
D14*
%TO.C,U4*%
X97945000Y-151100000D03*
X96675000Y-151100000D03*
X95405000Y-151100000D03*
X94135000Y-151100000D03*
X92865000Y-151100000D03*
X91595000Y-151100000D03*
X90325000Y-151100000D03*
X89055000Y-151100000D03*
X89055000Y-157600000D03*
X90325000Y-157600000D03*
X91595000Y-157600000D03*
X92865000Y-157600000D03*
X94135000Y-157600000D03*
X95405000Y-157600000D03*
X96675000Y-157600000D03*
X97945000Y-157600000D03*
%TD*%
D10*
%TO.C,Q12*%
X83550000Y-137700000D03*
X85450000Y-137700000D03*
X84500000Y-135700000D03*
%TD*%
D15*
%TO.C,C2*%
X80873600Y-87687500D03*
X80873600Y-84712500D03*
%TD*%
D16*
%TO.C,C24*%
X145800000Y-100375000D03*
X145800000Y-102125000D03*
%TD*%
D12*
%TO.C,C30*%
X148875000Y-80000000D03*
X150625000Y-80000000D03*
%TD*%
D11*
%TO.C,R57*%
X132375000Y-113200000D03*
X130625000Y-113200000D03*
%TD*%
D17*
%TO.C,C6*%
X106987500Y-99700000D03*
X104012500Y-99700000D03*
%TD*%
D18*
%TO.C,C16*%
X100050000Y-157450000D03*
X100050000Y-155700000D03*
%TD*%
D12*
%TO.C,C29*%
X154375000Y-83250000D03*
X156125000Y-83250000D03*
%TD*%
D11*
%TO.C,C25*%
X141375000Y-104050000D03*
X139625000Y-104050000D03*
%TD*%
D12*
%TO.C,R69*%
X148425000Y-142300000D03*
X150175000Y-142300000D03*
%TD*%
D10*
%TO.C,Q44*%
X144550000Y-144700000D03*
X146450000Y-144700000D03*
X145500000Y-142700000D03*
%TD*%
D12*
%TO.C,R43*%
X67625000Y-139300000D03*
X69375000Y-139300000D03*
%TD*%
%TO.C,R70*%
X144625000Y-146300000D03*
X146375000Y-146300000D03*
%TD*%
D18*
%TO.C,C12*%
X73500000Y-83625000D03*
X73500000Y-81875000D03*
%TD*%
D10*
%TO.C,Q42*%
X150550000Y-137700000D03*
X152450000Y-137700000D03*
X151500000Y-135700000D03*
%TD*%
%TO.C,Q31*%
X132450000Y-114750000D03*
X130550000Y-114750000D03*
X131500000Y-116750000D03*
%TD*%
%TO.C,Q39*%
X140450000Y-114750000D03*
X138550000Y-114750000D03*
X139500000Y-116750000D03*
%TD*%
%TO.C,Q17*%
X67550000Y-137700000D03*
X69450000Y-137700000D03*
X68500000Y-135700000D03*
%TD*%
D19*
%TO.C,R23*%
X123500000Y-113725000D03*
X123500000Y-115775000D03*
%TD*%
D15*
%TO.C,R1*%
X107000000Y-90687501D03*
X107000000Y-87712501D03*
%TD*%
D18*
%TO.C,D3*%
X114750000Y-77625000D03*
X114750000Y-75875000D03*
%TD*%
D12*
%TO.C,R49*%
X101425000Y-142300000D03*
X103175000Y-142300000D03*
%TD*%
D19*
%TO.C,R21*%
X76500000Y-113725000D03*
X76500000Y-115775000D03*
%TD*%
D11*
%TO.C,R56*%
X128375000Y-113200000D03*
X126625000Y-113200000D03*
%TD*%
D20*
%TO.C,L1*%
X78845000Y-94700000D03*
X78845000Y-97200000D03*
X78845000Y-99700000D03*
X78845000Y-102200000D03*
X78845000Y-104700000D03*
X78845000Y-107200000D03*
X99155000Y-107200000D03*
X99155000Y-104700000D03*
X99155000Y-102200000D03*
X99155000Y-99700000D03*
X99155000Y-97200000D03*
X99155000Y-94700000D03*
%TD*%
D12*
%TO.C,R5*%
X67780000Y-93700001D03*
X69530000Y-93700001D03*
%TD*%
D11*
%TO.C,R19*%
X156125000Y-79750000D03*
X154375000Y-79750000D03*
%TD*%
D18*
%TO.C,C11*%
X72000000Y-83625000D03*
X72000000Y-81875000D03*
%TD*%
D10*
%TO.C,Q24*%
X97550000Y-144700000D03*
X99450000Y-144700000D03*
X98500000Y-142700000D03*
%TD*%
%TO.C,Q25*%
X93550000Y-144700000D03*
X95450000Y-144700000D03*
X94500000Y-142700000D03*
%TD*%
D11*
%TO.C,R55*%
X120375000Y-113200000D03*
X118625000Y-113200000D03*
%TD*%
%TO.C,C23*%
X149125000Y-102050000D03*
X147375000Y-102050000D03*
%TD*%
D12*
%TO.C,R63*%
X114650000Y-139300000D03*
X116400000Y-139300000D03*
%TD*%
%TO.C,R61*%
X120625000Y-146300000D03*
X122375000Y-146300000D03*
%TD*%
D21*
%TO.C,C5*%
X95513000Y-82143600D03*
X93463000Y-82143600D03*
%TD*%
D18*
%TO.C,C8*%
X69500000Y-92075001D03*
X69500000Y-90325001D03*
%TD*%
D11*
%TO.C,R29*%
X153975000Y-81500000D03*
X152225000Y-81500000D03*
%TD*%
D22*
%TO.C,Q2*%
X68474999Y-104075001D03*
X68474999Y-100725001D03*
X71524999Y-100725001D03*
X71524999Y-104075001D03*
D23*
X72279999Y-96100001D03*
X67719999Y-96100001D03*
%TD*%
D24*
%TO.C,U5*%
X106750000Y-149905000D03*
X106750000Y-151175000D03*
X106750000Y-152445000D03*
X106750000Y-153715000D03*
X106750000Y-154985000D03*
X106750000Y-156255000D03*
X106750000Y-157525000D03*
X106750000Y-158795000D03*
X113250000Y-158795000D03*
X113250000Y-157525000D03*
X113250000Y-156255000D03*
X113250000Y-154985000D03*
X113250000Y-153715000D03*
X113250000Y-152445000D03*
X113250000Y-151175000D03*
X113250000Y-149905000D03*
%TD*%
D10*
%TO.C,Q34*%
X124550000Y-144700000D03*
X126450000Y-144700000D03*
X125500000Y-142700000D03*
%TD*%
D25*
%TO.C,U8*%
X142250000Y-98425000D03*
X142750000Y-98425000D03*
X143250000Y-98425000D03*
X143750000Y-98425000D03*
X144250000Y-98425000D03*
X144750000Y-98425000D03*
X145250000Y-98425000D03*
X145750000Y-98425000D03*
X146250000Y-98425000D03*
X146750000Y-98425000D03*
X147250000Y-98425000D03*
X147750000Y-98425000D03*
X148250000Y-98425000D03*
X148750000Y-98425000D03*
X149250000Y-98425000D03*
X149750000Y-98425000D03*
D26*
X151675000Y-96500000D03*
X151675000Y-96000000D03*
X151675000Y-95500000D03*
X151675000Y-95000000D03*
X151675000Y-94500000D03*
X151675000Y-94000000D03*
X151675000Y-93500000D03*
X151675000Y-93000000D03*
X151675000Y-92500000D03*
X151675000Y-92000000D03*
X151675000Y-91500000D03*
X151675000Y-91000000D03*
X151675000Y-90500000D03*
X151675000Y-90000000D03*
X151675000Y-89500000D03*
X151675000Y-89000000D03*
D25*
X149750000Y-87075000D03*
X149250000Y-87075000D03*
X148750000Y-87075000D03*
X148250000Y-87075000D03*
X147750000Y-87075000D03*
X147250000Y-87075000D03*
X146750000Y-87075000D03*
X146250000Y-87075000D03*
X145750000Y-87075000D03*
X145250000Y-87075000D03*
X144750000Y-87075000D03*
X144250000Y-87075000D03*
X143750000Y-87075000D03*
X143250000Y-87075000D03*
X142750000Y-87075000D03*
X142250000Y-87075000D03*
D26*
X140325000Y-89000000D03*
X140325000Y-89500000D03*
X140325000Y-90000000D03*
X140325000Y-90500000D03*
X140325000Y-91000000D03*
X140325000Y-91500000D03*
X140325000Y-92000000D03*
X140325000Y-92500000D03*
X140325000Y-93000000D03*
X140325000Y-93500000D03*
X140325000Y-94000000D03*
X140325000Y-94500000D03*
X140325000Y-95000000D03*
X140325000Y-95500000D03*
X140325000Y-96000000D03*
X140325000Y-96500000D03*
%TD*%
D10*
%TO.C,Q19*%
X93450000Y-114750000D03*
X91550000Y-114750000D03*
X92500000Y-116750000D03*
%TD*%
D12*
%TO.C,R60*%
X124625000Y-146300000D03*
X126375000Y-146300000D03*
%TD*%
D16*
%TO.C,R27*%
X144250000Y-100775000D03*
X144250000Y-102525000D03*
%TD*%
D10*
%TO.C,Q40*%
X148450000Y-114750000D03*
X146550000Y-114750000D03*
X147500000Y-116750000D03*
%TD*%
%TO.C,Q28*%
X89450000Y-114750000D03*
X87550000Y-114750000D03*
X88500000Y-116750000D03*
%TD*%
D16*
%TO.C,R34*%
X116510000Y-79335000D03*
X116510000Y-81085000D03*
%TD*%
D10*
%TO.C,Q33*%
X126550000Y-140700000D03*
X128450000Y-140700000D03*
X127500000Y-138700000D03*
%TD*%
D11*
%TO.C,R44*%
X69375000Y-113200000D03*
X67625000Y-113200000D03*
%TD*%
%TO.C,C28*%
X134625000Y-102800000D03*
X132875000Y-102800000D03*
%TD*%
%TO.C,R42*%
X71575000Y-142300000D03*
X69825000Y-142300000D03*
%TD*%
D16*
%TO.C,R32*%
X113000000Y-79375000D03*
X113000000Y-81125000D03*
%TD*%
D11*
%TO.C,R52*%
X91575000Y-142300000D03*
X89825000Y-142300000D03*
%TD*%
%TO.C,R31*%
X145125000Y-79750000D03*
X143375000Y-79750000D03*
%TD*%
D27*
%TO.C,Y2*%
X136630000Y-100300000D03*
X136630000Y-102800000D03*
%TD*%
D18*
%TO.C,D4*%
X116500000Y-77625000D03*
X116500000Y-75875000D03*
%TD*%
D11*
%TO.C,R35*%
X73375000Y-113200000D03*
X71625000Y-113200000D03*
%TD*%
D12*
%TO.C,R51*%
X93625000Y-146300000D03*
X95375000Y-146300000D03*
%TD*%
D28*
%TO.C,J2*%
X138830000Y-74225000D03*
X138830000Y-79275000D03*
X136290000Y-74225000D03*
X136290000Y-79275000D03*
X133750000Y-74225000D03*
X133750000Y-79275000D03*
X131210000Y-74225000D03*
X131210000Y-79275000D03*
X128670000Y-74225000D03*
X128670000Y-79275000D03*
%TD*%
D12*
%TO.C,R39*%
X81425000Y-142300000D03*
X83175000Y-142300000D03*
%TD*%
D10*
%TO.C,Q11*%
X85450000Y-114750000D03*
X83550000Y-114750000D03*
X84500000Y-116750000D03*
%TD*%
D12*
%TO.C,R8*%
X71925000Y-85150000D03*
X73675000Y-85150000D03*
%TD*%
D11*
%TO.C,C27*%
X134625000Y-100300000D03*
X132875000Y-100300000D03*
%TD*%
%TO.C,R72*%
X138575000Y-142300000D03*
X136825000Y-142300000D03*
%TD*%
D12*
%TO.C,R68*%
X150625000Y-139300000D03*
X152375000Y-139300000D03*
%TD*%
%TO.C,R41*%
X73625000Y-146300000D03*
X75375000Y-146300000D03*
%TD*%
D10*
%TO.C,Q47*%
X134550000Y-137700000D03*
X136450000Y-137700000D03*
X135500000Y-135700000D03*
%TD*%
%TO.C,Q26*%
X91550000Y-140700000D03*
X93450000Y-140700000D03*
X92500000Y-138700000D03*
%TD*%
D18*
%TO.C,C20*%
X138400000Y-97325000D03*
X138400000Y-95575000D03*
%TD*%
D16*
%TO.C,C21*%
X153600000Y-87475000D03*
X153600000Y-89225000D03*
%TD*%
D12*
%TO.C,R48*%
X103625000Y-139300000D03*
X105375000Y-139300000D03*
%TD*%
D10*
%TO.C,Q43*%
X146550000Y-140700000D03*
X148450000Y-140700000D03*
X147500000Y-138700000D03*
%TD*%
D16*
%TO.C,R3*%
X77000000Y-90325001D03*
X77000000Y-92075001D03*
%TD*%
D14*
%TO.C,U3*%
X81445000Y-151100000D03*
X80175000Y-151100000D03*
X78905000Y-151100000D03*
X77635000Y-151100000D03*
X76365000Y-151100000D03*
X75095000Y-151100000D03*
X73825000Y-151100000D03*
X72555000Y-151100000D03*
X72555000Y-157600000D03*
X73825000Y-157600000D03*
X75095000Y-157600000D03*
X76365000Y-157600000D03*
X77635000Y-157600000D03*
X78905000Y-157600000D03*
X80175000Y-157600000D03*
X81445000Y-157600000D03*
%TD*%
D10*
%TO.C,Q45*%
X140550000Y-144700000D03*
X142450000Y-144700000D03*
X141500000Y-142700000D03*
%TD*%
D17*
%TO.C,C7*%
X106987500Y-97199999D03*
X104012500Y-97199999D03*
%TD*%
D18*
%TO.C,C15*%
X83500000Y-157475000D03*
X83500000Y-155725000D03*
%TD*%
%TO.C,C18*%
X133450000Y-157450000D03*
X133450000Y-155700000D03*
%TD*%
D12*
%TO.C,R73*%
X134625000Y-139300000D03*
X136375000Y-139300000D03*
%TD*%
%TO.C,R40*%
X77625000Y-146300000D03*
X79375000Y-146300000D03*
%TD*%
D29*
%TO.C,C9*%
X74130001Y-95100001D03*
X76180001Y-95100001D03*
%TD*%
D10*
%TO.C,Q27*%
X87550000Y-137700000D03*
X89450000Y-137700000D03*
X88500000Y-135700000D03*
%TD*%
%TO.C,Q21*%
X105450000Y-114750000D03*
X103550000Y-114750000D03*
X104500000Y-116750000D03*
%TD*%
D17*
%TO.C,FB1*%
X95594500Y-79150000D03*
X92619500Y-79150000D03*
%TD*%
D10*
%TO.C,Q15*%
X73550000Y-144700000D03*
X75450000Y-144700000D03*
X74500000Y-142700000D03*
%TD*%
%TO.C,Q9*%
X73450000Y-114750000D03*
X71550000Y-114750000D03*
X72500000Y-116750000D03*
%TD*%
D16*
%TO.C,C26*%
X145500000Y-105875000D03*
X145500000Y-107625000D03*
%TD*%
D12*
%TO.C,R58*%
X130625000Y-139300000D03*
X132375000Y-139300000D03*
%TD*%
D18*
%TO.C,R4*%
X70400000Y-84125000D03*
X70400000Y-82375000D03*
%TD*%
%TO.C,C19*%
X150000000Y-157475000D03*
X150000000Y-155725000D03*
%TD*%
D11*
%TO.C,R64*%
X116375000Y-113200000D03*
X114625000Y-113200000D03*
%TD*%
D19*
%TO.C,R24*%
X143500000Y-113725000D03*
X143500000Y-115775000D03*
%TD*%
D10*
%TO.C,Q30*%
X128450000Y-114750000D03*
X126550000Y-114750000D03*
X127500000Y-116750000D03*
%TD*%
D11*
%TO.C,R36*%
X81375000Y-113200000D03*
X79625000Y-113200000D03*
%TD*%
D10*
%TO.C,Q35*%
X120550000Y-144700000D03*
X122450000Y-144700000D03*
X121500000Y-142700000D03*
%TD*%
%TO.C,Q10*%
X81450000Y-114750000D03*
X79550000Y-114750000D03*
X80500000Y-116750000D03*
%TD*%
D12*
%TO.C,R38*%
X83625000Y-139300000D03*
X85375000Y-139300000D03*
%TD*%
D10*
%TO.C,Q48*%
X136450000Y-114750000D03*
X134550000Y-114750000D03*
X135500000Y-116750000D03*
%TD*%
D11*
%TO.C,R30*%
X147275000Y-81500000D03*
X145525000Y-81500000D03*
%TD*%
%TO.C,R47*%
X105375000Y-113200000D03*
X103625000Y-113200000D03*
%TD*%
D15*
%TO.C,C1*%
X78500000Y-87687500D03*
X78500000Y-84712500D03*
%TD*%
D11*
%TO.C,R67*%
X152375000Y-113200000D03*
X150625000Y-113200000D03*
%TD*%
%TO.C,R37*%
X85375000Y-113200000D03*
X83625000Y-113200000D03*
%TD*%
D12*
%TO.C,C31*%
X143375000Y-83250000D03*
X145125000Y-83250000D03*
%TD*%
D11*
%TO.C,R66*%
X148375000Y-113200000D03*
X146625000Y-113200000D03*
%TD*%
D14*
%TO.C,U7*%
X147945000Y-151100000D03*
X146675000Y-151100000D03*
X145405000Y-151100000D03*
X144135000Y-151100000D03*
X142865000Y-151100000D03*
X141595000Y-151100000D03*
X140325000Y-151100000D03*
X139055000Y-151100000D03*
X139055000Y-157600000D03*
X140325000Y-157600000D03*
X141595000Y-157600000D03*
X142865000Y-157600000D03*
X144135000Y-157600000D03*
X145405000Y-157600000D03*
X146675000Y-157600000D03*
X147945000Y-157600000D03*
%TD*%
D30*
%TO.C,U1*%
X72029999Y-91170000D03*
X72969999Y-91170000D03*
X72029999Y-90330000D03*
X72969999Y-90330000D03*
D31*
X73499999Y-88600000D03*
X72999999Y-88600000D03*
X72499999Y-88600000D03*
X71999999Y-88600000D03*
X71499999Y-88600000D03*
X71499999Y-92900000D03*
X71999999Y-92900000D03*
X72499999Y-92900000D03*
X72999999Y-92900000D03*
X73499999Y-92900000D03*
%TD*%
D18*
%TO.C,R28*%
X138400000Y-93899999D03*
X138400000Y-92149999D03*
%TD*%
D10*
%TO.C,Q13*%
X79550000Y-140700000D03*
X81450000Y-140700000D03*
X80500000Y-138700000D03*
%TD*%
D11*
%TO.C,R46*%
X101375000Y-113200000D03*
X99625000Y-113200000D03*
%TD*%
D12*
%TO.C,R50*%
X97600000Y-146300000D03*
X99350000Y-146300000D03*
%TD*%
D10*
%TO.C,Q37*%
X114550000Y-137700000D03*
X116450000Y-137700000D03*
X115500000Y-135700000D03*
%TD*%
%TO.C,Q46*%
X138550000Y-140700000D03*
X140450000Y-140700000D03*
X139500000Y-138700000D03*
%TD*%
D32*
%TO.C,D1*%
X106700001Y-93700001D03*
X102300001Y-93700001D03*
%TD*%
D16*
%TO.C,R33*%
X114750000Y-79375000D03*
X114750000Y-81125000D03*
%TD*%
D10*
%TO.C,Q18*%
X69450000Y-114750000D03*
X67550000Y-114750000D03*
X68500000Y-116750000D03*
%TD*%
D15*
%TO.C,C3*%
X83261200Y-87695100D03*
X83261200Y-84720100D03*
%TD*%
D21*
%TO.C,C14*%
X105025000Y-74550000D03*
X102975000Y-74550000D03*
%TD*%
D11*
%TO.C,R62*%
X118575000Y-142300000D03*
X116825000Y-142300000D03*
%TD*%
D10*
%TO.C,Q14*%
X77550000Y-144700000D03*
X79450000Y-144700000D03*
X78500000Y-142700000D03*
%TD*%
D11*
%TO.C,R7*%
X69024999Y-87150000D03*
X67274999Y-87150000D03*
%TD*%
D10*
%TO.C,Q22*%
X103550000Y-137700000D03*
X105450000Y-137700000D03*
X104500000Y-135700000D03*
%TD*%
%TO.C,Q20*%
X101450000Y-114750000D03*
X99550000Y-114750000D03*
X100500000Y-116750000D03*
%TD*%
D18*
%TO.C,D2*%
X113000000Y-77625000D03*
X113000000Y-75875000D03*
%TD*%
D11*
%TO.C,R54*%
X89375000Y-113200000D03*
X87625000Y-113200000D03*
%TD*%
D33*
%TO.C,U2*%
X100850000Y-76950000D03*
X100850000Y-79250000D03*
D34*
X107150000Y-79250000D03*
D33*
X100850000Y-81550000D03*
%TD*%
D11*
%TO.C,C10*%
X69025000Y-85650000D03*
X67275000Y-85650000D03*
%TD*%
%TO.C,C22*%
X149125000Y-100400000D03*
X147375000Y-100400000D03*
%TD*%
D10*
%TO.C,Q23*%
X99550000Y-140700000D03*
X101450000Y-140700000D03*
X100500000Y-138700000D03*
%TD*%
D35*
%TO.C,C13*%
X98000000Y-80275000D03*
X98000000Y-78225000D03*
%TD*%
D11*
%TO.C,R2*%
X104875000Y-87500000D03*
X103125000Y-87500000D03*
%TD*%
D36*
%TO.C,F1*%
X86040000Y-79150000D03*
X90490000Y-79150000D03*
%TD*%
D18*
%TO.C,C17*%
X115400000Y-149775000D03*
X115400000Y-148025000D03*
%TD*%
D11*
%TO.C,R65*%
X140375000Y-113200000D03*
X138625000Y-113200000D03*
%TD*%
D19*
%TO.C,R22*%
X96500000Y-113725000D03*
X96500000Y-115775000D03*
%TD*%
D15*
%TO.C,R6*%
X65500001Y-93187501D03*
X65500001Y-90212501D03*
%TD*%
D10*
%TO.C,Q29*%
X120450000Y-114750000D03*
X118550000Y-114750000D03*
X119500000Y-116750000D03*
%TD*%
D12*
%TO.C,R20*%
X148875000Y-83000000D03*
X150625000Y-83000000D03*
%TD*%
M02*
